<svg width="72" height="72" viewBox="0 0 72 72" fill="none" xmlns="http://www.w3.org/2000/svg">
<g clip-path="url(#clip0_3010_1530)">
<path d="M40.0968 33.0288C31.6425 25.8936 29.8137 26.5232 22.2587 21.8763C22.032 21.7293 21.7563 21.6784 21.4921 21.7346C21.2279 21.7908 20.9969 21.9496 20.8496 22.1761C20.5199 22.6558 20.1601 43.1622 20.1601 43.1622C20.045 44.4096 20.2407 45.6663 20.7297 46.8198C22.0788 48.8883 25.1068 47.7492 27.2654 46.5501C29.424 45.3507 34.4307 41.6031 38.658 38.3355C39.3474 37.8258 41.3862 36.8364 41.6559 35.3373C41.9256 33.8385 40.8465 33.5985 40.0968 33.0288ZM29.7538 40.584C27.8733 42.1611 25.7852 43.4724 23.5478 44.4813C23.5478 44.0316 23.1881 25.0841 23.1881 24.9642C30.5331 29.5812 31.4625 29.2514 37.8183 35.0676C37.3386 35.3073 29.7538 40.584 29.7538 40.584Z" fill="#52A755"/>
<path d="M59.3142 29.8209C58.3311 30.1686 57.4707 30.795 56.838 31.6239C56.205 32.4525 55.8276 33.4476 55.7511 34.4877C55.6749 35.5275 55.9032 36.567 56.4081 37.4793C56.913 38.3916 57.6729 39.1371 58.5948 39.6243C59.1975 39.945 59.8581 40.1421 60.5379 40.2039C61.218 40.2657 61.9032 40.191 62.5539 39.9843C63.2046 39.7776 63.8076 39.4431 64.3272 39.0003C64.8468 38.5578 65.2728 38.0154 65.58 37.4058C68.6382 29.2213 61.113 29.1314 59.3142 29.8209ZM63.1518 35.817C62.8794 36.2205 62.4852 36.5262 62.0268 36.6891C61.5684 36.8523 61.0698 36.8646 60.6039 36.7236C60.138 36.5829 59.7294 36.2967 59.4381 35.907C59.1465 35.5173 58.9878 35.0445 58.9845 34.5579C58.983 34.0425 59.1048 33.5343 59.3394 33.0753C59.574 32.6163 59.9148 32.2203 60.3336 31.9194C61.4427 31.23 65.82 32.2794 63.0318 35.817H63.1518Z" fill="#52A755"/>
<path d="M9.75696 28.8619C9.75696 27.8426 8.19801 27.213 7.89819 28.8619C7.02858 32.4375 7.02858 36.1692 7.89819 39.7446C7.89819 40.0152 8.00559 40.2744 8.19675 40.4655C8.38791 40.6566 8.6472 40.764 8.91753 40.764C9.18786 40.764 9.44715 40.6566 9.63831 40.4655C9.82947 40.2744 9.93687 40.0152 9.93687 39.7446C10.9605 36.18 10.8978 32.391 9.75696 28.8619Z" fill="#52A755"/>
<path d="M50.3802 58.302C50.4219 58.5462 50.5485 58.7676 50.7378 58.9272C50.9271 59.0868 51.1668 59.1744 51.4146 59.1744C51.6621 59.1744 51.9018 59.0868 52.0911 58.9272C52.2804 58.7676 52.407 58.5462 52.4487 58.302L53.7378 13.9912C53.8878 11.7128 51.7293 11.9826 51.8193 13.9912C50.2824 28.7082 49.8015 43.5162 50.3802 58.302Z" fill="#52A755"/>
<path d="M71.0364 15.7903C70.2525 14.1492 69.0609 12.7364 67.5756 11.6867C66.0903 10.637 64.3608 9.98544 62.5521 9.79425C53.7678 7.90548 26.0063 9.04473 12.725 9.67431C8.58777 9.85419 4.51047 9.91416 2.23196 13.5418C-0.616155 18.0388 0.0733907 31.7097 0.0733907 38.7252C0.0733907 45.7404 -0.796035 55.9638 4.63038 59.7111C9.4272 63.099 21.3893 62.5593 29.1542 62.919C37.9041 63.4242 46.6776 63.3441 55.4169 62.6793C59.5542 62.3496 66.1497 62.1096 68.8779 58.9017C71.6061 55.6938 71.4261 37.5258 71.5461 34.0782C72.0258 23.6451 72.4455 19.178 71.0364 15.7903ZM69.6873 34.0482C69.6873 37.0461 68.8479 55.5141 67.1991 57.4326C63.3015 61.8399 35.2401 60.4308 29.364 60.0111C24.0575 59.7111 18.5112 59.8011 13.2947 59.0217C7.53846 58.2123 5.17002 57.5826 4.06074 51.9465C3.47493 47.5749 3.3243 43.1562 3.61104 38.7552C3.61104 33.2088 3.34122 27.6324 3.82092 22.1461C4.51047 14.1414 4.84023 13.4818 12.815 13.152C20.7897 12.8222 48.0417 9.37452 61.5027 12.0427C63.0378 12.1568 64.5231 12.6386 65.8326 13.4474C67.1424 14.2562 68.2383 15.3682 69.0279 16.6897C70.227 19.6277 69.9573 23.6451 69.6873 34.0482Z" fill="#52A755"/>
</g>
<defs>
<clipPath id="clip0_3010_1530">
<rect width="72" height="72" fill="white"/>
</clipPath>
</defs>
</svg>
