<svg xmlns="http://www.w3.org/2000/svg" xmlns:xlink="http://www.w3.org/1999/xlink" width="72" zoomAndPan="magnify" viewBox="0 0 54 54" height="72" preserveAspectRatio="xMidYMid meet" version="1.0"><defs><clipPath id="5524520699"><path d="M 0.492188 0 L 53.507812 0 L 53.507812 53.019531 L 0.492188 53.019531 Z M 0.492188 0 " clip-rule="nonzero"/></clipPath><clipPath id="bc1dfe58ff"><path d="M 0.492188 3 L 53.507812 3 L 53.507812 27 L 0.492188 27 Z M 0.492188 3 " clip-rule="nonzero"/></clipPath><clipPath id="1741b1a14b"><path d="M 36 23 L 53.507812 23 L 53.507812 43 L 36 43 Z M 36 23 " clip-rule="nonzero"/></clipPath><clipPath id="6e8fb180c1"><rect x="0" width="54" y="0" height="54"/></clipPath></defs><g clip-path="url(#5524520699)"><g transform="matrix(1, 0, 0, 1, 0.000000000000000056, -0.000000000000014165)"><g clip-path="url(#6e8fb180c1)"><g clip-path="url(#bc1dfe58ff)"><path fill="#000000" d="M 16.570312 8.046875 C 13.300781 10.695312 10.394531 13.765625 7.929688 17.175781 C 7.355469 18.015625 5.984375 19.851562 4.570312 21.597656 C 3.488281 22.898438 2.359375 24.160156 1.652344 24.910156 C 1.433594 25.132812 1.078125 25.265625 1.125 25.375 C 0.925781 25.421875 0.75 25.539062 0.636719 25.707031 C 0.519531 25.875 0.472656 26.082031 0.5 26.28125 C 0.527344 26.484375 0.628906 26.667969 0.785156 26.800781 C 0.941406 26.929688 1.140625 26.996094 1.34375 26.988281 C 2.207031 26.597656 2.964844 26.007812 3.554688 25.265625 C 5.617188 23.011719 7.558594 20.652344 9.367188 18.191406 C 11.792969 14.988281 14.621094 12.113281 17.789062 9.640625 C 20.417969 7.585938 22.894531 5.992188 24.261719 6.125 C 24.417969 6.125 24.484375 6.324219 24.59375 6.5 C 24.773438 6.878906 24.898438 7.28125 24.96875 7.695312 C 25.253906 10.070312 25.296875 12.46875 25.101562 14.855469 C 25.042969 15.304688 25.042969 15.757812 25.101562 16.203125 C 25.136719 16.445312 25.242188 16.671875 25.40625 16.847656 C 25.574219 17.027344 25.792969 17.148438 26.03125 17.199219 C 26.625 17.34375 27.234375 17.414062 27.84375 17.398438 C 29.035156 17.398438 30.320312 17.175781 31.378906 17.175781 L 44.089844 17.175781 C 45.480469 17.085938 46.875 17.085938 48.265625 17.175781 C 48.542969 17.171875 48.816406 17.230469 49.066406 17.347656 C 49.320312 17.460938 49.542969 17.628906 49.722656 17.839844 C 50.066406 18.53125 50.28125 19.28125 50.363281 20.050781 C 50.355469 20.101562 50.355469 20.152344 50.363281 20.203125 C 50.695312 23.363281 53.171875 22.746094 53.171875 20.160156 C 53.171875 19.695312 53.039062 19.230469 52.949219 18.8125 C 52.792969 17.949219 52.492188 17.121094 52.066406 16.359375 C 51.472656 15.445312 50.542969 14.800781 49.480469 14.566406 C 47.6875 14.359375 45.878906 14.359375 44.089844 14.566406 L 31.46875 14.679688 C 30.40625 14.679688 29.101562 14.921875 27.910156 14.964844 L 27.535156 14.964844 C 27.644531 12.515625 27.554688 10.0625 27.269531 7.628906 C 26.871094 5.417969 25.875 4.046875 24.460938 3.9375 C 23.046875 3.828125 19.710938 5.484375 16.570312 8.046875 Z M 16.570312 8.046875 " fill-opacity="1" fill-rule="nonzero"/></g><path fill="#000000" d="M 33.679688 40.582031 L 35.246094 41.113281 C 37.039062 42.171875 37.457031 39.054688 35.820312 38.570312 C 31.46875 37.132812 26.03125 35.386719 25.875 35.386719 C 25.628906 35.378906 25.382812 35.445312 25.175781 35.585938 C 24.96875 35.726562 24.8125 35.925781 24.726562 36.160156 C 24.601562 36.5625 24.535156 36.980469 24.527344 37.398438 C 24.527344 39.34375 24.683594 43.894531 24.394531 45.773438 L 24.019531 47.121094 C 23.511719 47.277344 22.871094 46.925781 22.230469 46.570312 C 21.453125 46.148438 20.714844 45.660156 20.019531 45.113281 C 17.984375 43.410156 15.886719 41.707031 13.875 39.941406 C 12.527344 38.769531 11.222656 37.574219 10.007812 36.316406 L 6.160156 32.25 L 2.472656 28.359375 C 2.332031 28.261719 2.160156 28.214844 1.988281 28.226562 C 1.816406 28.242188 1.65625 28.316406 1.535156 28.4375 C 1.414062 28.558594 1.335938 28.722656 1.324219 28.894531 C 1.308594 29.0625 1.355469 29.234375 1.453125 29.375 L 5.144531 33.175781 L 8.902344 37.332031 C 10.140625 38.660156 11.445312 39.894531 12.792969 41.132812 C 14.78125 42.945312 16.859375 44.714844 18.847656 46.460938 C 19.886719 47.40625 21.066406 48.1875 22.339844 48.78125 C 23.070312 49.101562 23.886719 49.171875 24.660156 48.980469 C 25.125 48.816406 25.519531 48.507812 25.789062 48.09375 C 26.195312 47.421875 26.445312 46.667969 26.515625 45.886719 C 26.847656 44.140625 26.78125 40.074219 26.871094 37.863281 C 28.285156 38.570312 31.070312 39.628906 33.679688 40.582031 Z M 33.679688 40.582031 " fill-opacity="1" fill-rule="nonzero"/><g clip-path="url(#1741b1a14b)"><path fill="#000000" d="M 50.695312 23.539062 C 50.109375 24.269531 49.351562 24.839844 48.484375 25.199219 C 45.917969 25.976562 43.230469 26.296875 40.550781 26.148438 C 39.796875 26.164062 39.050781 26.296875 38.339844 26.546875 C 37.933594 26.703125 37.589844 26.988281 37.367188 27.363281 C 36.8125 28.363281 36.539062 29.492188 36.574219 30.636719 C 36.640625 31.8125 36.839844 32.976562 37.171875 34.105469 C 37.757812 36.707031 38.128906 39.355469 38.273438 42.015625 C 38.605469 42.546875 39.113281 42.261719 39.46875 42.347656 C 40.503906 42.351562 41.53125 42.195312 42.519531 41.886719 C 43.421875 41.617188 44.273438 41.199219 45.039062 40.648438 C 46.746094 39.386719 48.324219 37.957031 49.746094 36.382812 C 50.710938 35.269531 51.527344 34.035156 52.175781 32.714844 C 52.800781 31.308594 53.210938 29.820312 53.390625 28.292969 C 53.546875 26.824219 53.546875 25.34375 53.390625 23.871094 C 53.363281 23.621094 53.246094 23.386719 53.0625 23.210938 C 52.882812 22.921875 50.675781 23.144531 50.695312 23.539062 Z M 50.695312 27.960938 C 50.546875 29.1875 50.222656 30.386719 49.722656 31.519531 C 49.171875 32.617188 48.492188 33.640625 47.691406 34.570312 C 46.394531 36.011719 44.957031 37.324219 43.402344 38.480469 C 43.011719 38.773438 42.582031 39.003906 42.121094 39.167969 C 41.402344 39.417969 40.664062 39.605469 39.910156 39.71875 C 40.285156 36.535156 39.136719 33.355469 39.269531 30.65625 C 39.402344 27.960938 39.578125 28.976562 41.257812 28.824219 C 43.464844 28.71875 45.644531 28.339844 47.757812 27.695312 C 48.839844 27.332031 49.851562 26.78125 50.742188 26.0625 C 50.753906 26.703125 50.722656 27.34375 50.652344 27.984375 Z M 50.695312 27.960938 " fill-opacity="1" fill-rule="nonzero"/></g></g></g></g></svg>