<svg width="72" height="72" viewBox="0 0 72 72" fill="none" xmlns="http://www.w3.org/2000/svg">
<path d="M50.1615 10.9296C54.6024 14.5265 58.5483 18.6945 61.8969 23.3254C62.6772 24.4659 64.5381 26.957 66.459 29.3281C67.9296 31.0989 69.4605 32.8098 70.4208 33.8301C70.7211 34.1304 71.2014 34.3104 71.1411 34.4604C71.4108 34.5234 71.6472 34.6845 71.8041 34.9125C71.961 35.1402 72.027 35.4186 71.9895 35.6928C71.952 35.967 71.8134 36.2172 71.601 36.3945C71.3886 36.5718 71.1177 36.6636 70.8411 36.6516C69.6678 36.1227 68.6385 35.3196 67.8396 34.3104C65.0382 31.2528 62.4033 28.0467 59.946 24.706C56.6532 20.3556 52.8093 16.4511 48.5106 13.0906C44.9391 10.2993 41.5776 8.13828 39.7167 8.31837C39.5064 8.31837 39.4164 8.58849 39.2664 8.82861C39.0255 9.34401 38.8542 9.88896 38.7561 10.4494C38.3718 13.6767 38.3115 16.9345 38.5761 20.1739C38.6553 20.7816 38.6553 21.397 38.5761 22.0047C38.5326 22.3331 38.388 22.6397 38.1618 22.8818C37.9359 23.1239 37.6401 23.2895 37.3155 23.3554C36.5109 23.5554 35.6832 23.6462 34.8543 23.6255C33.2337 23.6255 31.4928 23.3254 30.0522 23.3254H12.7941C10.9052 23.2007 9.01023 23.2007 7.12143 23.3254C6.74559 23.3221 6.37359 23.4011 6.03144 23.5566C5.68929 23.7122 5.38521 23.9405 5.1405 24.2258C4.67763 25.1678 4.38306 26.1836 4.27008 27.2272C4.28244 27.2967 4.28244 27.3678 4.27008 27.4373C3.81987 31.7292 0.458313 30.8889 0.458313 27.3772C0.458313 26.747 0.638397 26.1167 0.758454 25.5464C0.973752 24.3777 1.37932 23.2522 1.95901 22.2148C2.76343 20.9733 4.02546 20.0996 5.47065 19.7837C7.90365 19.5018 10.3611 19.5018 12.7941 19.7837L29.9321 19.9338C31.3728 19.9338 33.1434 20.2639 34.7643 20.324H35.2746C35.1246 16.9981 35.2449 13.6656 35.6346 10.3593C36.1749 7.35792 37.5255 5.49705 39.4464 5.34699C41.3673 5.1969 45.8994 7.44795 50.1615 10.9296Z" fill="black"/>
<path d="M26.9309 55.11L24.7999 55.8303C22.3688 57.2712 21.7985 53.0391 24.0195 52.3788C29.9323 50.4279 37.3158 48.0567 37.5258 48.0567C37.8639 48.0432 38.1975 48.1377 38.478 48.3267C38.7588 48.5154 38.9718 48.789 39.0864 49.1073C39.2559 49.6518 39.3468 50.2179 39.3567 50.7882C39.3567 53.4294 39.1467 59.6121 39.5367 62.1633L40.047 63.9942C40.7373 64.2042 41.6076 63.7242 42.4782 63.2439C43.5321 62.6688 44.5362 62.0061 45.4794 61.263C48.2409 58.9518 51.0921 56.6409 53.8233 54.2397C55.6542 52.6488 57.4251 51.0282 59.0757 49.3173L64.2984 43.7949L69.3105 38.5125C69.5013 38.3775 69.7338 38.3142 69.9666 38.334C70.1994 38.3538 70.4178 38.4552 70.5831 38.6205C70.7484 38.7858 70.8498 39.0042 70.8696 39.237C70.8894 39.4698 70.8264 39.7023 70.6914 39.8931L65.679 45.0555L60.5766 50.6979C58.8957 52.4988 57.1248 54.1797 55.2942 55.8603C52.5927 58.3215 49.7715 60.7227 47.0703 63.0939C45.6588 64.3791 44.0598 65.4417 42.3279 66.2454C41.3364 66.6819 40.2279 66.7767 39.1767 66.5154C38.5473 66.2964 38.0088 65.874 37.6458 65.3148C37.0929 64.4022 36.7542 63.3759 36.6555 62.3133C36.2052 59.9424 36.2952 54.4197 36.1752 51.4185C34.2543 52.3788 30.4725 53.8194 26.9309 55.11Z" fill="black"/>
<path d="M3.82011 31.9692C4.61475 32.9607 5.64723 33.735 6.82152 34.2204C10.3104 35.2758 13.9571 35.7126 17.5965 35.511C18.6194 35.5296 19.6327 35.712 20.5979 36.0513C21.1513 36.261 21.6169 36.6525 21.9185 37.1616C22.6722 38.5182 23.0455 40.0527 22.999 41.6037C22.9091 43.2003 22.6372 44.7813 22.1887 46.3161C21.3881 49.8492 20.8861 53.4435 20.688 57.0609C20.2378 57.7812 19.5474 57.3912 19.0672 57.5112C17.6626 57.5121 16.266 57.2997 14.9253 56.8809C13.6983 56.517 12.5416 55.9488 11.5037 55.2C9.18483 53.4873 7.04319 51.5466 5.11071 49.4073C3.80079 47.8953 2.69114 46.2207 1.80918 44.4252C0.960888 42.5184 0.4044 40.4946 0.158408 38.4222C-0.0528028 36.4269 -0.0528028 34.4148 0.158408 32.4195C0.200329 32.0766 0.359352 31.7583 0.608619 31.5192C0.84873 31.1289 3.85014 31.4292 3.82011 31.9692ZM3.82011 37.9722C4.02039 39.639 4.46538 41.2674 5.14074 42.8043C5.88792 44.2929 6.81531 45.684 7.90203 46.9464C9.66123 48.9066 11.6118 50.6862 13.7247 52.2588C14.2536 52.6566 14.8408 52.9707 15.4655 53.1891C16.4401 53.5332 17.4451 53.7846 18.4669 53.9394C17.9567 49.6176 19.5174 45.2955 19.3373 41.6337C19.1572 37.9722 18.9172 39.3528 16.6361 39.1428C13.6425 39.0015 10.6782 38.4873 7.81197 37.6119C6.33927 37.1202 4.96683 36.3678 3.76008 35.391C3.74418 36.2631 3.78429 37.1352 3.88014 38.0022L3.82011 37.9722Z" fill="black"/>
</svg>
