<svg width="72" height="72" viewBox="0 0 72 72" fill="none" xmlns="http://www.w3.org/2000/svg">
<path d="M25.858 32.2416C26.8362 31.686 27.6912 30.9375 28.3711 30.0411C29.051 29.1449 29.5416 28.1198 29.8132 27.0281C30.0891 25.9867 30.1518 24.9002 29.9978 23.834C29.8436 22.7677 29.4757 21.7436 28.9161 20.823C28.3565 19.9024 27.6167 19.1043 26.741 18.4766C25.8654 17.849 24.8721 17.4046 23.8205 17.1702C22.5657 16.823 21.2401 16.823 19.9853 17.1702C18.6627 17.5127 17.4356 18.1521 16.3972 19.04C15.3588 19.9278 14.5365 21.0406 13.9926 22.2939C13.4027 23.6459 13.2217 25.141 13.472 26.5947C13.7222 28.0484 14.3928 29.397 15.4009 30.4737C16.7543 31.8087 18.458 32.7333 20.3148 33.1404C22.2105 33.5178 24.1787 33.1986 25.858 32.2416ZM16.8691 23.2527C17.1737 22.3695 17.6703 21.5648 18.323 20.8965C18.9758 20.2281 19.7687 19.7128 20.6444 19.3875C21.6802 19.0121 22.8148 19.0121 23.8505 19.3875C24.5849 19.5139 25.2801 19.8087 25.8815 20.2488C26.4828 20.689 26.9741 21.2625 27.3166 21.9243C27.6591 22.5862 27.8437 23.3184 27.8558 24.0635C27.8678 24.8087 27.7071 25.5465 27.3861 26.2191C27.1595 26.962 26.7742 27.6469 26.2569 28.2263C25.7395 28.8058 25.1025 29.2659 24.3898 29.5749C23.3051 29.9545 22.1253 29.9651 21.034 29.6049C19.8313 29.3062 18.733 28.6845 17.8579 27.8071C17.2838 27.2099 16.8937 26.46 16.7343 25.6471C16.5749 24.8342 16.6529 23.9925 16.959 23.2227L16.8691 23.2527Z" fill="black"/>
<path d="M23.0714 51.5079C23.8142 51.6387 24.565 51.7188 25.3187 51.7476C25.7833 51.7785 26.2498 51.7278 26.697 51.5979C27.3173 51.4269 27.8711 51.0717 28.285 50.5791C28.8754 49.8147 29.3036 48.9378 29.5435 48.0021C29.903 46.8036 29.903 45.4854 30.2625 44.3169C30.3594 43.8639 30.6141 43.4601 30.9816 43.1781C31.1469 43.0293 31.3419 42.9177 31.5537 42.8505C31.7658 42.7833 31.9896 42.7623 32.2101 42.7887C33.5976 43.3797 35.0439 43.8216 36.525 44.1069C37.359 44.0838 38.1696 43.824 38.862 43.3578C39.8808 42.5907 40.824 41.7279 41.6784 40.7811C42.261 40.2543 42.8019 39.6831 43.2966 39.0732C43.6512 38.6073 43.8876 38.0625 43.9857 37.4853C44.0667 36.9369 43.9941 36.3768 43.776 35.8671C43.4508 35.1114 43.0056 34.4133 42.4575 33.7998C41.7831 32.9958 41.1813 32.1336 40.6599 31.2228C40.4658 30.9594 40.335 30.6549 40.2777 30.3327C40.2207 30.0102 40.2384 29.6793 40.3302 29.3652C40.6173 28.7853 41.0259 28.2743 41.5287 27.867C42.0963 27.401 42.7206 27.0084 43.3863 26.6984C43.8657 26.4587 44.5251 26.3389 45.0645 26.0692C45.5226 25.871 45.9168 25.5494 46.203 25.1404C46.5795 24.6082 46.8165 23.9901 46.8921 23.3426C46.9827 22.6263 46.9827 21.9015 46.8921 21.1852L46.4727 18.6384C46.4727 18.0391 46.293 17.29 46.143 16.6308C46.0677 16.2348 45.9366 15.8514 45.7536 15.4922C45.4398 14.8934 44.9331 14.4182 44.3154 14.1439C43.4223 13.8121 42.4809 13.6298 41.5287 13.6046C40.8588 13.5404 40.2075 13.347 39.6111 13.0352C39.0711 12.8354 38.595 12.4938 38.2329 12.0465C38.0388 11.5989 37.9674 11.1079 38.0253 10.6236C38.0832 10.1394 38.2686 9.67911 38.5623 9.28986C39.1572 8.37756 39.5742 7.36089 39.7908 6.29355C39.8751 5.54043 39.7173 4.78005 39.3399 4.12275C38.9628 3.46545 38.3862 2.94539 37.6935 2.63804C36.5577 1.95278 35.3526 1.3903 34.098 0.960108C33.3828 0.683151 32.6046 0.610533 31.8507 0.750366C29.6633 1.40955 28.5846 3.74667 26.7869 4.82535C26.2406 5.16171 25.595 5.29929 24.9591 5.21487C24.454 5.16336 23.975 4.96551 23.5808 4.64556C23.1616 4.28103 22.8246 3.83166 22.592 3.32721C22.592 2.96764 22.3223 2.21856 22.0826 1.73915C21.9779 1.42638 21.7917 1.14715 21.5433 0.930144C20.9151 0.487062 20.1527 0.2753 19.386 0.330882C17.6302 0.579819 15.9226 1.09512 14.3222 1.859C13.6805 2.08111 13.1148 2.48041 12.6905 3.01068C12.2663 3.54093 12.001 4.1805 11.9251 4.85532C11.9003 6.13485 12.0311 7.41267 12.3147 8.66064C12.4461 9.08559 12.4738 9.5358 12.3956 9.97368C12.3174 10.4115 12.1356 10.8243 11.8652 11.1776C10.9963 12.1064 10.0075 11.8367 9.04869 11.5371C8.0871 11.1682 7.07847 10.9362 6.05235 10.8479C5.58216 10.8433 5.11743 10.9493 4.69581 11.1575C4.27416 11.3657 3.90747 11.6703 3.62535 12.0465C2.47743 13.3494 1.61951 14.8814 1.10845 16.5409C0.86802 17.2017 0.767829 17.9052 0.81426 18.6068C0.860688 19.3084 1.05272 19.9926 1.37811 20.6159C2.39686 22.1441 4.01487 22.9531 5.06358 24.3313C5.37513 24.7449 5.58087 25.2284 5.66283 25.7396C5.72064 26.063 5.70483 26.3952 5.61666 26.7116C5.52849 27.028 5.37015 27.3205 5.15346 27.5674C4.22337 28.5398 3.22182 29.4412 2.15715 30.264C1.12603 31.0743 0.389223 32.2008 0.0597352 33.4701C-0.0747845 34.2294 0.0190677 35.0115 0.329403 35.7174C0.923364 36.8316 1.6922 37.8432 2.6066 38.7138C3.54189 39.954 4.54203 41.1444 5.60292 42.2793C6.31644 42.9807 7.22493 43.4505 8.20971 43.6275C9.96726 43.4619 11.7038 43.1208 13.3933 42.609C13.7434 42.4923 14.1219 42.4923 14.472 42.609C14.6606 42.7137 14.8232 42.8598 14.9477 43.0362C15.0722 43.2126 15.1554 43.4148 15.1911 43.6275C15.2947 45.1416 15.6073 46.6338 16.12 48.0621C16.7561 49.0983 17.7137 49.8981 18.8466 50.3394C20.1987 50.9091 21.6188 51.3018 23.0714 51.5079ZM18.3972 42.1593C17.9639 41.1732 17.2013 40.368 16.2398 39.8823C15.3186 39.4044 14.2679 39.2361 13.2435 39.4029C11.7454 39.6126 10.2472 40.6014 8.74905 40.4814C8.35953 40.4814 7.97001 40.032 7.55052 39.6126C6.50181 38.5938 5.51304 37.2456 4.94373 36.6162C4.43844 36.1305 3.96786 35.6097 3.53547 35.0583C3.29574 34.6986 3.0261 34.3389 3.11598 33.9795C3.339 33.1275 3.85986 32.3832 4.58418 31.8822C5.67678 31.0932 6.68133 30.189 7.58049 29.1854C8.02737 28.6351 8.34324 27.9903 8.50416 27.2999C8.66508 26.6095 8.66685 25.8915 8.50935 25.2003C8.35062 24.2543 7.94784 23.3661 7.34079 22.6235C6.05235 21.395 4.46433 20.6759 3.47553 19.2077C3.0261 18.5784 3.29574 17.5297 3.65532 16.511C4.02006 15.4213 4.5783 14.4062 5.30328 13.5147C5.78268 13.0053 6.38196 13.1551 7.01118 13.3049C8.05956 13.671 9.1446 13.9222 10.2472 14.054C10.8427 14.0846 11.4371 13.976 11.9832 13.7367C12.5293 13.4975 13.0121 13.1342 13.3933 12.6757C13.8188 12.1832 14.1306 11.603 14.3067 10.9764C14.4827 10.3498 14.5187 9.69219 14.4121 9.05016C14.0918 7.75389 13.9011 6.429 13.8428 5.09502C13.8768 4.74921 14.0072 4.4199 14.2191 4.14447C14.4309 3.86904 14.7158 3.65856 15.0413 3.53694C16.3638 3.04641 17.7276 2.67538 19.1163 2.4283C19.4494 2.33494 19.8019 2.33494 20.135 2.4283C20.1803 2.95735 20.3442 3.46941 20.6144 3.92646C20.954 4.75968 21.4883 5.49945 22.1725 6.08379C22.8793 6.70059 23.7573 7.08732 24.6894 7.19244C25.8318 7.38609 27.0054 7.15137 27.9854 6.53325C29.6034 5.54448 30.5322 3.38712 32.5098 2.84779C32.8695 2.84779 33.5286 3.08748 34.2177 3.38712C34.9548 3.71172 35.6661 4.09239 36.345 4.52571C37.0044 4.97517 37.3038 5.30475 37.2441 5.75421C36.9189 6.80442 36.4662 7.81074 35.8956 8.75052C35.5101 9.45843 35.3082 10.2516 35.3082 11.0577C35.3082 11.8637 35.5101 12.6569 35.8956 13.3648C36.3531 14.143 36.99 14.8005 37.7535 15.2825C38.8056 15.9239 39.9786 16.342 41.199 16.511L43.1169 16.8406L43.5663 19.3275L43.8657 21.5747C43.8966 21.9937 43.8966 22.4143 43.8657 22.8332C43.8516 23.0439 43.7901 23.2487 43.686 23.4325L42.0081 24.0317C40.9089 24.5242 39.8967 25.1921 39.0117 26.0093C38.3637 26.6215 37.8264 27.3413 37.4238 28.1367C37.1499 28.76 37.0083 29.4334 37.0083 30.1143C37.0083 30.795 37.1499 31.4685 37.4238 32.0919C38.0439 33.4986 38.8611 34.8102 39.8508 35.9871L40.6299 37.1856L39.3714 38.5038C38.892 38.9535 38.2926 39.6426 37.6335 40.2117C36.9744 40.7811 36.9744 40.8411 36.5847 40.8411C35.8419 40.7565 35.1261 40.5111 34.4874 40.122C33.6597 39.7374 32.763 39.5235 31.8507 39.4926C30.7575 39.525 29.7051 39.9144 28.8543 40.6014C28.1153 41.148 27.5359 41.8827 27.1764 42.7287C26.7551 44.1849 26.4248 45.666 26.1876 47.1633C26.0334 47.5884 25.843 47.9994 25.6183 48.3918L23.5508 48.0021C22.6268 47.9097 21.7138 47.7291 20.8242 47.463C20.2316 47.3568 19.6984 47.037 19.326 46.5639C19.058 45.8862 18.9158 45.1653 18.9065 44.4366C18.8417 43.6578 18.6704 42.8916 18.3972 42.1593Z" fill="black"/>
<path d="M47.3115 37.0956C48.4191 37.8546 49.3164 38.8821 49.9188 40.0821C50.5215 41.2821 50.8098 42.6153 50.7573 43.9572C50.7585 44.9802 50.5758 45.9951 50.2179 46.9536C49.7955 48.3483 48.8796 49.5414 47.6412 50.3094C46.3062 51.1035 44.7522 51.45 43.2066 51.2982C42.474 51.3039 41.7534 51.1122 41.1207 50.7432C40.488 50.3742 39.9663 49.8411 39.6111 49.2006C39.5196 48.9426 39.3294 48.7311 39.0822 48.6132C38.8347 48.495 38.5509 48.48 38.2926 48.5715C38.0343 48.663 37.8228 48.8532 37.7049 49.1004C37.587 49.3476 37.572 49.6317 37.6635 49.89C37.9779 50.7699 38.4939 51.5643 39.1704 52.2096C39.8466 52.8546 40.6644 53.3328 41.5587 53.6052C44.1045 54.4584 46.8798 54.3084 49.3191 53.1858C50.9901 52.2642 52.3155 50.8233 53.0943 49.0809C53.8605 47.4138 54.1707 45.5736 53.9934 43.7475C53.8269 41.9622 53.1825 40.2549 52.128 38.805C51.0735 37.3551 49.6476 36.216 48.0006 35.5077C47.8953 35.4351 47.7756 35.3859 47.6496 35.3631C47.5233 35.3406 47.394 35.3454 47.2701 35.3766C47.1459 35.4081 47.0301 35.4657 46.9299 35.5458C46.83 35.6256 46.7481 35.7261 46.6902 35.8401C46.632 35.9541 46.599 36.0792 46.593 36.207C46.5873 36.3351 46.6089 36.4626 46.6563 36.5814C46.7037 36.7005 46.776 36.8076 46.8684 36.8964C46.9608 36.9852 47.0709 37.053 47.1915 37.0956H47.3115Z" fill="black"/>
<path d="M66.6678 48.4218C68.0286 47.7978 69.3318 47.0559 70.563 46.2045C71.0844 45.6468 71.4798 44.9835 71.7228 44.2599C71.9658 43.5363 72.0504 42.7689 71.9715 42.0096C71.5647 39.1197 70.5429 36.3507 68.9751 33.8895C68.5449 33.1002 67.8726 32.4702 67.0575 32.0919C65.943 31.6572 64.7439 31.4829 63.5517 31.5825C62.9796 31.6695 62.3952 31.623 61.8441 31.446C61.293 31.2693 60.7905 30.9672 60.3756 30.5637C60.2019 30.3657 60.0762 30.1299 60.0087 29.8753C59.9412 29.6206 59.9334 29.3536 59.9862 29.0955C60.276 27.8099 60.4962 26.5096 60.6453 25.2003C60.6573 24.2911 60.4515 23.3924 60.0447 22.5791C59.6382 21.7659 59.0427 21.0619 58.3083 20.526C56.2569 19.2129 53.907 18.4398 51.4767 18.2788C51.3585 18.262 51.2379 18.2688 51.1224 18.299C51.0069 18.3292 50.8986 18.3821 50.8038 18.4546C50.709 18.5272 50.6295 18.6179 50.5701 18.7214C50.5107 18.825 50.4726 18.9394 50.4579 19.0578C50.4411 19.176 50.448 19.2964 50.478 19.4119C50.5083 19.5274 50.5611 19.6357 50.6337 19.7306C50.7063 19.8254 50.7969 19.9048 50.9004 19.9642C51.0042 20.0236 51.1185 20.0618 51.237 20.0766C53.3133 20.2421 55.3137 20.9329 57.0498 22.0841C57.5055 22.4376 57.873 22.8924 58.1226 23.4125C58.3722 23.9326 58.4973 24.5036 58.488 25.0804C58.488 26.5186 57.6489 28.0767 57.6789 29.515C57.6801 30.4287 58.0098 31.3113 58.6077 32.0019C59.1051 32.646 59.7678 33.1431 60.5256 33.4401C61.6197 33.837 62.7774 34.0299 63.9414 34.0095C64.9899 34.0095 66.0387 34.0095 66.6678 35.118C67.7547 36.9675 68.5341 38.9814 68.9751 41.0808C69.1548 42.2193 69.2148 43.3281 68.5257 44.0769C67.8366 44.826 65.0799 45.5751 63.7914 46.6239C63.1425 47.1237 62.6871 47.8332 62.5029 48.6315C62.3715 49.2012 62.376 49.7937 62.5167 50.3613C62.6571 50.9289 62.9298 51.4551 63.312 51.8973C63.927 52.5747 64.6098 53.187 65.3496 53.7252C65.769 54.0249 66.2184 54.2646 66.3384 54.654L65.6493 56.2422C64.8267 57.6138 63.9366 58.9437 62.9823 60.2271C62.5104 60.9111 61.9455 61.5261 61.3044 62.055L60.2859 61.7253C58.7901 60.8271 57.2274 60.0459 55.6116 59.3883C55.0362 59.2068 54.4269 59.1582 53.8299 59.2464C53.2332 59.3346 52.6641 59.5572 52.1658 59.8977C51.3804 60.426 50.7579 61.1625 50.3679 62.025C49.9383 63.3087 49.647 64.6344 49.4991 65.9802C49.4991 66.6693 49.2894 67.3284 48.5703 67.5381C47.7927 67.743 47.0016 67.893 46.203 67.9875C44.9148 68.1375 43.5963 68.1675 42.2778 68.2872L40.6299 68.5269C40.2018 67.9302 39.8868 67.26 39.7011 66.5493C39.351 65.3649 38.8368 64.2351 38.1729 63.1935C37.8 62.6613 37.3242 62.2095 36.7734 61.8645C36.2229 61.5198 35.6085 61.2891 34.9668 61.1859C34.053 61.0098 33.1059 61.1694 32.3001 61.6353C31.3338 62.2824 30.5085 63.1182 29.8732 64.0923C29.3039 64.8114 28.7945 65.6505 27.6559 65.2011C27.0516 64.929 26.4704 64.6083 25.918 64.2423C24.4498 63.2535 23.1315 62.025 21.6932 61.0662C21.2737 60.7965 20.5846 60.4368 20.0153 60.0474C19.7938 59.9169 19.6003 59.7438 19.446 59.538C19.1763 58.9089 19.7456 58.0398 20.3149 57.201C20.8955 56.2938 21.649 55.5099 22.5322 54.8937C22.6492 54.8256 22.7514 54.735 22.833 54.6273C22.9146 54.5193 22.9738 54.396 23.0073 54.2649C23.0408 54.1338 23.0478 53.9976 23.028 53.8635C23.0081 53.7297 22.9618 53.6013 22.8918 53.4855C22.8267 53.3694 22.7389 53.2677 22.6336 53.1867C22.5283 53.1054 22.4077 53.0463 22.2791 53.0127C22.1504 52.9791 22.0163 52.9719 21.8847 52.9911C21.7532 53.0106 21.6269 53.0565 21.5134 53.1258C20.08 54.0498 18.8883 55.3032 18.0377 56.7813C17.6384 57.3144 17.366 57.9315 17.2414 58.5858C17.1168 59.2401 17.1432 59.9142 17.3186 60.5568C17.5461 61.0137 17.8738 61.413 18.2774 61.7253C18.9067 62.2647 19.8055 62.7441 20.285 63.1035C21.7232 64.0923 22.9816 65.3808 24.4199 66.3696C25.0963 66.8745 25.8306 67.2972 26.6072 67.6281C27.4245 68.0376 28.3662 68.1231 29.2439 67.8678C30.4557 67.4241 31.5018 66.6186 32.2404 65.5605C32.8395 64.7817 33.3789 63.8226 34.5174 64.0326C34.7979 64.0869 35.0643 64.1973 35.301 64.3566C35.538 64.5162 35.7402 64.722 35.8959 64.9614C36.4581 66.0033 36.891 67.1103 37.1841 68.2572C37.5054 69.3276 38.0811 70.3044 38.862 71.1039C39.2259 71.4168 39.6741 71.6148 40.1505 71.673C40.9536 71.6958 41.757 71.6358 42.5475 71.4933C43.926 71.4933 45.2442 71.4933 46.5927 71.2836C47.6025 71.2029 48.6045 71.0427 49.5888 70.8042C50.5986 70.5759 51.4863 69.9771 52.0758 69.1263C52.6914 68.0199 53.0595 66.7932 53.1546 65.5305C53.3043 64.482 53.3343 63.3432 54.2631 62.7141C54.5928 62.4744 54.9822 62.7141 55.4019 62.8638C56.7801 63.4332 58.1883 64.512 59.1771 64.9314C59.8971 65.2575 60.6669 65.46 61.4544 65.5305C61.995 65.5215 62.523 65.3661 62.9823 65.0811C64.0554 64.3086 64.9965 63.3678 65.769 62.2947C66.8478 60.7965 67.8066 59.0586 68.5257 57.8601C69.0474 57.0348 69.4128 56.1207 69.6042 55.1634C69.7203 54.5517 69.6687 53.9202 69.4545 53.3358C69.3189 52.9623 69.1158 52.6167 68.8551 52.317C68.2218 51.6159 67.5078 50.9925 66.7278 50.4591C66.4065 50.2605 66.114 50.0187 65.859 49.74C65.7816 49.6734 65.7198 49.5906 65.6784 49.4973C65.637 49.404 65.6166 49.3029 65.6193 49.2006C65.709 48.8112 66.2184 48.6615 66.6678 48.4218Z" fill="black"/>
</svg>
