<svg width="72" height="72" viewBox="0 0 72 72" fill="none" xmlns="http://www.w3.org/2000/svg">
<g clip-path="url(#clip0_3003_6)">
<path d="M30.4608 20.8198C27.2198 21.7507 24.3812 23.7346 22.3931 26.4582C21.2737 28.1881 20.5275 30.1326 20.2022 32.1672C19.8769 34.2018 19.9795 36.282 20.5036 38.2749C20.9994 40.3467 21.9974 42.2649 23.4096 43.8603C24.8218 45.4554 26.6048 46.6788 28.6013 47.4222C31.3176 48.3582 34.2234 48.6054 37.059 48.1419C39.8238 47.6559 42.4524 46.5822 44.7666 44.9928C45.6942 44.3694 46.5579 43.656 47.346 42.8634C47.925 42.2676 48.4287 41.6028 48.8454 40.884C49.326 39.9429 49.65 38.9301 49.8054 37.8849C50.0301 36.4239 50.0301 34.9371 49.8054 33.4761C49.359 30.7038 48.2703 28.0745 46.6263 25.7984C44.8077 23.3615 42.2619 21.5658 39.3558 20.6709C36.45 19.776 33.3351 19.8281 30.4608 20.8198ZM44.5866 26.998C45.9288 28.9964 46.7628 31.2921 47.016 33.6861C47.1537 34.6812 47.1537 35.6904 47.016 36.6852C46.9302 37.6017 46.6545 38.4903 46.2063 39.2946C45.8379 39.8802 45.3714 40.3977 44.8266 40.824C44.2389 41.3391 43.6068 41.8008 42.9372 42.2037C40.9965 43.4964 38.7951 44.3463 36.489 44.6931C34.2252 45.0648 31.9038 44.8584 29.741 44.0931C28.2737 43.5312 26.963 42.6249 25.9191 41.4504C24.8752 40.2762 24.1288 38.868 23.7427 37.3452C23.256 35.7795 23.0954 34.1307 23.2708 32.5008C23.4462 30.8709 23.9538 29.294 24.7624 27.8678C26.2852 25.5697 28.5344 23.8485 31.1505 22.9792C33.5019 21.9397 36.147 21.7734 38.61 22.5101C41.073 23.2468 43.1922 24.8382 44.5866 26.998Z" fill="black"/>
<path d="M71.9388 31.4067C71.9559 30.6201 71.8752 29.8343 71.6991 29.0674C71.5965 28.5929 71.3805 28.1504 71.0691 27.7778C70.5993 27.238 69.9855 26.8428 69.2997 26.6381C68.5557 26.4285 67.7916 26.2978 67.0203 26.2482C65.7423 26.3172 64.4643 26.1127 63.2715 25.6484C62.9739 25.4751 62.7195 25.2367 62.5272 24.951C62.3349 24.6653 62.2101 24.3398 62.1618 23.9989L61.5018 20.9997L61.0221 19.1403C61.2921 18.1805 62.5515 17.5507 63.1215 16.681C63.3726 16.3178 63.5403 15.9037 63.6129 15.4682C63.6855 15.0328 63.6612 14.5866 63.5412 14.1617C63.2466 13.3417 62.7639 12.6021 62.1318 12.0023C60.9321 10.7426 59.1327 9.81291 58.023 8.79321C57.363 8.22336 56.6133 7.32363 55.8036 6.66381C55.3809 6.30348 54.9054 6.01017 54.3939 5.79405C53.9478 5.60724 53.4651 5.52369 52.9821 5.54964C52.4991 5.57562 52.0284 5.71044 51.6048 5.94402C50.3451 6.63381 49.3854 8.31333 48.3957 8.94315C48.0771 9.06558 47.7246 9.06558 47.406 8.94315C46.8675 8.86494 46.3359 8.74461 45.8163 8.58327C44.9121 8.36922 44.0433 8.02578 43.2372 7.56354C42.8256 7.32714 42.5082 6.95655 42.3375 6.51384L41.4075 3.09483C41.3778 2.66694 41.2971 2.24411 41.1678 1.83518C41.0736 1.54956 40.896 1.29878 40.6578 1.11539C40.2828 0.871072 39.8661 0.698212 39.4281 0.605533C38.8545 0.437179 38.2545 0.376174 37.6587 0.425584C37.5249 0.437401 37.3944 0.475474 37.2753 0.537637C37.1562 0.599797 37.0503 0.684829 36.9639 0.787873C36.7896 0.995977 36.705 1.26482 36.729 1.53527C36.7527 1.80571 36.8832 2.0556 37.0911 2.22996C37.2993 2.40432 37.5681 2.48887 37.8387 2.465C38.1372 2.42501 38.4399 2.42501 38.7384 2.465H39.2481V3.2148L40.2378 7.02372C40.5639 7.88232 41.1513 8.61675 41.9175 9.12312C42.8967 9.71505 43.9578 10.1597 45.0666 10.4427C45.8538 10.7127 46.6686 10.8938 47.496 10.9826C48.222 11.0313 48.945 10.8531 49.5654 10.4727C50.4051 9.93288 51.2448 8.61327 52.2645 7.83348C52.4124 7.68957 52.5963 7.58844 52.797 7.54092C52.9977 7.49337 53.2077 7.5012 53.4042 7.56354C53.8029 7.76526 54.1671 8.02839 54.4839 8.34333C55.1436 8.97315 55.7736 9.72294 56.3733 10.2328C56.9733 10.7426 58.7127 11.8823 59.7924 12.872C60.3735 13.3225 60.8025 13.94 61.0221 14.6415C61.0221 15.0614 60.7521 15.3013 60.4521 15.6013C60.1524 15.9012 59.5824 16.411 59.1927 16.8609C58.863 17.2617 58.6089 17.719 58.4427 18.2105C58.3521 18.6457 58.3521 19.0949 58.4427 19.5301C58.5696 20.1905 58.74 20.8417 58.9527 21.4796L59.5824 24.4787C59.7153 25.1325 59.9775 25.7531 60.3534 26.3042C60.7293 26.8553 61.2117 27.3257 61.7718 27.6878C63.312 28.3697 64.9761 28.727 66.6603 28.7375C67.1466 28.7527 67.6296 28.8232 68.1 28.9475C68.3625 28.9696 68.6079 29.0869 68.7897 29.2774L68.9697 31.077C69.081 32.715 69.0708 34.359 68.9397 35.9955C68.9205 36.6693 68.6898 37.3197 68.28 37.8549L67.0803 38.0949C66.3489 38.3016 65.6442 38.5935 64.9809 38.9646C64.4754 39.2487 64.0194 39.6135 63.6312 40.0443C62.9409 40.8195 62.3466 41.6757 61.8618 42.5937C61.1424 43.8525 60.5016 45.1548 59.9424 46.4925C59.4435 47.658 59.1882 48.9135 59.1927 50.1813C59.2539 51.5175 59.6232 52.821 60.2721 53.9904C60.6021 54.6501 61.2021 55.4898 61.5318 56.3298C61.5318 56.5995 61.8018 56.8395 61.5318 57.0495L56.9433 60.4686L55.6536 61.3083L53.1342 59.5989C52.0215 59.0253 50.7873 58.7268 49.5354 58.7289C47.8326 58.8294 46.1685 59.2785 44.6466 60.0486C43.6935 60.4512 42.7962 60.9753 41.9775 61.6083C41.4381 62.0475 41.0328 62.6295 40.8078 63.2877L40.0281 67.6365L39.8481 67.9965C39.2598 68.0562 38.667 68.0562 38.0787 67.9965C36.789 67.8165 35.4993 67.5165 34.2996 67.3665L32.9499 67.0965C32.7333 67.0902 32.5236 67.017 32.3502 66.8868C31.3905 66.0468 31.3005 64.7274 30.6108 63.8874C30.0801 63.1653 29.3505 62.613 28.5113 62.298L23.9526 60.8283C23.2028 60.5586 22.393 60.1386 21.5833 59.8986C21.0983 59.7438 20.5928 59.6631 20.0837 59.6586C19.5237 59.6562 18.9703 59.7792 18.4641 60.0186C17.8627 60.2928 17.3064 60.6567 16.8146 61.0983C16.5478 61.3974 16.2338 61.6509 15.8849 61.848C15.5285 61.5321 15.1582 61.2318 14.7752 60.9483C13.6655 60.1086 12.4059 59.3289 11.3262 58.3992C10.7258 57.9141 10.2178 57.3249 9.82659 56.6595C9.70782 56.4222 9.64599 56.1603 9.64599 55.8948C9.64599 55.6293 9.70782 55.3674 9.82659 55.1301C10.4264 53.6604 11.5961 52.131 11.986 50.8713C12.138 50.1798 12.138 49.4634 11.986 48.7719C11.6942 47.6496 11.3028 46.5555 10.8163 45.5028L10.0365 43.9131C9.56292 43.1535 8.85885 42.5649 8.0271 42.2337C7.35369 42.048 6.65571 41.967 5.9577 41.9937C5.48052 42.0051 5.00754 41.9022 4.57809 41.6937C4.57809 41.484 4.36815 40.734 4.24818 40.4043C3.91827 38.9946 3.40842 37.7949 2.95855 36.5352C2.85231 35.7894 2.85231 35.0319 2.95855 34.2861C2.95232 34.0422 3.00021 33.8001 3.09873 33.5772C3.19728 33.3543 3.34401 33.1557 3.52839 32.9964C4.82754 32.3889 6.08052 31.6872 7.27731 30.897C7.56327 30.6369 7.80621 30.3333 7.9971 29.9972C8.32701 29.4873 8.56695 28.8875 8.83686 28.4076C9.1068 27.9277 9.91656 26.6081 10.3964 25.7084C10.7603 25.0311 11.0518 24.3174 11.2662 23.579C11.5762 22.5228 11.48 21.3887 10.9963 20.3999C10.342 19.3472 9.61014 18.3447 8.80689 17.4008C8.61216 17.153 8.45082 16.8808 8.32701 16.591C8.32701 16.3811 8.11707 16.1411 8.32701 15.9312C8.7888 15.2379 9.32151 14.5946 9.91656 14.0117C10.8603 13.0889 11.862 12.2274 12.9157 11.4325C13.3126 11.1049 13.7452 10.8232 14.2054 10.5927C14.5746 10.3958 14.9866 10.2928 15.405 10.2928L16.4547 11.1326C16.9756 11.6019 17.5378 12.0235 18.1342 12.3922C18.5776 12.6571 19.0507 12.8685 19.5438 13.022C20.2384 13.2296 20.9786 13.2296 21.6732 13.022C22.7958 12.5142 23.8785 11.9228 24.9123 11.2525L26.3219 10.4427L27.4316 9.66297C27.717 9.43674 27.9543 9.15567 28.1294 8.83632C28.3046 8.51697 28.414 8.16579 28.4513 7.80348C28.4913 7.19589 28.4201 6.58608 28.2414 6.00399C28.1056 5.54394 28.1056 5.05446 28.2414 4.59441L29.1711 4.14453C29.91 3.82815 30.6858 3.60645 31.4805 3.48471C32.7207 3.25815 33.972 3.09798 35.2293 3.00486C35.4681 3.00486 35.697 2.91006 35.8656 2.74132C36.0342 2.57259 36.129 2.34373 36.129 2.10511C36.129 1.86648 36.0342 1.63763 35.8656 1.46889C35.697 1.30016 35.4681 1.20536 35.2293 1.20536C33.8574 1.29343 32.4939 1.48391 31.1505 1.7752C30.1986 1.93332 29.2643 2.18445 28.3613 2.52499C27.8772 2.63961 27.4052 2.8003 26.9517 3.00486C26.6667 3.21966 26.4483 3.51081 26.3219 3.84462C25.872 5.10426 26.5918 6.24393 26.3219 7.32363C26.3077 7.43166 26.271 7.53552 26.2142 7.62852C26.1573 7.72149 26.0817 7.80153 25.992 7.86348L25.1522 8.4333L23.9526 9.24309C23.2628 9.57297 22.3331 10.2628 21.3733 10.6527C21.0081 10.8554 20.5888 10.9393 20.1736 10.8926C19.7733 10.7342 19.3912 10.533 19.034 10.2928C18.6441 10.0229 18.2542 9.69294 17.8943 9.39303C17.5072 8.97615 17.0746 8.60394 16.6047 8.28336C16.2851 8.09355 15.9257 7.9806 15.555 7.95345C14.9083 7.91937 14.2623 8.03214 13.6655 8.28336C12.8913 8.58924 12.1643 9.00324 11.5061 9.513C10.3585 10.3525 9.25716 11.2535 8.20704 12.2122C7.47801 12.8895 6.8244 13.6437 6.25761 14.4616C6.07248 14.7692 5.95062 15.1107 5.89911 15.4661C5.84763 15.8214 5.86752 16.1835 5.9577 16.531C6.09615 17.3367 6.42519 18.0977 6.91743 18.7504C7.6344 19.6033 8.27661 20.5164 8.83686 21.4796C9.00441 21.9345 9.00441 22.4343 8.83686 22.8892C8.64855 23.4555 8.39703 23.9987 8.0871 24.5087C7.60722 25.4085 7.0374 26.2482 6.52752 27.088L5.50782 28.8875C4.18821 30.0273 2.32873 30.267 1.24903 31.3467C0.508068 32.0679 0.0685596 33.0432 0.0193812 34.0761C-0.0436749 35.0835 0.0473466 36.0951 0.289304 37.0752C0.589218 38.4249 1.09907 39.7443 1.51895 41.064C1.61968 41.6232 1.75999 42.1743 1.93884 42.7137C2.11363 43.1853 2.42734 43.5933 2.83858 43.8831C3.56616 44.4681 4.43514 44.8509 5.35785 44.9928C5.86587 45.009 6.36975 45.0897 6.85743 45.2328C7.07472 45.3336 7.25358 45.5019 7.36728 45.7128L7.87716 46.7925C8.16144 47.4489 8.4117 48.1197 8.62692 48.8019C8.82045 49.2129 8.89326 49.6707 8.83686 50.1216C8.35701 51.681 6.85743 53.1207 6.40758 54.9501C6.09225 56.0973 6.23193 57.3222 6.79746 58.3692C7.37754 59.3976 8.13972 60.3123 9.0468 61.0683C10.1565 62.028 11.4761 62.8377 12.6158 63.7377C13.1483 64.2366 13.7313 64.6788 14.3553 65.0571C14.9234 65.3646 15.5756 65.4804 16.2148 65.3871C16.7214 65.2734 17.2072 65.0811 17.6544 64.8174C18.1508 64.4934 18.6221 64.1325 19.064 63.7377C19.3339 63.5277 19.6038 63.1977 19.9637 63.1977C20.2414 63.2148 20.5147 63.2754 20.7735 63.3777C21.4333 63.6177 22.0931 63.9474 22.7229 64.1874L27.2816 65.5071C27.4954 65.5971 27.6815 65.742 27.8215 65.9271C28.6313 67.0665 28.9012 68.5962 30.0408 69.5859C30.4566 69.9408 30.9345 70.2156 31.4505 70.3956C32.2761 70.6155 33.1188 70.7661 33.9696 70.8456C35.3793 71.0256 36.969 71.4153 38.4384 71.5353C39.2064 71.6097 39.9798 71.6097 40.7478 71.5353C41.2593 71.4648 41.739 71.2458 42.1275 70.9056C42.6423 70.4142 43.0506 69.822 43.3272 69.1659C43.56 68.6088 43.7211 68.0244 43.8069 67.4265C43.8867 66.4194 44.0271 65.4177 44.2269 64.4274C44.2269 64.1574 44.6766 64.0674 44.9766 63.8874C45.2766 63.7077 45.8763 63.4677 46.2063 63.3177C47.1483 62.8335 48.1602 62.4996 49.2054 62.328C50.0781 62.2083 50.9664 62.3547 51.7548 62.748C52.4445 63.1077 53.4042 64.0374 54.2739 64.4274C54.6981 64.6566 55.1715 64.7799 55.6536 64.7874C56.1579 64.8141 56.6613 64.7217 57.123 64.5174C57.7989 64.2069 58.4334 63.8142 59.0127 63.3477L63.8112 59.5389C64.2126 59.1993 64.5279 58.7694 64.731 58.2846C64.9344 57.7998 65.0199 57.2739 64.9809 56.7495C64.6422 55.2663 64.0431 53.8548 63.2115 52.5807C62.79 51.8706 62.5527 51.0666 62.5215 50.2413C62.5164 49.3851 62.6901 48.5373 63.0315 47.7522C63.4803 46.5132 64.0011 45.3015 64.5909 44.1231C64.9533 43.3614 65.4063 42.6465 65.9406 41.9937C66.1704 41.7447 66.4452 41.5413 66.7503 41.394C67.1259 41.2008 67.5171 41.0403 67.92 40.914C68.31 40.914 68.8197 40.764 69.2397 40.6143C69.6012 40.4856 69.9366 40.2924 70.2294 40.0443C71.0478 39.2346 71.5839 38.1831 71.7591 37.0452C72.0003 35.1759 72.0606 33.2877 71.9388 31.4067Z" fill="black"/>
</g>
<defs>
<clipPath id="clip0_3003_6">
<rect width="72" height="72" fill="white"/>
</clipPath>
</defs>
</svg>
