<svg width="72" height="72" viewBox="0 0 72 72" fill="none" xmlns="http://www.w3.org/2000/svg">
<g clip-path="url(#clip0_3007_1504)">
<path d="M64.6794 44.2533C63.8982 42.6063 62.4996 41.3331 60.7866 40.7097C59.0736 40.0863 57.1839 40.1625 55.5267 40.9224C54.996 41.1033 54.4833 41.3343 53.9964 41.6127C53.5167 41.8776 53.0643 42.189 52.6461 42.543C52.5552 42.606 52.4778 42.6861 52.4181 42.7791C52.3587 42.8721 52.3179 42.9759 52.2984 43.0845C52.2789 43.1931 52.281 43.3047 52.3044 43.4127C52.3281 43.5204 52.3728 43.6227 52.4358 43.7133C52.5732 43.8936 52.7754 44.0133 52.9995 44.0472C53.2236 44.0808 53.4522 44.0256 53.6364 43.8933C54.0201 43.6533 54.4212 43.4427 54.8367 43.263C55.2405 43.0785 55.6629 42.9375 56.097 42.843C57.2679 42.4434 58.5483 42.5139 59.6679 43.0404C60.7878 43.5666 61.6593 44.5071 62.0985 45.6639C62.8737 47.4477 63.1836 49.3992 62.9988 51.3354C62.9289 53.2395 62.2683 55.0749 61.1085 56.5869C60.1452 57.6195 58.953 58.4109 57.6273 58.8975C56.2194 59.4441 54.7467 59.8071 53.2461 59.9778C52.9914 59.9778 52.7472 60.0789 52.5672 60.2592C52.3869 60.4392 52.2858 60.6834 52.2858 60.9381C52.2858 61.1928 52.3869 61.437 52.5672 61.617C52.7472 61.7973 52.9914 61.8984 53.2461 61.8984C55.293 61.8504 57.3192 61.4757 59.2479 60.7881C60.6537 60.2955 61.9488 59.5305 63.0588 58.5375C64.8342 56.6577 65.8959 54.216 66.0597 51.6354C66.3399 49.0923 65.8596 46.5234 64.6794 44.2533Z" fill="#0A28BC"/>
<path d="M59.3679 5.21235C59.2662 4.39338 58.8591 3.64302 58.2276 3.11175C57.2031 2.49259 56.0742 2.06548 54.8967 1.8514C52.7535 1.03237 50.5308 0.438993 48.2646 0.0808994C46.518 -0.167307 44.7381 0.159198 43.1934 1.01116C42.6444 1.59402 42.2523 2.30635 42.0531 3.08175C40.9725 6.68277 38.8722 15.9254 38.7819 16.4355C38.7447 16.6573 38.7918 16.885 38.9139 17.0739C39.0363 17.2627 39.2247 17.399 39.4422 17.4558C39.5505 17.4777 39.6621 17.4779 39.7707 17.4566C39.8793 17.4352 39.9825 17.3926 40.0743 17.3313C40.1664 17.2699 40.2453 17.1911 40.3068 17.0991C40.3683 17.0072 40.4109 16.9041 40.4325 16.7956C40.4325 16.2855 43.1634 7.34295 44.4537 3.89196C44.5743 3.61233 44.7147 3.34158 44.8737 3.08175C45.9147 2.79565 47.0136 2.79565 48.0546 3.08175C50.1144 3.49209 52.1256 4.11564 54.0564 4.94226C54.6864 5.15232 55.4367 5.24235 56.067 5.48241C56.067 5.48241 56.337 5.48241 56.367 5.7525C56.4027 6.88986 56.2089 8.02275 55.7967 9.08343C55.5567 10.0137 55.2267 10.944 54.8967 11.8442C54.3564 11.4541 53.8164 11.064 53.2461 10.7039C52.6758 10.3438 52.6158 10.3138 52.2858 10.1637C51.9459 10.0075 51.5949 9.87711 51.2355 9.77364C50.3652 9.50355 49.5252 9.41352 48.6249 9.20346C48.5265 9.15153 48.4188 9.11961 48.3078 9.10962C48.1971 9.09963 48.0855 9.11172 47.9793 9.14523C47.8734 9.17871 47.775 9.23295 47.6901 9.30477C47.6049 9.37659 47.5353 9.46455 47.4846 9.56358C47.4273 9.6591 47.3901 9.76545 47.3757 9.87594C47.3613 9.9864 47.37 10.0987 47.4009 10.2057C47.4321 10.3127 47.4846 10.4122 47.556 10.4979C47.6271 10.5836 47.715 10.6538 47.8146 10.7039C48.4578 11.3767 49.1607 11.9894 49.9152 12.5344C50.2209 12.764 50.5533 12.9554 50.9055 13.1046C51.2604 13.2742 51.6327 13.405 52.0158 13.4947C52.7361 13.6748 53.4261 13.7948 54.1464 13.9148C53.9964 14.2749 53.8764 14.665 53.7564 15.0251C53.2161 16.8857 52.7061 18.8362 52.2258 20.8168H52.0158C51.2955 20.3666 50.6655 19.9165 49.8852 19.5264C49.5903 19.3465 49.2789 19.1957 48.9549 19.0763C48.6639 18.9655 48.3621 18.8851 48.0546 18.8362C47.2056 18.7759 46.353 18.7759 45.504 18.8362C45.3975 18.7988 45.285 18.7832 45.1725 18.7902C45.06 18.7973 44.9502 18.8269 44.8494 18.8773C44.7486 18.9277 44.6589 18.9978 44.5857 19.0835C44.5125 19.1693 44.4576 19.2689 44.4237 19.3763C44.3562 19.5913 44.3751 19.824 44.4759 20.0255C44.5764 20.2269 44.7513 20.3815 44.9637 20.4566C45.714 20.9368 46.284 21.4469 47.0643 21.8671C47.3703 22.0374 47.6919 22.1781 48.0246 22.2872L49.0449 22.5272C49.8852 22.5272 50.6955 22.5272 51.5355 22.7673C51.6642 22.7958 51.7974 22.7958 51.9258 22.7673L50.0352 30.9297C49.1949 30.4194 48.4146 29.8493 47.5746 29.3392L46.4343 28.679C45.9909 28.4255 45.5295 28.2049 45.0537 28.0188C44.0934 27.5987 43.1334 27.2986 42.0531 26.7884C41.8818 26.6412 41.6592 26.568 41.4342 26.5849C41.2089 26.6017 40.9998 26.7074 40.8525 26.8785C40.7055 27.0496 40.632 27.2722 40.6491 27.4973C40.6659 27.7224 40.7715 27.9316 40.9425 28.0788C41.6388 29.0304 42.4446 29.8966 43.3434 30.6594C44.1387 31.2417 45.0192 31.6974 45.954 32.01C47.0298 32.3202 48.1218 32.5704 49.2249 32.76C49.2249 33.0903 49.0749 33.4203 48.9849 33.7503C48.7449 34.6806 48.4749 35.5809 48.2046 36.4812C47.9946 38.1015 48.5049 38.4318 50.3052 36.4812C50.5452 35.7909 50.8155 35.0709 51.0255 34.3506C52.9161 28.3489 54.4464 21.8971 56.487 16.0754C57.5361 13.805 58.4382 11.4696 59.1879 9.08343C59.5038 7.81776 59.565 6.5019 59.3679 5.21235Z" fill="#0A28BC"/>
<path d="M49.9452 38.2518C48.6249 39.0021 50.0952 41.2527 49.0749 55.7766C48.8967 58.3068 48.5559 60.8226 48.0546 63.3087C47.9643 64.14 47.6874 64.9404 47.2443 65.6496C44.9316 67.3821 42.1494 68.3757 39.2622 68.5002C34.692 69.1107 30.054 68.9994 25.5183 68.1702C24.2463 67.9296 23.0003 67.5678 21.7972 67.0899C21.1989 66.8847 20.655 66.546 20.2068 66.0996C19.4845 65.1204 18.9363 64.0242 18.5863 62.8587C18.0261 60.8901 17.6049 58.8846 17.326 56.8569C16.6958 53.286 16.1557 49.7451 15.7955 46.1739C15.6155 44.2536 15.4954 42.303 15.4354 40.3524C15.4354 40.3524 23.4477 40.0224 27.0487 39.9321H33.0504C35.001 39.9321 36.9516 39.7521 39.0522 39.7521C41.1528 39.7521 42.9531 39.7521 45.0537 39.9321C45.1869 39.966 45.3255 39.9711 45.4608 39.9468C45.5958 39.9222 45.7242 39.8694 45.837 39.7911C45.9501 39.7131 46.0449 39.6117 46.1151 39.4935C46.1856 39.3756 46.2297 39.2442 46.245 39.1077C46.26 38.9712 46.2459 38.8332 46.203 38.7027C46.1604 38.5722 46.0902 38.4522 45.9972 38.3514C45.9042 38.2503 45.7905 38.1705 45.6642 38.1171C45.5376 38.0637 45.4011 38.0379 45.264 38.0418C42.2631 37.5315 39.4722 37.2015 36.6213 36.9915C36.7899 36.9165 36.9336 36.7944 37.0347 36.6402C37.1358 36.486 37.1901 36.3057 37.1916 36.1212C37.1916 34.6809 37.4016 33.1203 37.5516 31.77C37.7016 30.4197 37.8819 28.7691 38.0919 27.4487C38.3718 26.1923 38.5722 24.9194 38.6919 23.6377C38.448 19.9292 37.8552 16.2519 36.9216 12.6545C36.4671 11.2885 35.6598 10.0668 34.5807 9.11355C34.3875 8.9529 34.1595 8.83944 33.9147 8.78214C33.6699 8.72484 33.4149 8.72529 33.1704 8.78346C32.0601 8.99352 29.7195 14.275 29.1793 15.6854C28.6406 16.9811 28.1993 18.3152 27.859 19.6765C27.5219 19.7825 27.2343 20.0062 27.0487 20.3067C26.7787 22.3773 26.5386 24.4179 26.2985 26.4885C26.0584 28.559 25.8784 30.6297 25.7584 32.7003C25.7446 32.8104 25.7526 32.9226 25.7821 33.0297C25.8116 33.1371 25.8619 33.2373 25.9302 33.3252C25.9984 33.4128 26.0833 33.4863 26.18 33.5412C26.2767 33.5964 26.3832 33.6318 26.4936 33.6456C26.6039 33.6594 26.7159 33.6513 26.8231 33.6216C26.9303 33.5922 27.0307 33.5418 27.1185 33.4737C27.2062 33.4053 27.2797 33.3204 27.3347 33.2238C27.3896 33.1272 27.425 33.0207 27.4388 32.9103C27.7089 31.2897 28.039 29.6994 28.3991 28.0789C28.8492 25.9483 29.3594 23.8477 29.8695 21.7171H33.7107C34.0707 21.7171 35.151 21.7171 35.091 21.9272C35.031 22.1372 35.091 25.8583 35.091 26.9686C35.091 28.0789 35.091 29.3693 34.941 30.5697V35.9112C34.9416 36.0732 34.983 36.2325 35.0619 36.3741C35.1405 36.5157 35.2539 36.6351 35.391 36.7212H29.8995C28.3691 36.7212 27.3488 36.7212 26.0884 36.9615C25.6083 35.8812 25.1582 34.8009 24.6481 33.7506C24.3778 33.1749 24.0773 32.6139 23.7478 32.07C23.4463 31.5351 23.1052 31.0236 22.7275 30.5397C21.9473 29.4893 21.107 28.529 20.2968 27.5387C21.1203 26.9783 21.8756 26.3237 22.5475 25.5882C22.7464 25.429 22.874 25.1973 22.9021 24.9441C22.9303 24.6908 22.8567 24.4368 22.6975 24.2378C22.5383 24.0389 22.3066 23.9113 22.0534 23.8831C21.8001 23.855 21.5461 23.9286 21.3471 24.0878C19.3396 26.1223 16.6129 27.2863 13.755 27.3287C11.5043 27.0886 9.70383 25.6782 9.19368 22.2272C9.01869 21.2346 9.01869 20.219 9.19368 19.2264C9.52659 17.6345 9.97797 16.0697 10.5441 14.5451C10.8442 13.6448 11.1442 12.7746 11.4143 11.8443C11.6844 10.9141 11.6544 10.824 11.7444 10.2839C12.8547 11.1241 13.965 11.9344 15.0153 12.8046C15.8105 13.4341 16.5718 14.1052 17.296 14.8152C18.3388 15.7795 19.2472 16.8797 19.9967 18.0861C20.6844 19.2821 21.0466 20.6375 21.047 22.0172C21.0469 22.2747 21.1471 22.5221 21.3264 22.707C21.5056 22.8919 21.7499 22.9997 22.0073 23.0075C22.1334 23.0075 22.2583 22.9826 22.3748 22.9344C22.4913 22.8861 22.5971 22.8154 22.6863 22.7262C22.7755 22.637 22.8462 22.5312 22.8945 22.4147C22.9427 22.2982 22.9676 22.1733 22.9676 22.0472C23.0308 20.6976 22.8163 19.3494 22.3374 18.0861C21.5492 16.2458 20.4418 14.5594 19.0665 13.1047C18.3463 12.2945 17.566 11.5442 16.7858 10.794C16.0056 10.0438 14.3851 8.69343 13.1548 7.79319C12.6029 7.17423 12.0007 6.60213 11.3543 6.08271C11.1443 5.94429 10.9076 5.85144 10.6595 5.81007C10.4114 5.76873 10.1574 5.77983 9.91389 5.84262C9.60432 5.98533 9.33831 6.20787 9.14319 6.48738C8.94807 6.76689 8.83086 7.09329 8.80356 7.43307V9.38364C8.71545 9.91062 8.59518 10.4318 8.44347 10.9441C8.17341 11.8143 7.87332 12.6545 7.57323 13.5248C6.90906 15.2472 6.39696 17.0245 6.04281 18.8363C5.80239 20.1558 5.80239 21.5079 6.04281 22.8274C6.23679 24.3278 6.85317 25.7422 7.82013 26.9057C8.78709 28.0692 10.0648 28.934 11.5043 29.3993C11.7608 29.4665 12.0214 29.5166 12.2845 29.5493C12.2992 30.5526 12.3694 31.5546 12.4946 32.5503C12.5613 33.0984 12.6716 33.6402 12.8247 34.1706C12.9571 34.7088 13.1174 35.2395 13.3048 35.7612C13.5749 36.5412 13.845 37.3215 14.1451 38.1018C14.0204 38.1771 13.9165 38.2824 13.8432 38.4081C13.7698 38.5341 13.7291 38.6763 13.725 38.8218V46.1439C13.905 49.7751 14.2951 53.406 14.7452 57.0372C14.9558 59.1783 15.3067 61.3035 15.7955 63.399C16.1731 64.9197 16.8349 66.3552 17.7461 67.6302C18.4717 68.5695 19.4207 69.312 20.5069 69.7908C21.8855 70.3986 23.3236 70.8612 24.7981 71.1711C29.7441 72.1248 34.8135 72.2568 39.8022 71.5611C43.3605 71.2698 46.7385 69.8745 49.4649 67.5702C50.8545 64.7763 51.5442 61.6869 51.4755 58.5675C51.7791 52.0773 51.7191 45.5754 51.2955 39.0921C51.2355 37.9818 49.9452 38.2518 49.9452 38.2518ZM34.941 18.5662C33.3561 18.376 31.7544 18.376 30.1695 18.5662H29.6895C29.9295 18.0861 30.1995 17.606 30.4698 17.1558C31.3398 15.6554 32.3301 14.155 33.2904 12.8346C33.5865 13.3671 33.8469 13.9184 34.0707 14.4851C34.5807 15.8354 34.971 17.2459 35.331 18.5662C35.241 18.5604 35.151 18.5604 35.061 18.5662H34.941ZM14.5052 29.6093C15.9752 29.452 17.4014 29.0139 18.7064 28.319C19.1038 29.5424 19.5646 30.7443 20.0868 31.92C20.3572 32.4858 20.6577 33.0366 20.987 33.5706C21.3171 34.1106 21.6772 34.6209 22.0373 35.1309L23.5677 37.0815C21.2271 37.3815 18.8564 37.7715 16.4557 38.1918C16.4557 37.2015 16.4557 36.2112 16.2457 35.1909C16.185 34.6263 16.0948 34.0656 15.9756 33.5103C15.9756 32.9703 15.6755 32.43 15.4954 31.92C15.3154 31.4097 14.8353 30.3594 14.5052 29.6093Z" fill="#0A28BC"/>
</g>
<defs>
<clipPath id="clip0_3007_1504">
<rect width="72" height="72" fill="white"/>
</clipPath>
</defs>
</svg>
