<svg width="72" height="72" viewBox="0 0 72 72" fill="none" xmlns="http://www.w3.org/2000/svg">
<path fill-rule="evenodd" clip-rule="evenodd" d="M21.5234 15.2485C20.8628 24.2564 20.7126 25.7577 20.7427 26.2681C20.7427 27.4091 22.0038 28.1298 23.0847 28.4901C27.5286 30.1116 44.7636 31.4928 47.5263 29.6911C48.831 28.4473 49.6056 26.7479 49.6881 24.947C49.9884 22.6349 49.9584 13.2968 49.0875 12.2458C47.7363 10.4743 44.9739 10.5043 32.9634 10.114H23.5651C21.4333 10.0839 21.5534 14.9482 21.5234 15.2485ZM23.6852 12.2458C29.7994 12.2922 35.9016 12.794 41.9412 13.7472C42.7821 13.7472 45.3942 13.7472 46.2351 14.0174C45.9348 14.3477 46.2351 15.5788 46.3851 15.9691C46.8054 18.9717 46.3851 26.3882 45.6045 26.8687H44.9439C39.6594 26.3282 35.0652 28.4 24.3458 26.1781C22.334 25.6376 23.6852 14.5879 23.6852 12.1558V12.2458Z" fill="#0A28BC"/>
<path fill-rule="evenodd" clip-rule="evenodd" d="M67.3737 12.2459C66.4128 11.9156 60.5877 11.5853 60.6177 12.6963C59.8971 15.1885 66.4128 13.0867 67.0734 14.7982C67.8429 17.3158 68.1879 19.944 68.0943 22.575C65.6358 21.52 62.925 21.1968 60.2874 21.6442C60.2874 9.39342 60.6477 9.63363 60.2874 7.71195C60.1116 6.35889 59.4105 5.12934 58.3356 4.28895C47.9766 -2.55706 33.4137 1.94689 22.2139 0.385518C19.1627 -0.128506 16.0471 -0.128506 12.9958 0.385518C9.09243 1.40642 9.15246 4.88946 10.8039 4.88946C10.9556 4.90815 11.1096 4.89252 11.2545 4.84377C11.3993 4.79499 11.5314 4.71432 11.6409 4.60767C11.7504 4.50105 11.8346 4.37118 11.8872 4.22766C11.9398 4.08414 11.9596 3.93066 11.9449 3.7785C11.9449 1.19623 19.5416 2.27718 21.8836 2.6375C32.7831 4.28895 47.526 0.295439 56.7141 6.63099C58.0953 7.59183 57.4047 9.42345 56.7141 43.6836C56.9262 49.6644 56.4426 55.6497 55.2729 61.5192C54.8526 63.1407 54.5223 65.6028 53.2011 66.5034C48.6372 69.5061 39.1188 68.5152 33.654 67.4043C28.1892 66.2934 23.5351 67.9149 18.6408 67.134C16.1786 66.7437 10.2935 66.8037 9.63291 64.8522C9.39684 64.0905 9.24579 63.3048 9.18249 62.5101C11.1903 62.6148 13.2036 62.5041 15.1878 62.1798C15.3803 61.9833 15.4882 61.7193 15.4882 61.4442C15.4882 61.1691 15.3803 60.9048 15.1878 60.7083C13.3189 59.7651 11.2733 59.223 9.18249 59.1171C9.18249 56.925 9.4227 55.5138 9.72297 52.1208C11.5612 52.2393 13.407 52.1283 15.2178 51.7905C15.4103 51.5943 15.5182 51.33 15.5182 51.0549C15.5182 50.7798 15.4103 50.5158 15.2178 50.3193C13.5705 49.458 11.7589 48.9564 9.90312 48.8481V41.3715C11.3328 41.4627 12.7682 41.3514 14.1669 41.0412C14.3594 40.8447 14.4673 40.5807 14.4673 40.3056C14.4673 40.0305 14.3594 39.7662 14.1669 39.57C12.8495 38.8206 11.3838 38.3697 9.87312 38.2488V29.0006C11.3028 29.0917 12.7382 28.9805 14.1368 28.6703C14.3294 28.4739 14.4373 28.2098 14.4373 27.9347C14.4373 27.6596 14.3294 27.3955 14.1368 27.199C12.8521 26.4497 11.4156 25.9982 9.93315 25.8779V17.2603C11.3629 17.3514 12.7983 17.2402 14.1969 16.93C14.3895 16.7336 14.4973 16.4695 14.4973 16.1944C14.4973 15.9193 14.3895 15.6552 14.1969 15.4587C12.8795 14.7096 11.4138 14.2586 9.90312 14.1376C10.4436 6.39078 10.3535 7.44171 10.2935 7.17147C10.2883 7.04184 10.2521 6.9153 10.1879 6.80256C10.1237 6.68979 10.0334 6.59409 9.92457 6.5235C9.81573 6.45288 9.69153 6.40944 9.56238 6.39678C9.43326 6.38415 9.30297 6.40269 9.18249 6.45084C8.19162 6.69105 8.43183 7.5318 7.95141 13.8673C5.33913 13.537 0.264676 12.9966 0.685046 15.4888C0.685046 15.789 1.04536 16.0893 1.64589 16.2995C2.24641 16.5097 6.84045 17.0802 7.95141 17.2303V25.5776C5.36916 25.2774 0.354755 24.7369 0.775124 27.2291C0.775124 28.1599 2.57671 28.25 7.80129 28.9106C7.80129 31.9131 7.62114 34.9158 7.59111 37.9185C5.12895 37.6482 0.354755 37.1679 0.775124 39.6C0.775124 39.9003 1.13544 40.2003 1.73597 40.4106C2.3365 40.6209 5.90964 41.0412 7.56108 41.2515C7.56108 43.9839 7.56108 45.8454 7.32087 48.5478C5.12895 48.3975 1.3156 48.1575 1.70594 50.3493C1.70594 50.6496 2.06626 50.9499 2.66678 51.1602C2.81691 51.1602 5.18901 51.5805 7.0206 51.8205C6.6603 55.1535 6.45009 56.625 6.33 58.8768C4.31823 58.8768 1.37565 58.8768 1.70594 60.7386C1.70594 61.0386 2.06626 61.3389 2.66678 61.5792L6.29997 62.1198C6.33426 63.36 6.52599 64.5909 6.87048 65.7828C8.19162 69.8964 14.7674 69.6564 18.1904 70.2867C22.8745 71.1276 28.6996 69.8364 33.2037 70.7373C39.7794 72.1185 49.8381 73.1694 55.3929 69.3861C57.4317 67.5798 58.6821 65.0469 58.8762 62.3298C59.961 57.4017 60.4548 52.3617 60.3474 47.3166C61.7706 47.781 63.2658 47.9844 64.7613 47.9172C65.5686 47.8131 66.3861 47.8131 67.1934 47.9172C66.7131 52.4511 66.9831 50.4996 66.7131 53.7723C66.1125 55.3038 65.6622 56.1144 64.0107 56.1744C63.7404 56.1744 60.7677 55.5438 60.1371 56.5947C60.0105 56.7894 59.9562 57.0222 59.9838 57.2526C60.0111 57.483 60.1185 57.6966 60.2874 57.8559C61.4847 58.2657 62.7456 58.4589 64.0107 58.4265C71.4873 58.6365 70.0158 46.596 71.0967 35.2461C71.307 30.1116 72.3879 13.8674 67.3737 12.2459ZM68.0643 25.3074C68.0643 28.8805 67.6137 32.4237 67.4037 35.0658C67.4037 36.5673 68.3343 34.6155 60.2274 35.3061V24.2565C62.7798 24.9614 65.4162 25.315 68.0643 25.3074ZM60.1371 44.6442V38.2488C61.5336 38.5761 62.9766 38.6574 64.401 38.4888C65.3565 38.5197 66.3126 38.4492 67.2534 38.2788V45.3951C64.9764 44.5749 62.535 44.3172 60.1371 44.6442Z" fill="#0A28BC"/>
</svg>
