<svg xmlns="http://www.w3.org/2000/svg" xmlns:xlink="http://www.w3.org/1999/xlink" width="72" zoomAndPan="magnify" viewBox="0 0 54 54" height="72" preserveAspectRatio="xMidYMid meet" version="1.0"><path fill="#161524" d="M 40.667969 2.632812 L 40.8125 2.652344 C 41.222656 2.726562 41.578125 2.921875 41.945312 3.121094 L 41.945312 3.242188 L 42.050781 3.257812 C 42.1875 3.300781 42.1875 3.300781 42.324219 3.421875 L 42.429688 3.546875 L 42.429688 3.667969 L 42.613281 3.726562 C 42.9375 4.132812 43.105469 4.625 43.21875 5.125 C 43.25 5.414062 43.253906 5.695312 43.25 5.988281 C 43.25 6.058594 43.253906 6.132812 43.253906 6.207031 C 43.25 6.609375 43.210938 6.925781 43.042969 7.289062 C 42.976562 7.433594 42.933594 7.578125 42.890625 7.730469 C 42.785156 8.089844 42.644531 8.4375 42.503906 8.785156 L 42.414062 9 C 42.078125 9.808594 41.707031 10.601562 41.332031 11.390625 L 41.167969 11.726562 C 40.828125 12.445312 40.480469 13.15625 40.125 13.867188 C 40.003906 14.109375 39.886719 14.347656 39.765625 14.589844 C 39.371094 15.382812 38.976562 16.171875 38.546875 16.949219 C 38.285156 17.414062 38.046875 17.890625 37.8125 18.367188 L 37.691406 18.367188 L 37.671875 18.503906 C 37.628906 18.675781 37.574219 18.800781 37.488281 18.957031 L 37.398438 19.121094 L 37.203125 19.472656 C 36.96875 19.894531 36.726562 20.3125 36.480469 20.726562 C 36.378906 20.890625 36.296875 21.039062 36.234375 21.222656 L 36.113281 21.222656 L 36.066406 21.410156 C 35.996094 21.660156 35.875 21.871094 35.738281 22.09375 C 35.683594 22.183594 35.628906 22.273438 35.574219 22.363281 L 35.484375 22.515625 C 35.25 22.90625 35.027344 23.300781 34.804688 23.691406 C 34.59375 24.058594 34.378906 24.414062 34.152344 24.769531 C 33.980469 25.03125 33.820312 25.296875 33.65625 25.558594 L 33.550781 25.726562 C 33.402344 25.96875 33.257812 26.207031 33.109375 26.449219 C 32.773438 26.996094 32.773438 26.996094 32.609375 27.222656 C 32.464844 27.421875 32.351562 27.625 32.238281 27.839844 C 32.144531 27.996094 32.035156 28.132812 31.921875 28.269531 L 31.859375 28.453125 L 31.738281 28.453125 L 31.710938 28.566406 C 31.679688 28.695312 31.679688 28.695312 31.617188 28.816406 L 31.496094 28.816406 L 31.476562 28.917969 C 31.421875 29.101562 31.328125 29.246094 31.226562 29.410156 L 31.113281 29.589844 L 31.007812 29.730469 L 30.886719 29.730469 L 30.875 29.828125 C 30.808594 30.027344 30.691406 30.183594 30.570312 30.351562 C 30.40625 30.582031 30.246094 30.8125 30.101562 31.054688 L 29.976562 31.246094 L 29.855469 31.246094 L 29.835938 31.355469 C 29.789062 31.507812 29.726562 31.597656 29.632812 31.71875 L 29.53125 31.847656 L 29.429688 31.980469 C 29.363281 32.066406 29.296875 32.152344 29.230469 32.242188 L 29.136719 32.355469 C 29.054688 32.46875 29.054688 32.46875 29.003906 32.644531 L 28.882812 32.644531 L 28.867188 32.746094 C 28.804688 32.9375 28.699219 33.066406 28.574219 33.226562 L 28.425781 33.421875 L 28.347656 33.519531 C 28.238281 33.664062 28.132812 33.808594 28.027344 33.953125 L 27.910156 34.117188 C 27.824219 34.238281 27.738281 34.355469 27.65625 34.476562 L 27.523438 34.660156 L 27.40625 34.832031 L 27.304688 34.953125 L 27.183594 34.953125 L 27.136719 35.089844 C 27.054688 35.273438 26.957031 35.359375 26.816406 35.5 C 26.773438 35.574219 26.734375 35.648438 26.691406 35.722656 L 26.574219 35.925781 L 26.390625 35.984375 C 26.355469 36.101562 26.355469 36.101562 26.332031 36.230469 L 26.210938 36.410156 C 26.1875 36.507812 26.171875 36.605469 26.15625 36.703125 C 26.105469 36.980469 26.027344 37.160156 25.847656 37.382812 C 25.53125 37.730469 25.53125 37.730469 25.300781 37.808594 C 25.183594 37.808594 25.183594 37.808594 25.066406 37.8125 C 24.9375 37.820312 24.9375 37.820312 24.8125 37.871094 C 24.683594 38.003906 24.578125 38.144531 24.476562 38.296875 L 24.386719 38.417969 L 24.265625 38.417969 L 24.222656 38.515625 C 24.125 38.699219 24 38.851562 23.871094 39.015625 C 23.640625 39.308594 23.417969 39.605469 23.203125 39.910156 L 23.125 40.015625 C 23.003906 40.183594 22.894531 40.351562 22.808594 40.542969 L 22.6875 40.542969 L 22.664062 40.648438 C 22.625 40.789062 22.574219 40.890625 22.496094 41.011719 L 22.421875 41.144531 L 22.335938 41.277344 C 22.085938 41.695312 21.847656 42.117188 21.65625 42.5625 C 21.601562 42.6875 21.546875 42.800781 21.472656 42.910156 C 21.300781 43.03125 21.300781 43.03125 21.105469 43.09375 C 20.792969 43.121094 20.550781 43.066406 20.257812 42.972656 L 20.191406 43.183594 C 20.105469 43.449219 19.996094 43.699219 19.882812 43.953125 C 19.667969 44.421875 19.5 44.902344 19.335938 45.386719 C 19.242188 45.660156 19.148438 45.933594 19.039062 46.199219 C 18.960938 46.390625 18.890625 46.582031 18.828125 46.78125 L 18.785156 46.917969 C 18.757812 47.007812 18.730469 47.101562 18.707031 47.191406 C 18.617188 47.480469 18.503906 47.699219 18.300781 47.921875 C 18.105469 48.089844 17.882812 48.195312 17.652344 48.308594 C 17.546875 48.359375 17.445312 48.410156 17.34375 48.464844 L 17.1875 48.542969 C 16.066406 49.132812 15.039062 49.941406 14.109375 50.789062 C 13.546875 51.296875 13.546875 51.296875 13.332031 51.417969 C 13.101562 51.457031 13.101562 51.457031 12.90625 51.417969 C 12.757812 51.296875 12.757812 51.296875 12.664062 51.113281 C 12.628906 50.6875 12.726562 50.320312 12.832031 49.914062 C 13.003906 49.242188 13.125 48.578125 13.210938 47.894531 L 13.242188 47.667969 C 13.277344 47.390625 13.285156 47.117188 13.292969 46.835938 C 13.296875 46.726562 13.300781 46.617188 13.304688 46.507812 C 13.308594 46.339844 13.316406 46.167969 13.320312 46 C 13.351562 44.84375 13.351562 44.84375 13.613281 44.417969 C 13.726562 44.269531 13.84375 44.136719 13.984375 44.007812 C 14.25 43.753906 14.480469 43.488281 14.710938 43.203125 C 14.851562 43.03125 15 42.867188 15.148438 42.707031 C 15.453125 42.378906 15.722656 42.03125 15.988281 41.675781 C 16.066406 41.574219 16.148438 41.472656 16.230469 41.375 L 16.308594 41.273438 C 16.378906 41.183594 16.453125 41.097656 16.523438 41.007812 L 16.613281 40.847656 C 16.582031 40.683594 16.582031 40.683594 16.492188 40.542969 L 16.421875 40.421875 C 16.402344 40.386719 16.378906 40.347656 16.355469 40.3125 C 16.269531 40.132812 16.246094 40.035156 16.226562 39.828125 C 16.289062 39.515625 16.503906 39.292969 16.695312 39.046875 C 16.984375 38.679688 17.222656 38.269531 17.460938 37.871094 L 17.53125 37.753906 C 17.933594 37.078125 18.269531 36.375 18.601562 35.664062 C 18.667969 35.515625 18.738281 35.371094 18.808594 35.222656 L 18.925781 34.984375 L 19.019531 34.78125 C 19.109375 34.574219 19.179688 34.382812 19.222656 34.164062 C 19.175781 34.03125 19.175781 34.03125 19.101562 33.921875 C 19.058594 33.652344 19.070312 33.40625 19.15625 33.148438 C 19.273438 32.902344 19.390625 32.695312 19.597656 32.515625 L 19.769531 32.402344 L 19.953125 32.402344 L 20.003906 32.242188 C 20.074219 32.042969 20.152344 31.855469 20.242188 31.664062 L 20.339844 31.449219 L 20.445312 31.226562 L 20.5 31.109375 C 20.867188 30.328125 21.246094 29.554688 21.65625 28.792969 C 21.792969 28.539062 21.925781 28.277344 22.050781 28.015625 C 22.632812 26.839844 23.273438 25.695312 23.925781 24.558594 C 24.0625 24.3125 24.199219 24.066406 24.335938 23.820312 C 25.308594 22.074219 26.332031 20.359375 27.40625 18.675781 C 27.503906 18.519531 27.601562 18.363281 27.699219 18.207031 C 29.046875 16.03125 30.5 13.902344 32.003906 11.832031 C 32.21875 11.535156 32.433594 11.234375 32.644531 10.929688 C 33.28125 10.027344 33.945312 9.144531 34.617188 8.269531 C 34.789062 8.042969 34.960938 7.8125 35.132812 7.585938 C 35.621094 6.933594 36.125 6.292969 36.644531 5.667969 C 36.796875 5.484375 36.945312 5.300781 37.09375 5.113281 C 37.546875 4.542969 38.011719 3.992188 38.542969 3.488281 C 38.738281 3.300781 38.878906 3.101562 39.027344 2.878906 C 39.539062 2.542969 40.082031 2.554688 40.667969 2.632812 M 39.835938 3.292969 L 39.695312 3.425781 L 39.542969 3.511719 C 39.367188 3.625 39.238281 3.757812 39.089844 3.910156 L 38.945312 4.019531 C 38.769531 4.167969 38.625 4.328125 38.476562 4.503906 C 38.355469 4.644531 38.230469 4.78125 38.101562 4.921875 C 37.855469 5.195312 37.625 5.480469 37.398438 5.773438 C 37.21875 6.003906 37.035156 6.230469 36.847656 6.449219 C 36.5 6.867188 36.171875 7.300781 35.84375 7.734375 C 35.753906 7.851562 35.664062 7.96875 35.570312 8.085938 L 35.488281 8.195312 C 35.414062 8.289062 35.34375 8.382812 35.269531 8.476562 C 35.179688 8.59375 35.09375 8.71875 35.011719 8.839844 C 34.917969 8.980469 34.832031 9.078125 34.714844 9.195312 C 34.617188 9.328125 34.519531 9.464844 34.421875 9.601562 C 34.222656 9.886719 34.019531 10.167969 33.800781 10.445312 L 33.742188 10.53125 L 33.742188 10.652344 L 33.621094 10.652344 C 33.523438 10.789062 33.425781 10.925781 33.332031 11.066406 C 33.066406 11.464844 32.789062 11.859375 32.5 12.246094 L 32.394531 12.390625 C 32.253906 12.578125 32.113281 12.765625 31.964844 12.949219 C 31.863281 13.078125 31.789062 13.199219 31.714844 13.34375 C 31.585938 13.589844 31.433594 13.800781 31.261719 14.015625 L 31.191406 14.117188 L 31.191406 14.238281 L 31.070312 14.238281 L 31.007812 14.417969 L 30.886719 14.480469 C 30.835938 14.566406 30.785156 14.65625 30.738281 14.746094 C 30.605469 15.007812 30.605469 15.007812 30.496094 15.113281 C 30.394531 15.21875 30.335938 15.320312 30.265625 15.453125 C 30.082031 15.792969 29.867188 16.105469 29.648438 16.421875 L 29.535156 16.589844 C 29.222656 17.042969 29.222656 17.042969 29.0625 17.265625 L 28.945312 17.425781 L 28.839844 17.574219 L 28.761719 17.699219 L 28.761719 17.882812 L 28.640625 17.882812 C 28.5625 18.019531 28.484375 18.152344 28.40625 18.289062 L 28.335938 18.402344 C 28.21875 18.609375 28.113281 18.8125 28.03125 19.035156 L 27.910156 19.035156 L 27.839844 19.171875 C 27.679688 19.472656 27.519531 19.742188 27.304688 20.007812 L 27.304688 20.191406 L 27.183594 20.191406 L 27.121094 20.496094 L 27 20.496094 L 26.941406 20.597656 L 26.863281 20.742188 L 26.785156 20.878906 C 26.605469 21.207031 26.417969 21.527344 26.230469 21.851562 C 26.167969 21.957031 26.105469 22.0625 26.046875 22.167969 C 26.003906 22.238281 25.960938 22.3125 25.917969 22.386719 C 25.855469 22.492188 25.792969 22.597656 25.734375 22.703125 L 25.621094 22.894531 C 25.53125 23.035156 25.53125 23.035156 25.542969 23.167969 L 25.421875 23.167969 L 25.355469 23.304688 C 25.152344 23.714844 24.933594 24.117188 24.691406 24.503906 C 24.507812 24.804688 24.328125 25.105469 24.160156 25.414062 L 24.066406 25.589844 C 23.882812 25.921875 23.707031 26.257812 23.527344 26.589844 L 23.414062 26.796875 L 23.304688 27.003906 L 23.203125 27.183594 C 23.011719 27.5 23.011719 27.5 22.929688 27.84375 L 22.808594 27.84375 L 22.753906 27.957031 C 21.886719 29.785156 21.886719 29.785156 21.441406 30.613281 C 21.230469 31.007812 21.035156 31.402344 20.867188 31.816406 C 20.777344 32.039062 20.671875 32.25 20.558594 32.460938 L 20.683594 32.585938 C 20.871094 32.59375 20.871094 32.59375 21.046875 32.585938 L 21.089844 32.488281 C 21.371094 31.839844 21.671875 31.203125 22.007812 30.582031 C 22.128906 30.355469 22.242188 30.128906 22.355469 29.898438 C 22.902344 28.796875 23.492188 27.71875 24.101562 26.652344 C 24.335938 26.242188 24.558594 25.828125 24.78125 25.410156 C 25.128906 24.765625 25.5 24.132812 25.878906 23.5 C 25.984375 23.320312 26.089844 23.140625 26.195312 22.960938 C 26.597656 22.273438 27.011719 21.597656 27.425781 20.921875 L 27.550781 20.71875 C 28.402344 19.324219 28.402344 19.324219 28.796875 18.714844 C 28.910156 18.542969 29.023438 18.367188 29.132812 18.195312 C 29.675781 17.332031 30.238281 16.484375 30.808594 15.640625 C 30.84375 15.585938 30.882812 15.53125 30.921875 15.476562 C 31.3125 14.894531 31.707031 14.3125 32.101562 13.734375 L 32.199219 13.597656 C 32.5 13.15625 32.804688 12.722656 33.113281 12.289062 C 33.191406 12.179688 33.269531 12.070312 33.347656 11.960938 C 33.738281 11.40625 34.140625 10.863281 34.542969 10.320312 C 34.65625 10.167969 34.765625 10.015625 34.878906 9.863281 C 36.347656 7.867188 36.347656 7.867188 37.054688 7.007812 C 37.167969 6.871094 37.285156 6.730469 37.398438 6.589844 C 37.730469 6.175781 38.0625 5.769531 38.421875 5.378906 C 38.535156 5.253906 38.644531 5.128906 38.75 5 C 39.003906 4.710938 39.28125 4.460938 39.574219 4.214844 C 39.660156 4.140625 39.660156 4.140625 39.742188 4.070312 C 39.90625 3.9375 40.058594 3.824219 40.242188 3.726562 C 40.441406 3.703125 40.605469 3.710938 40.789062 3.789062 L 40.851562 3.910156 C 40.960938 3.953125 41.074219 3.996094 41.183594 4.03125 C 41.296875 4.070312 41.410156 4.109375 41.519531 4.152344 L 41.578125 4.273438 C 41.65625 4.3125 41.734375 4.347656 41.8125 4.382812 C 42.015625 4.476562 42.070312 4.519531 42.207031 4.714844 L 42.308594 4.882812 L 42.492188 4.882812 C 42.445312 4.550781 42.292969 4.34375 42.09375 4.078125 C 41.800781 3.746094 41.484375 3.511719 41.074219 3.339844 C 40.445312 3.121094 40.445312 3.121094 39.835938 3.292969 M 40.242188 4.394531 C 40.132812 4.480469 40.019531 4.566406 39.914062 4.65625 L 39.734375 4.804688 C 39.554688 4.957031 39.554688 4.957031 39.394531 5.125 L 39.394531 5.246094 L 39.28125 5.296875 C 39.152344 5.367188 39.070312 5.433594 38.96875 5.542969 L 38.871094 5.652344 L 38.769531 5.761719 L 38.664062 5.878906 C 38.246094 6.335938 38.246094 6.335938 37.875 6.824219 L 37.875 6.949219 L 37.761719 6.996094 C 37.628906 7.058594 37.628906 7.058594 37.558594 7.167969 L 37.496094 7.285156 C 37.378906 7.484375 37.253906 7.644531 37.097656 7.8125 C 36.863281 8.066406 36.679688 8.335938 36.492188 8.625 C 36.226562 9.03125 35.921875 9.414062 35.625 9.804688 L 35.464844 10.015625 C 35.222656 10.335938 34.972656 10.652344 34.710938 10.960938 C 34.414062 11.3125 34.136719 11.679688 33.863281 12.050781 L 33.734375 12.226562 C 33.511719 12.53125 33.292969 12.839844 33.089844 13.15625 C 33.015625 13.265625 33.015625 13.265625 32.894531 13.386719 L 32.894531 13.570312 L 32.769531 13.570312 L 32.664062 13.765625 C 32.585938 13.902344 32.523438 14 32.410156 14.109375 C 32.292969 14.230469 32.238281 14.320312 32.160156 14.464844 C 31.964844 14.828125 31.726562 15.164062 31.488281 15.5 C 31.320312 15.742188 31.15625 15.988281 30.996094 16.234375 C 30.828125 16.488281 30.65625 16.738281 30.480469 16.988281 C 30.296875 17.25 30.121094 17.519531 29.949219 17.792969 C 29.871094 17.917969 29.789062 18.039062 29.707031 18.160156 L 29.613281 18.308594 L 29.613281 18.429688 L 29.492188 18.429688 L 29.390625 18.636719 C 29.242188 18.9375 29.066406 19.21875 28.886719 19.503906 L 28.675781 19.839844 C 28.640625 19.898438 28.605469 19.957031 28.566406 20.015625 C 28.457031 20.191406 28.351562 20.363281 28.242188 20.539062 L 28.136719 20.710938 L 27.941406 21.03125 C 27.757812 21.324219 27.570312 21.613281 27.371094 21.898438 C 27.289062 22.015625 27.289062 22.015625 27.304688 22.195312 L 27.183594 22.195312 C 27.078125 22.335938 27.078125 22.335938 27 22.5 L 27 22.683594 L 26.878906 22.683594 L 26.878906 22.925781 L 26.757812 22.925781 L 26.636719 23.125 L 26.566406 23.238281 C 26.5 23.355469 26.5 23.355469 26.515625 23.53125 L 26.390625 23.53125 L 26.390625 23.714844 L 26.269531 23.714844 L 26.230469 23.828125 C 26.125 24.109375 26.015625 24.355469 25.84375 24.597656 C 25.660156 24.855469 25.5625 25.113281 25.480469 25.414062 L 25.359375 25.414062 L 25.292969 25.582031 C 25.144531 25.929688 24.949219 26.257812 24.761719 26.589844 L 24.652344 26.785156 C 24.453125 27.140625 24.253906 27.488281 24.042969 27.832031 C 23.753906 28.296875 23.753906 28.296875 23.597656 28.816406 C 24 28.429688 24.328125 28.019531 24.625 27.546875 L 24.71875 27.394531 C 24.9375 27.039062 25.132812 26.679688 25.3125 26.304688 C 25.527344 25.855469 25.792969 25.441406 26.0625 25.023438 C 26.703125 24.023438 27.285156 23 27.851562 21.953125 L 28.03125 22.011719 L 28.445312 21.378906 L 28.574219 21.183594 C 28.777344 20.875 28.980469 20.5625 29.179688 20.25 C 29.515625 19.726562 29.859375 19.210938 30.203125 18.695312 C 30.261719 18.605469 30.320312 18.515625 30.378906 18.425781 C 30.6875 17.960938 31 17.5 31.332031 17.050781 C 31.464844 16.871094 31.585938 16.6875 31.707031 16.5 C 32.007812 16.042969 32.320312 15.597656 32.636719 15.148438 C 32.921875 14.738281 33.203125 14.324219 33.484375 13.910156 C 34.0625 13.0625 34.65625 12.230469 35.253906 11.402344 C 35.429688 11.164062 35.601562 10.921875 35.769531 10.683594 L 35.847656 10.578125 C 35.988281 10.378906 36.128906 10.179688 36.269531 9.976562 C 36.511719 9.628906 36.769531 9.292969 37.023438 8.953125 L 37.273438 8.617188 L 37.90625 7.777344 L 38.144531 7.457031 C 38.316406 7.230469 38.484375 7.003906 38.65625 6.78125 L 38.800781 6.589844 L 38.921875 6.433594 C 39.09375 6.1875 39.21875 5.941406 39.28125 5.648438 L 39.332031 5.429688 L 39.636719 5.488281 C 39.777344 5.324219 39.898438 5.160156 40 4.96875 C 40.109375 4.785156 40.210938 4.664062 40.363281 4.519531 L 40.363281 4.394531 Z M 23.839844 28.9375 C 23.75 29.03125 23.660156 29.125 23.574219 29.222656 L 23.433594 29.382812 C 23.34375 29.488281 23.257812 29.59375 23.175781 29.699219 C 23.050781 29.851562 23.050781 29.851562 22.898438 29.996094 C 22.730469 30.171875 22.640625 30.335938 22.539062 30.554688 C 22.503906 30.632812 22.464844 30.710938 22.429688 30.785156 L 22.375 30.898438 C 22.300781 31.046875 22.222656 31.1875 22.144531 31.332031 C 21.988281 31.613281 21.835938 31.902344 21.6875 32.1875 L 21.621094 32.316406 C 21.566406 32.425781 21.519531 32.535156 21.472656 32.644531 L 21.53125 32.828125 C 21.714844 32.902344 21.714844 32.902344 21.898438 32.949219 C 22.1875 32.402344 22.476562 31.851562 22.753906 31.296875 L 22.8125 31.179688 C 22.914062 30.972656 23.015625 30.769531 23.117188 30.5625 C 23.320312 30.152344 23.527344 29.75 23.78125 29.363281 C 23.84375 29.265625 23.90625 29.164062 23.960938 29.0625 L 23.960938 28.9375 Z M 24.574219 29.671875 L 24.308594 29.84375 L 24.207031 29.910156 L 24.328125 30.03125 C 24.410156 29.984375 24.488281 29.9375 24.570312 29.886719 C 24.613281 29.863281 24.660156 29.835938 24.707031 29.808594 L 24.8125 29.730469 L 24.8125 29.605469 C 24.6875 29.597656 24.6875 29.597656 24.574219 29.671875 M 23.359375 32.085938 L 23.222656 32.152344 L 23.09375 32.21875 L 22.976562 32.277344 C 22.863281 32.34375 22.777344 32.425781 22.6875 32.523438 C 22.988281 32.484375 23.230469 32.351562 23.496094 32.214844 C 23.652344 32.136719 23.808594 32.058594 23.960938 31.976562 L 23.960938 31.855469 C 23.742188 31.855469 23.550781 31.988281 23.359375 32.085938 M 19.832031 33.046875 L 19.765625 33.175781 L 19.695312 33.304688 C 19.636719 33.449219 19.636719 33.449219 19.648438 33.675781 L 20.015625 33.738281 L 20.136719 33.433594 C 20.222656 33.453125 20.3125 33.472656 20.402344 33.492188 L 20.550781 33.523438 C 20.683594 33.554688 20.683594 33.554688 20.804688 33.617188 L 20.863281 33.800781 C 20.992188 33.886719 20.992188 33.886719 21.167969 33.921875 C 21.25 33.910156 21.332031 33.898438 21.414062 33.882812 L 21.652344 33.859375 C 21.773438 33.96875 21.773438 33.96875 21.898438 34.101562 C 22.03125 34.191406 22.03125 34.191406 22.179688 34.269531 L 22.339844 34.363281 L 22.511719 34.457031 C 22.863281 34.652344 23.207031 34.84375 23.53125 35.085938 C 23.699219 35.210938 23.824219 35.28125 24.03125 35.3125 L 24.207031 35.316406 L 24.328125 35.621094 L 24.570312 35.5625 C 24.605469 35.425781 24.605469 35.425781 24.570312 35.257812 C 24.441406 35.113281 24.285156 35.003906 24.128906 34.890625 L 23.992188 34.785156 C 23.503906 34.429688 22.988281 34.121094 22.46875 33.824219 C 22.367188 33.765625 22.269531 33.707031 22.171875 33.644531 C 21.828125 33.429688 21.488281 33.269531 21.101562 33.136719 L 20.949219 33.082031 C 20.375 32.878906 20.375 32.878906 19.832031 33.046875 M 22.566406 33.128906 L 22.566406 33.3125 C 22.792969 33.28125 22.972656 33.246094 23.171875 33.128906 L 23.171875 33.007812 C 22.953125 33.007812 22.773438 33.066406 22.566406 33.128906 M 19.890625 34.222656 C 19.734375 34.523438 19.597656 34.828125 19.464844 35.140625 C 18.558594 37.230469 18.558594 37.230469 18.007812 38.050781 C 17.898438 38.214844 17.808594 38.382812 17.714844 38.554688 C 17.5625 38.84375 17.386719 39.089844 17.179688 39.339844 L 17.097656 39.449219 L 17.097656 39.570312 L 16.976562 39.570312 L 16.914062 39.8125 C 17.101562 39.921875 17.171875 39.933594 17.402344 39.933594 L 17.414062 39.808594 C 17.476562 39.578125 17.597656 39.410156 17.730469 39.222656 C 18.046875 38.765625 18.328125 38.292969 18.605469 37.8125 C 18.671875 37.695312 18.742188 37.582031 18.808594 37.464844 C 19.238281 36.738281 19.578125 35.964844 19.929688 35.195312 C 20 35.039062 20.078125 34.886719 20.160156 34.734375 C 20.273438 34.53125 20.273438 34.53125 20.257812 34.285156 Z M 20.621094 34.527344 L 20.582031 34.621094 C 20.207031 35.472656 19.808594 36.308594 19.34375 37.113281 C 19.191406 37.382812 19.058594 37.660156 18.925781 37.9375 C 18.828125 38.140625 18.726562 38.316406 18.582031 38.488281 C 18.445312 38.648438 18.355469 38.792969 18.261719 38.980469 C 18.105469 39.285156 17.917969 39.511719 17.675781 39.753906 L 17.582031 39.875 L 17.582031 40.117188 C 17.804688 40.234375 18 40.332031 18.253906 40.359375 L 18.375 40.300781 L 18.414062 40.128906 C 18.507812 39.769531 18.726562 39.46875 18.921875 39.15625 C 19.003906 39.019531 19.085938 38.882812 19.167969 38.75 L 19.292969 38.546875 C 19.523438 38.164062 19.734375 37.773438 19.949219 37.378906 C 20.011719 37.265625 20.078125 37.148438 20.144531 37.035156 C 20.347656 36.707031 20.347656 36.707031 20.453125 36.339844 L 20.445312 36.226562 C 20.433594 35.863281 20.59375 35.582031 20.742188 35.257812 C 20.785156 35.15625 20.824219 35.054688 20.863281 34.953125 L 21.105469 34.953125 L 21.167969 34.710938 C 20.910156 34.566406 20.910156 34.566406 20.621094 34.527344 M 25.90625 35.5 L 25.785156 35.621094 L 25.785156 35.804688 L 25.90625 35.804688 L 26.027344 35.5 Z M 25.054688 35.925781 C 25.136719 36.078125 25.136719 36.078125 25.238281 36.230469 L 25.359375 36.230469 L 25.300781 35.984375 Z M 24.386719 37.140625 C 24.296875 37.246094 24.210938 37.359375 24.125 37.472656 L 23.960938 37.691406 L 23.871094 37.808594 C 23.777344 37.929688 23.683594 38.054688 23.589844 38.175781 C 22.734375 39.285156 21.945312 40.417969 21.28125 41.65625 L 21.210938 41.785156 C 21.101562 41.996094 21.015625 42.1875 20.984375 42.425781 L 21.167969 42.363281 C 21.257812 42.214844 21.257812 42.214844 21.34375 42.019531 C 21.914062 40.820312 22.660156 39.722656 23.484375 38.683594 C 23.582031 38.558594 23.679688 38.425781 23.777344 38.296875 L 23.875 38.164062 C 23.941406 38.078125 24.003906 37.992188 24.066406 37.90625 C 24.222656 37.695312 24.378906 37.5 24.570312 37.324219 L 24.507812 37.140625 Z M 18.554688 40.300781 L 18.496094 40.601562 C 18.636719 40.640625 18.636719 40.640625 18.796875 40.664062 L 18.980469 40.601562 L 18.921875 40.421875 L 18.738281 40.300781 Z M 19.222656 40.785156 L 19.101562 40.96875 L 19.40625 41.027344 L 19.34375 40.785156 Z M 17.21875 40.847656 C 17.101562 41 17.101562 41 16.996094 41.199219 C 16.800781 41.535156 16.585938 41.832031 16.332031 42.128906 C 16.164062 42.328125 16.003906 42.535156 15.84375 42.742188 C 15.511719 43.164062 15.167969 43.5625 14.789062 43.945312 C 14.683594 44.058594 14.582031 44.175781 14.480469 44.292969 C 14.40625 44.378906 14.332031 44.464844 14.25 44.546875 C 14.125 44.683594 14.027344 44.8125 13.9375 44.976562 C 13.882812 45.257812 13.886719 45.527344 13.890625 45.8125 C 13.886719 45.96875 13.886719 46.128906 13.882812 46.285156 L 13.882812 46.519531 C 13.863281 47.621094 13.695312 48.742188 13.425781 49.808594 C 13.386719 49.960938 13.386719 49.960938 13.390625 50.140625 L 13.511719 50.140625 C 13.613281 49.953125 13.710938 49.769531 13.808594 49.582031 L 13.894531 49.421875 L 13.976562 49.269531 L 14.050781 49.128906 C 14.125 48.980469 14.191406 48.839844 14.242188 48.683594 C 14.222656 48.601562 14.203125 48.519531 14.183594 48.441406 C 14.207031 48.277344 14.207031 48.277344 14.25 48.09375 L 14.300781 47.890625 L 14.351562 47.675781 C 14.386719 47.539062 14.417969 47.402344 14.453125 47.261719 L 14.5 47.058594 C 14.542969 46.871094 14.574219 46.683594 14.605469 46.492188 C 14.640625 46.304688 14.664062 46.199219 14.765625 46.035156 L 14.878906 45.925781 C 15.085938 45.714844 15.273438 45.5 15.449219 45.265625 L 15.527344 45.164062 C 15.578125 45.09375 15.632812 45.027344 15.683594 44.957031 C 15.757812 44.859375 15.835938 44.757812 15.914062 44.660156 C 16.421875 44.003906 16.902344 43.332031 17.359375 42.636719 C 17.933594 41.773438 17.933594 41.773438 18.253906 41.453125 C 18.257812 41.332031 18.257812 41.332031 18.191406 41.210938 C 18.03125 41.101562 18.03125 41.101562 17.839844 41.011719 L 17.644531 40.917969 C 17.457031 40.832031 17.457031 40.832031 17.21875 40.847656 M 15.945312 45.523438 C 15.820312 45.652344 15.820312 45.652344 15.761719 45.828125 C 15.792969 45.992188 15.792969 45.992188 15.882812 46.132812 L 16.066406 46.253906 C 16.21875 46.183594 16.21875 46.183594 16.367188 46.070312 C 16.445312 45.925781 16.445312 45.925781 16.429688 45.765625 C 16.332031 45.621094 16.332031 45.621094 16.1875 45.523438 Z M 14.058594 49.65625 C 13.996094 49.742188 13.933594 49.832031 13.875 49.921875 L 13.773438 50.070312 L 13.695312 50.203125 L 13.695312 50.324219 C 13.898438 50.234375 14.046875 50.136719 14.183594 49.957031 C 14.171875 49.792969 14.171875 49.792969 14.121094 49.65625 Z M 14.058594 49.65625 " fill-opacity="1" fill-rule="nonzero"/><path fill="#121112" d="M 41.457031 4.273438 C 41.691406 4.292969 41.851562 4.316406 42.054688 4.441406 C 42.191406 4.585938 42.25 4.695312 42.308594 4.882812 L 42.492188 4.882812 L 42.429688 4.519531 L 42.550781 4.519531 C 42.738281 5.578125 42.738281 6.484375 42.371094 7.507812 C 42.03125 8.429688 41.664062 9.339844 41.21875 10.21875 C 41.066406 10.523438 40.925781 10.832031 40.785156 11.144531 C 40.320312 12.1875 39.824219 13.210938 39.285156 14.21875 C 39.15625 14.460938 39.027344 14.703125 38.898438 14.949219 L 38.824219 15.09375 C 38.660156 15.402344 38.5 15.71875 38.34375 16.035156 C 38.21875 16.292969 38.085938 16.542969 37.933594 16.789062 C 37.789062 17.027344 37.660156 17.273438 37.535156 17.527344 C 37.203125 18.203125 36.839844 18.863281 36.476562 19.523438 L 36.394531 19.671875 C 36.058594 20.289062 35.710938 20.894531 35.355469 21.5 C 35.167969 21.820312 34.980469 22.140625 34.796875 22.464844 C 34.296875 23.332031 33.78125 24.191406 33.253906 25.042969 C 33.0625 25.351562 32.875 25.664062 32.683594 25.976562 C 32.246094 26.699219 31.789062 27.410156 31.316406 28.113281 C 31.167969 28.335938 31.023438 28.558594 30.875 28.777344 C 30.386719 29.511719 29.898438 30.242188 29.386719 30.957031 C 29.125 31.320312 28.871094 31.6875 28.628906 32.0625 C 28.292969 32.578125 27.929688 33.066406 27.554688 33.554688 C 27.242188 33.957031 26.941406 34.367188 26.652344 34.785156 C 26.402344 35.136719 26.128906 35.417969 25.785156 35.683594 C 25.644531 35.613281 25.503906 35.539062 25.363281 35.464844 C 25.195312 35.386719 25.054688 35.34375 24.875 35.316406 L 24.925781 35.414062 L 24.992188 35.546875 L 25.058594 35.675781 C 25.113281 35.796875 25.148438 35.914062 25.175781 36.046875 L 25.210938 36.183594 L 25.238281 36.289062 L 25.542969 36.351562 C 25.585938 36.539062 25.585938 36.539062 25.601562 36.777344 C 25.5 36.980469 25.5 36.980469 25.359375 37.140625 C 25.230469 37.179688 25.230469 37.179688 25.117188 37.199219 L 25.050781 37.09375 C 24.867188 36.800781 24.683594 36.574219 24.40625 36.363281 L 24.328125 36.289062 L 24.328125 36.167969 L 24.207031 36.167969 L 24.207031 36.046875 L 24.105469 36.003906 C 23.957031 35.921875 23.839844 35.820312 23.710938 35.710938 C 23.488281 35.535156 23.238281 35.398438 22.992188 35.257812 L 22.929688 35.5625 L 23.234375 35.5625 L 23.234375 35.742188 L 22.929688 35.683594 L 22.867188 35.925781 L 22.445312 36.046875 L 22.503906 36.472656 L 22.324219 36.554688 L 22.140625 36.65625 L 22.078125 36.777344 L 22.566406 36.714844 L 22.566406 36.835938 L 22.40625 36.910156 L 22.203125 37.011719 L 22 37.109375 L 21.835938 37.199219 L 21.777344 37.324219 L 22.261719 37.261719 C 22.027344 37.523438 21.792969 37.667969 21.472656 37.808594 L 21.957031 37.746094 C 21.914062 37.886719 21.914062 37.886719 21.835938 38.050781 C 21.703125 38.171875 21.703125 38.171875 21.542969 38.277344 C 21.492188 38.3125 21.441406 38.347656 21.386719 38.382812 C 21.234375 38.472656 21.089844 38.539062 20.925781 38.597656 L 20.925781 38.78125 L 21.097656 38.691406 C 21.289062 38.597656 21.289062 38.597656 21.472656 38.597656 L 21.472656 38.71875 L 21.339844 38.785156 C 20.953125 38.980469 20.695312 39.160156 20.4375 39.507812 L 20.609375 39.417969 C 20.804688 39.328125 20.804688 39.328125 20.984375 39.328125 L 20.925781 39.507812 C 20.761719 39.609375 20.589844 39.691406 20.417969 39.777344 C 20.253906 39.875 20.175781 39.957031 20.074219 40.117188 L 20.558594 39.933594 L 20.558594 40.117188 L 20.402344 40.191406 L 20.199219 40.289062 L 19.996094 40.382812 L 19.832031 40.480469 L 19.769531 40.664062 L 20.316406 40.542969 C 20.242188 40.664062 20.242188 40.664062 20.136719 40.785156 L 19.890625 40.785156 L 19.929688 40.957031 L 19.953125 41.148438 L 19.832031 41.332031 C 19.675781 41.277344 19.546875 41.226562 19.417969 41.125 L 19.34375 41.027344 L 19.34375 40.847656 L 19.242188 40.886719 L 19.101562 40.90625 C 18.933594 40.828125 18.933594 40.828125 18.796875 40.722656 L 18.796875 40.601562 L 19.164062 40.542969 L 19.070312 40.40625 C 18.980469 40.238281 18.980469 40.238281 18.980469 39.996094 L 18.859375 39.996094 C 18.953125 39.785156 19.070312 39.621094 19.222656 39.449219 L 19.34375 39.449219 L 19.34375 39.328125 L 19.164062 39.265625 L 19.222656 39.085938 L 19.40625 39.085938 L 19.40625 38.839844 C 19.46875 38.710938 19.46875 38.710938 19.550781 38.582031 L 19.632812 38.453125 L 19.710938 38.355469 L 19.832031 38.355469 L 19.832031 37.992188 L 19.953125 37.992188 L 19.992188 37.847656 C 20.105469 37.550781 20.253906 37.277344 20.4375 37.019531 C 20.519531 36.957031 20.601562 36.898438 20.683594 36.835938 C 20.707031 36.679688 20.707031 36.679688 20.683594 36.53125 L 20.621094 36.472656 C 20.601562 36.183594 20.65625 35.957031 20.742188 35.683594 L 20.78125 35.546875 C 20.878906 35.242188 21 34.984375 21.167969 34.710938 L 20.621094 34.527344 L 20.601562 34.65625 C 20.554688 34.863281 20.472656 35.035156 20.382812 35.226562 L 20.328125 35.339844 C 20.289062 35.417969 20.25 35.5 20.210938 35.578125 C 20.15625 35.695312 20.097656 35.816406 20.042969 35.933594 C 19.859375 36.3125 19.671875 36.679688 19.421875 37.023438 C 19.304688 37.203125 19.242188 37.394531 19.167969 37.59375 C 19.03125 37.921875 18.84375 38.230469 18.617188 38.503906 C 18.496094 38.65625 18.417969 38.804688 18.328125 38.976562 C 18.167969 39.277344 17.984375 39.511719 17.75 39.753906 C 17.648438 39.871094 17.585938 39.976562 17.523438 40.117188 C 17.425781 39.984375 17.425781 39.984375 17.339844 39.8125 C 17.40625 39.585938 17.519531 39.421875 17.667969 39.234375 C 18.023438 38.757812 18.304688 38.234375 18.59375 37.710938 C 18.664062 37.59375 18.730469 37.472656 18.804688 37.355469 C 19.21875 36.664062 19.535156 35.929688 19.867188 35.199219 C 19.9375 35.042969 20.015625 34.890625 20.089844 34.738281 C 20.179688 34.558594 20.25 34.390625 20.300781 34.195312 L 20.347656 34.035156 L 20.378906 33.921875 L 20.195312 33.859375 L 20.195312 33.738281 L 20.015625 33.675781 L 20.136719 33.375 C 20.222656 33.390625 20.308594 33.410156 20.398438 33.425781 L 20.542969 33.457031 C 20.683594 33.496094 20.683594 33.496094 20.863281 33.617188 L 20.863281 33.800781 C 20.949219 33.8125 21.035156 33.824219 21.121094 33.832031 L 21.269531 33.851562 C 21.410156 33.867188 21.410156 33.867188 21.535156 33.816406 L 21.652344 33.800781 C 21.734375 33.878906 21.816406 33.960938 21.898438 34.042969 C 22.03125 34.132812 22.03125 34.132812 22.179688 34.210938 L 22.339844 34.300781 L 22.511719 34.394531 C 22.863281 34.589844 23.207031 34.785156 23.53125 35.027344 C 23.699219 35.148438 23.824219 35.222656 24.03125 35.253906 L 24.207031 35.257812 L 24.328125 35.5625 L 24.507812 35.5625 C 24.546875 35.425781 24.546875 35.425781 24.507812 35.257812 C 24.375 35.113281 24.214844 35.003906 24.054688 34.894531 L 23.925781 34.800781 C 23.671875 34.617188 23.410156 34.445312 23.140625 34.289062 L 23.050781 34.222656 L 23.050781 34.101562 L 23.234375 34.101562 L 23.339844 33.976562 L 23.476562 33.859375 L 23.667969 33.894531 C 23.890625 33.9375 23.890625 33.9375 24.058594 33.863281 C 24.214844 33.789062 24.363281 33.714844 24.507812 33.617188 L 24.628906 33.433594 L 24.515625 33.472656 L 24.367188 33.527344 L 24.222656 33.578125 C 24.085938 33.617188 24.085938 33.617188 23.902344 33.617188 C 23.929688 33.484375 23.929688 33.484375 24.023438 33.3125 C 24.183594 33.199219 24.359375 33.117188 24.539062 33.03125 C 24.632812 32.984375 24.726562 32.941406 24.824219 32.894531 C 24.886719 32.863281 24.886719 32.863281 24.949219 32.832031 C 25.074219 32.765625 25.074219 32.765625 25.175781 32.585938 L 24.980469 32.675781 C 24.796875 32.757812 24.722656 32.765625 24.507812 32.765625 C 24.523438 32.65625 24.523438 32.65625 24.570312 32.523438 C 24.679688 32.441406 24.679688 32.441406 24.816406 32.371094 L 24.964844 32.292969 L 25.117188 32.21875 L 25.261719 32.144531 C 25.375 32.089844 25.488281 32.03125 25.601562 31.976562 C 25.414062 31.964844 25.414062 31.964844 25.238281 32.066406 C 25.054688 32.160156 25.054688 32.160156 24.875 32.160156 C 24.9375 31.992188 25.011719 31.898438 25.140625 31.773438 C 25.378906 31.578125 25.660156 31.457031 25.9375 31.328125 L 26.089844 31.246094 L 26.148438 31.125 L 25.980469 31.222656 L 25.785156 31.308594 L 25.601562 31.246094 L 26.515625 30.699219 C 26.296875 30.699219 26.167969 30.765625 25.96875 30.851562 C 25.621094 31.003906 25.621094 31.003906 25.421875 31.003906 C 25.53125 30.746094 25.6875 30.621094 25.90625 30.453125 C 26.164062 30.289062 26.4375 30.160156 26.714844 30.039062 C 26.949219 29.933594 27.089844 29.832031 27.242188 29.621094 L 27.363281 29.425781 L 27.183594 29.503906 L 26.945312 29.605469 L 26.828125 29.660156 C 26.527344 29.789062 26.527344 29.789062 26.390625 29.789062 L 26.453125 29.605469 C 26.542969 29.539062 26.542969 29.539062 26.660156 29.476562 L 26.789062 29.40625 L 26.925781 29.332031 C 27.011719 29.285156 27.097656 29.238281 27.183594 29.191406 L 27.308594 29.125 C 27.613281 28.964844 27.613281 28.964844 27.839844 28.714844 L 27.910156 28.574219 L 27.820312 28.625 C 27.542969 28.773438 27.316406 28.851562 27 28.878906 C 27.003906 28.773438 27.003906 28.773438 27.0625 28.636719 C 27.191406 28.546875 27.328125 28.464844 27.46875 28.390625 C 28.058594 28.078125 28.058594 28.078125 28.519531 27.601562 L 28.351562 27.667969 L 27.914062 27.839844 C 27.730469 27.90625 27.730469 27.90625 27.609375 27.90625 C 27.640625 27.800781 27.640625 27.800781 27.730469 27.664062 C 27.875 27.566406 28.015625 27.480469 28.164062 27.398438 C 28.496094 27.207031 28.792969 27.019531 29.066406 26.753906 L 29.125 26.628906 L 28.976562 26.699219 L 28.777344 26.785156 L 28.582031 26.875 C 28.398438 26.933594 28.398438 26.933594 28.253906 26.914062 L 28.152344 26.875 C 28.4375 26.628906 28.746094 26.46875 29.078125 26.296875 C 29.289062 26.183594 29.445312 26.085938 29.582031 25.882812 L 29.671875 25.71875 L 29.582031 25.769531 C 29.304688 25.917969 29.078125 25.996094 28.761719 26.023438 L 28.824219 25.839844 C 28.953125 25.746094 28.953125 25.746094 29.121094 25.644531 C 29.417969 25.464844 29.699219 25.273438 29.976562 25.070312 L 30.097656 24.992188 L 30.21875 24.992188 L 30.21875 24.867188 L 30.09375 24.921875 L 29.929688 24.992188 L 29.769531 25.058594 C 29.613281 25.113281 29.613281 25.113281 29.371094 25.113281 L 29.429688 24.929688 C 29.523438 24.859375 29.523438 24.859375 29.644531 24.792969 L 29.777344 24.71875 L 29.917969 24.640625 C 30.296875 24.425781 30.640625 24.210938 30.949219 23.898438 C 30.71875 23.933594 30.539062 24.003906 30.332031 24.113281 C 30.058594 24.261719 30.058594 24.261719 29.855469 24.261719 C 29.914062 24.117188 29.964844 24.027344 30.085938 23.925781 L 30.21875 23.84375 L 30.367188 23.75 C 30.574219 23.625 30.78125 23.5 30.992188 23.378906 C 31.140625 23.28125 31.253906 23.175781 31.375 23.046875 L 31.210938 23.125 L 30.996094 23.230469 L 30.78125 23.332031 C 30.585938 23.410156 30.585938 23.410156 30.339844 23.410156 L 30.402344 23.230469 C 30.535156 23.136719 30.664062 23.050781 30.800781 22.964844 C 30.878906 22.917969 30.957031 22.871094 31.035156 22.820312 L 31.148438 22.75 C 31.453125 22.554688 31.710938 22.371094 31.921875 22.074219 L 31.769531 22.144531 L 31.570312 22.230469 L 31.375 22.316406 C 31.191406 22.378906 31.191406 22.378906 31.046875 22.355469 L 30.949219 22.316406 C 31.085938 22.226562 31.203125 22.15625 31.351562 22.089844 L 31.480469 22.03125 C 31.570312 21.988281 31.65625 21.949219 31.746094 21.910156 C 31.988281 21.792969 31.988281 21.792969 32.1875 21.613281 C 32.261719 21.503906 32.261719 21.503906 32.347656 21.34375 L 32.207031 21.425781 L 31.847656 21.628906 C 31.679688 21.710938 31.679688 21.710938 31.433594 21.710938 C 31.496094 21.550781 31.558594 21.464844 31.6875 21.351562 C 31.9375 21.167969 32.207031 21.035156 32.480469 20.894531 L 32.648438 20.796875 L 32.710938 20.675781 L 31.859375 21.101562 L 31.921875 20.859375 C 32.054688 20.757812 32.195312 20.660156 32.34375 20.574219 L 32.472656 20.496094 C 32.960938 20.203125 33.472656 19.953125 33.984375 19.707031 C 33.792969 19.707031 33.71875 19.738281 33.550781 19.828125 L 33.417969 19.894531 L 33.316406 19.949219 L 33.257812 19.828125 C 33.34375 19.667969 33.34375 19.667969 33.441406 19.523438 L 33.277344 19.625 L 33.0625 19.757812 L 32.957031 19.824219 C 32.757812 19.949219 32.566406 20.050781 32.347656 20.128906 C 32.371094 19.992188 32.394531 19.902344 32.484375 19.792969 C 33.179688 19.171875 34.066406 18.773438 34.898438 18.367188 C 35.058594 18.289062 35.21875 18.210938 35.378906 18.132812 L 35.589844 18.03125 L 35.746094 17.941406 L 35.808594 17.820312 C 35.625 17.90625 35.445312 17.992188 35.261719 18.078125 L 35.109375 18.148438 C 34.8125 18.285156 34.539062 18.433594 34.269531 18.617188 C 34.167969 18.671875 34.167969 18.671875 33.984375 18.671875 L 33.984375 18.550781 L 34.109375 18.550781 L 34.167969 18.308594 L 34.03125 18.398438 C 33.972656 18.433594 33.910156 18.472656 33.847656 18.511719 L 33.671875 18.628906 C 33.402344 18.792969 33.402344 18.792969 33.257812 18.855469 L 33.074219 18.855469 C 33.136719 18.710938 33.191406 18.617188 33.304688 18.511719 C 33.609375 18.277344 33.921875 18.066406 34.246094 17.863281 C 34.398438 17.769531 34.550781 17.667969 34.699219 17.566406 C 34.863281 17.457031 35.03125 17.355469 35.203125 17.261719 L 35.382812 17.152344 L 35.445312 17.03125 C 34.96875 17.164062 34.558594 17.347656 34.140625 17.601562 C 34.050781 17.65625 33.957031 17.707031 33.863281 17.761719 L 33.742188 17.761719 C 33.761719 17.652344 33.761719 17.652344 33.804688 17.519531 C 34.0625 17.230469 34.375 17.027344 34.714844 16.851562 C 34.792969 16.804688 34.871094 16.757812 34.945312 16.714844 C 35.140625 16.605469 35.140625 16.605469 35.261719 16.605469 L 35.261719 16.484375 L 34.53125 16.789062 L 34.410156 16.667969 L 34.519531 16.601562 C 34.683594 16.5 34.84375 16.398438 35.007812 16.296875 L 35.179688 16.191406 C 35.46875 16.011719 35.46875 16.011719 35.707031 15.769531 C 35.761719 15.664062 35.761719 15.664062 35.808594 15.511719 L 35.652344 15.605469 L 35.453125 15.726562 L 35.25 15.84375 C 35.078125 15.9375 35.078125 15.9375 34.957031 15.9375 C 34.972656 15.828125 34.972656 15.828125 35.019531 15.695312 C 35.125 15.59375 35.125 15.59375 35.257812 15.496094 L 35.40625 15.382812 C 35.511719 15.308594 35.621094 15.234375 35.730469 15.164062 C 36.078125 14.933594 36.078125 14.933594 36.332031 14.605469 L 36.417969 14.417969 L 36.28125 14.511719 L 36.101562 14.628906 L 35.925781 14.746094 C 35.757812 14.839844 35.632812 14.882812 35.445312 14.90625 C 35.507812 14.738281 35.566406 14.660156 35.707031 14.546875 L 35.878906 14.425781 L 36.058594 14.300781 L 36.234375 14.175781 C 36.621094 13.902344 36.621094 13.902344 36.964844 13.570312 L 37.023438 13.386719 L 36.84375 13.492188 L 36.605469 13.628906 L 36.484375 13.699219 C 36.1875 13.875 36.1875 13.875 36.050781 13.875 C 36.175781 13.59375 36.355469 13.445312 36.597656 13.265625 C 36.710938 13.195312 36.824219 13.121094 36.941406 13.054688 C 37.207031 12.886719 37.390625 12.734375 37.570312 12.476562 L 37.449219 12.476562 C 37.3125 12.5625 37.179688 12.660156 37.046875 12.753906 C 36.894531 12.84375 36.773438 12.875 36.597656 12.902344 L 36.597656 12.71875 C 36.925781 12.382812 37.359375 12.160156 37.765625 11.929688 C 37.941406 11.800781 38.019531 11.699219 38.117188 11.503906 L 37.992188 11.570312 L 37.824219 11.65625 L 37.660156 11.742188 C 37.507812 11.808594 37.507812 11.808594 37.328125 11.808594 L 37.328125 11.6875 L 37.476562 11.632812 L 37.632812 11.566406 L 37.691406 11.441406 C 37.789062 11.390625 37.890625 11.339844 37.992188 11.292969 C 38.226562 11.179688 38.226562 11.179688 38.421875 11.019531 C 38.148438 11.121094 37.890625 11.25 37.632812 11.382812 C 37.644531 11.25 37.644531 11.25 37.691406 11.078125 C 37.945312 10.796875 38.242188 10.585938 38.546875 10.367188 C 38.722656 10.230469 38.875 10.085938 39.027344 9.925781 L 38.835938 10.050781 C 38.71875 10.117188 38.71875 10.117188 38.601562 10.167969 C 38.425781 10.152344 38.425781 10.152344 38.300781 10.105469 C 38.539062 9.835938 38.808594 9.667969 39.117188 9.484375 C 39.269531 9.378906 39.355469 9.285156 39.453125 9.132812 L 39.355469 9.1875 L 39.222656 9.257812 L 39.09375 9.324219 C 38.96875 9.378906 38.96875 9.378906 38.785156 9.378906 C 38.847656 9.222656 38.90625 9.132812 39.03125 9.019531 C 39.230469 8.878906 39.429688 8.746094 39.636719 8.617188 C 39.773438 8.527344 39.773438 8.527344 39.878906 8.34375 L 39.777344 8.382812 L 39.644531 8.4375 L 39.511719 8.488281 C 39.394531 8.527344 39.394531 8.527344 39.273438 8.527344 C 39.304688 8.425781 39.304688 8.425781 39.394531 8.285156 C 39.578125 8.117188 39.753906 7.996094 39.996094 7.929688 L 40.121094 7.917969 L 40.121094 7.796875 L 39.574219 7.980469 L 39.515625 7.859375 L 39.664062 7.777344 C 40.148438 7.503906 40.148438 7.503906 40.546875 7.128906 L 40.375 7.222656 C 40.183594 7.3125 40.183594 7.3125 40 7.3125 C 39.996094 7.160156 39.996094 7.160156 40.0625 6.949219 C 40.320312 6.660156 40.613281 6.425781 40.972656 6.28125 L 40.972656 6.21875 L 40.667969 6.21875 L 40.609375 5.976562 L 40.753906 5.925781 L 40.9375 5.863281 L 41.125 5.796875 L 41.277344 5.734375 L 41.335938 5.609375 L 40.972656 5.734375 L 41.035156 5.429688 L 41.335938 5.367188 L 41.316406 5.242188 L 41.292969 5.074219 L 41.265625 4.910156 L 41.277344 4.761719 C 41.390625 4.648438 41.390625 4.648438 41.519531 4.578125 L 41.640625 4.578125 L 41.640625 4.457031 L 41.519531 4.457031 Z M 41.457031 4.273438 " fill-opacity="1" fill-rule="nonzero"/><path fill="#252223" d="M 39.757812 4.03125 L 39.816406 4.214844 C 39.859375 4.296875 39.898438 4.375 39.941406 4.457031 L 40.121094 4.394531 C 40.03125 4.609375 39.914062 4.730469 39.738281 4.878906 C 39.078125 5.441406 38.492188 6.089844 37.992188 6.796875 C 37.875 6.949219 37.875 6.949219 37.75 7.035156 C 37.589844 7.164062 37.539062 7.3125 37.449219 7.496094 C 37.367188 7.589844 37.28125 7.683594 37.195312 7.773438 C 36.945312 8.042969 36.75 8.320312 36.550781 8.628906 C 36.285156 9.035156 35.980469 9.417969 35.6875 9.804688 L 35.527344 10.015625 C 35.28125 10.335938 35.03125 10.652344 34.773438 10.960938 C 34.476562 11.3125 34.199219 11.679688 33.925781 12.050781 L 33.796875 12.226562 C 33.503906 12.625 33.214844 13.023438 32.96875 13.453125 L 32.894531 13.570312 L 32.769531 13.570312 L 32.75 13.675781 C 32.707031 13.824219 32.652344 13.917969 32.5625 14.039062 L 32.484375 14.152344 L 32.40625 14.238281 L 32.285156 14.238281 L 32.265625 14.34375 C 32.21875 14.503906 32.148438 14.613281 32.054688 14.75 L 31.949219 14.910156 L 31.832031 15.078125 L 31.601562 15.421875 L 31.484375 15.59375 C 31.335938 15.8125 31.1875 16.035156 31.042969 16.253906 C 30.878906 16.5 30.714844 16.746094 30.542969 16.988281 C 30.289062 17.347656 30.050781 17.714844 29.824219 18.09375 C 29.757812 18.207031 29.683594 18.320312 29.613281 18.429688 L 29.492188 18.429688 C 29.476562 18.476562 29.464844 18.527344 29.449219 18.578125 C 29.34375 18.855469 29.199219 19.097656 29.042969 19.351562 L 28.945312 19.511719 C 28.519531 20.210938 28.089844 20.90625 27.628906 21.582031 C 27.503906 21.777344 27.402344 21.984375 27.304688 22.195312 L 27.183594 22.195312 C 27.117188 22.355469 27.054688 22.515625 27 22.683594 L 26.878906 22.683594 L 26.878906 22.925781 L 26.757812 22.925781 L 26.703125 23.058594 L 26.515625 23.53125 L 26.390625 23.53125 L 26.390625 23.714844 L 26.269531 23.714844 L 26.253906 23.875 C 26.207031 24.097656 26.132812 24.238281 26.011719 24.429688 C 25.816406 24.75 25.644531 25.078125 25.480469 25.414062 L 25.359375 25.414062 L 25.339844 25.542969 C 25.292969 25.75 25.210938 25.902344 25.105469 26.085938 L 25.046875 26.191406 C 24.988281 26.300781 24.925781 26.410156 24.863281 26.519531 C 24.820312 26.59375 24.78125 26.664062 24.742188 26.738281 C 24.625 26.945312 24.507812 27.152344 24.386719 27.359375 L 24.285156 27.546875 L 24.191406 27.710938 L 24.109375 27.859375 L 24.023438 27.96875 C 23.917969 28.003906 23.832031 28.027344 23.71875 28.027344 C 23.46875 28.246094 23.335938 28.46875 23.214844 28.777344 L 23.164062 28.894531 C 23.128906 28.988281 23.089844 29.085938 23.050781 29.183594 L 23.195312 29.097656 C 23.476562 28.925781 23.476562 28.925781 23.597656 28.878906 L 23.78125 28.9375 C 23.691406 29.210938 23.554688 29.375 23.363281 29.582031 L 23.203125 29.75 C 23.113281 29.847656 23.019531 29.9375 22.921875 30.027344 C 22.777344 30.1875 22.695312 30.355469 22.601562 30.554688 C 22.566406 30.628906 22.527344 30.707031 22.492188 30.78125 L 22.4375 30.898438 C 22.363281 31.042969 22.285156 31.1875 22.203125 31.332031 C 21.964844 31.761719 21.75 32.203125 21.53125 32.644531 L 21.359375 32.582031 C 21.296875 32.5625 21.234375 32.542969 21.167969 32.523438 L 21.046875 32.585938 C 21.1875 32.089844 21.414062 31.648438 21.648438 31.195312 C 21.753906 30.988281 21.855469 30.785156 21.957031 30.578125 L 22.082031 30.332031 C 22.15625 30.179688 22.234375 30.027344 22.308594 29.871094 C 22.84375 28.78125 23.433594 27.71875 24.035156 26.664062 C 24.269531 26.25 24.496094 25.832031 24.722656 25.410156 C 25.070312 24.765625 25.4375 24.132812 25.816406 23.5 C 25.921875 23.320312 26.027344 23.140625 26.132812 22.960938 C 26.535156 22.273438 26.949219 21.597656 27.363281 20.921875 L 27.488281 20.71875 C 28.339844 19.324219 28.339844 19.324219 28.738281 18.714844 C 28.851562 18.542969 28.960938 18.367188 29.070312 18.195312 C 29.613281 17.332031 30.179688 16.484375 30.746094 15.640625 C 30.785156 15.585938 30.820312 15.53125 30.859375 15.476562 C 31.253906 14.894531 31.648438 14.3125 32.042969 13.734375 L 32.136719 13.597656 C 32.4375 13.15625 32.742188 12.722656 33.050781 12.289062 C 33.128906 12.179688 33.207031 12.070312 33.285156 11.960938 C 33.679688 11.40625 34.078125 10.863281 34.480469 10.320312 C 34.59375 10.167969 34.707031 10.015625 34.816406 9.863281 C 36.285156 7.867188 36.285156 7.867188 36.996094 7.007812 C 37.109375 6.871094 37.222656 6.730469 37.335938 6.589844 C 37.667969 6.175781 38.003906 5.769531 38.363281 5.378906 C 38.472656 5.253906 38.582031 5.128906 38.6875 5.003906 C 39 4.644531 39.363281 4.296875 39.757812 4.03125 " fill-opacity="1" fill-rule="nonzero"/><path fill="#f1ca54" d="M 18.253906 41.394531 C 18.558594 41.480469 18.800781 41.613281 19.066406 41.789062 L 19.183594 41.863281 C 19.28125 41.925781 19.375 41.992188 19.46875 42.0625 L 19.46875 42.183594 L 19.609375 42.234375 C 19.769531 42.304688 19.769531 42.304688 19.890625 42.425781 C 19.871094 42.703125 19.742188 42.941406 19.621094 43.183594 C 19.503906 43.433594 19.386719 43.6875 19.285156 43.945312 L 19.226562 44.085938 C 19.078125 44.445312 18.949219 44.8125 18.828125 45.183594 C 18.789062 45.304688 18.75 45.421875 18.710938 45.539062 C 18.648438 45.726562 18.589844 45.910156 18.53125 46.09375 C 18.472656 46.273438 18.410156 46.453125 18.351562 46.632812 L 18.296875 46.796875 C 18.214844 47.039062 18.144531 47.207031 17.984375 47.402344 C 17.835938 47.519531 17.679688 47.621094 17.511719 47.707031 L 17.332031 47.800781 L 17.140625 47.902344 C 16.242188 48.375 15.449219 48.929688 14.660156 49.570312 L 14.527344 49.675781 L 14.410156 49.769531 L 14.304688 49.835938 L 14.121094 49.835938 C 14.214844 49.269531 14.570312 48.773438 14.863281 48.292969 C 14.929688 48.1875 14.996094 48.078125 15.058594 47.972656 L 15.144531 47.832031 C 15.222656 47.707031 15.222656 47.707031 15.273438 47.527344 L 15.398438 47.527344 L 15.433594 47.378906 C 15.542969 47.09375 15.667969 46.839844 15.882812 46.617188 C 16.054688 46.554688 16.183594 46.558594 16.367188 46.554688 C 16.511719 46.527344 16.511719 46.527344 16.613281 46.433594 C 16.738281 46.203125 16.789062 46.050781 16.816406 45.789062 C 16.804688 45.585938 16.804688 45.585938 16.71875 45.414062 C 16.605469 45.269531 16.535156 45.226562 16.367188 45.160156 C 16.179688 45.148438 16.003906 45.175781 15.820312 45.21875 C 15.640625 45.324219 15.640625 45.324219 15.519531 45.464844 C 15.460938 45.628906 15.449219 45.738281 15.445312 45.910156 L 15.445312 46.050781 C 15.449219 46.199219 15.449219 46.199219 15.535156 46.332031 L 15.578125 46.496094 C 15.515625 46.671875 15.417969 46.820312 15.316406 46.972656 L 15.144531 47.25 L 15.058594 47.390625 C 14.976562 47.523438 14.894531 47.65625 14.816406 47.789062 L 14.746094 47.914062 C 14.699219 47.992188 14.65625 48.070312 14.609375 48.148438 C 14.488281 48.351562 14.359375 48.519531 14.183594 48.683594 C 14.128906 48.53125 14.121094 48.4375 14.144531 48.277344 C 14.160156 48.21875 14.175781 48.15625 14.191406 48.09375 L 14.238281 47.890625 L 14.292969 47.675781 C 14.324219 47.539062 14.359375 47.402344 14.390625 47.261719 L 14.441406 47.058594 C 14.484375 46.871094 14.515625 46.683594 14.546875 46.492188 C 14.578125 46.304688 14.601562 46.199219 14.703125 46.035156 L 14.820312 45.925781 C 15.027344 45.714844 15.210938 45.5 15.390625 45.265625 C 15.425781 45.214844 15.425781 45.214844 15.464844 45.164062 C 15.519531 45.09375 15.570312 45.027344 15.621094 44.957031 C 15.699219 44.859375 15.777344 44.757812 15.851562 44.660156 C 16.335938 44.039062 16.792969 43.40625 17.222656 42.753906 C 17.902344 41.71875 17.902344 41.71875 18.253906 41.394531 " fill-opacity="1" fill-rule="nonzero"/><path fill="#383435" d="M 41.882812 4.519531 C 42.027344 4.5625 42.027344 4.5625 42.1875 4.640625 C 42.265625 4.769531 42.265625 4.769531 42.308594 4.882812 L 42.492188 4.882812 L 42.429688 4.519531 L 42.550781 4.519531 C 42.738281 5.578125 42.738281 6.484375 42.371094 7.507812 C 42.03125 8.429688 41.664062 9.339844 41.21875 10.21875 C 41.066406 10.523438 40.925781 10.832031 40.785156 11.144531 C 40.320312 12.1875 39.824219 13.210938 39.285156 14.21875 C 39.15625 14.460938 39.027344 14.703125 38.898438 14.949219 L 38.824219 15.09375 C 38.660156 15.402344 38.5 15.71875 38.34375 16.035156 C 38.21875 16.292969 38.085938 16.542969 37.933594 16.789062 C 37.789062 17.027344 37.660156 17.273438 37.535156 17.527344 C 37.203125 18.203125 36.839844 18.863281 36.476562 19.523438 L 36.394531 19.671875 C 36.058594 20.289062 35.710938 20.894531 35.355469 21.5 C 35.167969 21.820312 34.980469 22.140625 34.796875 22.464844 C 34.296875 23.332031 33.78125 24.191406 33.253906 25.042969 C 33.0625 25.351562 32.875 25.664062 32.683594 25.976562 C 32.246094 26.699219 31.789062 27.410156 31.316406 28.113281 C 31.167969 28.335938 31.023438 28.558594 30.875 28.777344 C 30.386719 29.511719 29.898438 30.242188 29.386719 30.957031 C 29.125 31.320312 28.871094 31.6875 28.628906 32.0625 C 28.292969 32.578125 27.929688 33.066406 27.554688 33.554688 C 27.242188 33.957031 26.941406 34.367188 26.652344 34.785156 C 26.402344 35.136719 26.128906 35.417969 25.785156 35.683594 L 25.542969 35.5625 L 25.542969 35.316406 C 25.632812 35.199219 25.632812 35.199219 25.757812 35.070312 C 25.9375 34.878906 26.085938 34.695312 26.222656 34.472656 C 26.410156 34.167969 26.613281 33.878906 26.820312 33.589844 C 27.492188 32.671875 28.136719 31.734375 28.777344 30.792969 C 28.890625 30.628906 29.003906 30.464844 29.113281 30.300781 C 29.820312 29.269531 30.511719 28.230469 31.191406 27.175781 L 31.296875 27.015625 C 31.753906 26.304688 32.203125 25.582031 32.636719 24.851562 C 32.808594 24.558594 32.984375 24.269531 33.167969 23.984375 C 33.375 23.664062 33.566406 23.339844 33.757812 23.011719 C 34.011719 22.582031 34.269531 22.152344 34.527344 21.726562 L 34.613281 21.589844 L 34.769531 21.335938 C 34.976562 20.996094 35.179688 20.65625 35.371094 20.308594 L 35.464844 20.128906 C 35.59375 19.894531 35.722656 19.660156 35.847656 19.425781 C 36.261719 18.660156 36.683594 17.894531 37.109375 17.136719 C 37.421875 16.574219 37.726562 16.011719 38.019531 15.441406 C 38.230469 15.03125 38.453125 14.625 38.675781 14.222656 C 38.925781 13.769531 39.160156 13.308594 39.375 12.835938 C 39.527344 12.507812 39.691406 12.191406 39.863281 11.871094 C 40.160156 11.316406 40.425781 10.746094 40.6875 10.175781 C 40.863281 9.792969 41.042969 9.417969 41.234375 9.046875 C 41.734375 8.070312 42.203125 6.925781 42.257812 5.820312 C 42.234375 5.359375 42.054688 4.941406 41.882812 4.519531 " fill-opacity="1" fill-rule="nonzero"/><path fill="#272425" d="M 20.136719 33.375 C 20.222656 33.390625 20.308594 33.410156 20.398438 33.425781 L 20.542969 33.457031 C 20.683594 33.496094 20.683594 33.496094 20.863281 33.617188 L 20.863281 33.800781 C 20.949219 33.8125 21.035156 33.824219 21.121094 33.832031 L 21.269531 33.851562 C 21.410156 33.867188 21.410156 33.867188 21.535156 33.816406 L 21.652344 33.800781 C 21.734375 33.878906 21.816406 33.960938 21.898438 34.042969 C 22.035156 34.132812 22.035156 34.132812 22.183594 34.214844 L 22.351562 34.308594 L 22.523438 34.402344 C 23.511719 34.949219 23.511719 34.949219 23.6875 35.207031 L 23.71875 35.316406 L 23.660156 35.4375 L 23.78125 35.5 L 23.71875 35.621094 C 23.4375 35.542969 23.226562 35.425781 22.992188 35.257812 L 22.929688 35.5625 L 23.234375 35.5625 L 23.234375 35.742188 L 22.929688 35.683594 L 22.867188 35.925781 L 22.445312 36.046875 L 22.503906 36.472656 L 22.324219 36.554688 L 22.140625 36.65625 L 22.078125 36.777344 L 22.566406 36.714844 L 22.566406 36.835938 L 22.40625 36.910156 L 22.203125 37.011719 L 22 37.109375 L 21.835938 37.199219 L 21.777344 37.324219 L 22.261719 37.261719 C 22.027344 37.523438 21.792969 37.667969 21.472656 37.808594 L 21.957031 37.746094 C 21.914062 37.886719 21.914062 37.886719 21.835938 38.050781 C 21.703125 38.171875 21.703125 38.171875 21.542969 38.277344 C 21.492188 38.3125 21.441406 38.347656 21.386719 38.382812 C 21.234375 38.472656 21.089844 38.539062 20.925781 38.597656 L 20.925781 38.78125 L 21.097656 38.691406 C 21.289062 38.597656 21.289062 38.597656 21.472656 38.597656 L 21.472656 38.71875 L 21.339844 38.785156 C 20.953125 38.980469 20.695312 39.160156 20.4375 39.507812 L 20.609375 39.417969 C 20.804688 39.328125 20.804688 39.328125 20.984375 39.328125 L 20.925781 39.507812 C 20.761719 39.609375 20.589844 39.691406 20.417969 39.777344 C 20.253906 39.875 20.175781 39.957031 20.074219 40.117188 L 20.558594 39.933594 L 20.558594 40.117188 L 20.402344 40.191406 L 20.199219 40.289062 L 19.996094 40.382812 L 19.832031 40.480469 L 19.769531 40.664062 L 20.316406 40.542969 C 20.242188 40.664062 20.242188 40.664062 20.136719 40.785156 L 19.890625 40.785156 L 19.929688 40.957031 L 19.953125 41.148438 L 19.832031 41.332031 C 19.675781 41.277344 19.546875 41.226562 19.417969 41.125 L 19.34375 41.027344 L 19.34375 40.847656 L 19.242188 40.886719 L 19.101562 40.90625 C 18.933594 40.828125 18.933594 40.828125 18.796875 40.722656 L 18.796875 40.601562 L 19.164062 40.542969 L 19.070312 40.40625 C 18.980469 40.238281 18.980469 40.238281 18.980469 39.996094 L 18.859375 39.996094 C 18.953125 39.785156 19.070312 39.621094 19.222656 39.449219 L 19.34375 39.449219 L 19.34375 39.328125 L 19.164062 39.265625 L 19.222656 39.085938 L 19.40625 39.085938 L 19.40625 38.839844 C 19.46875 38.710938 19.46875 38.710938 19.550781 38.582031 L 19.632812 38.453125 L 19.710938 38.355469 L 19.832031 38.355469 L 19.832031 37.992188 L 19.953125 37.992188 L 19.992188 37.847656 C 20.105469 37.550781 20.253906 37.277344 20.4375 37.019531 C 20.519531 36.957031 20.601562 36.898438 20.683594 36.835938 C 20.707031 36.679688 20.707031 36.679688 20.683594 36.53125 L 20.621094 36.472656 C 20.601562 36.183594 20.65625 35.957031 20.742188 35.683594 L 20.78125 35.546875 C 20.878906 35.242188 21 34.984375 21.167969 34.710938 L 20.621094 34.527344 L 20.601562 34.65625 C 20.554688 34.863281 20.472656 35.035156 20.382812 35.226562 L 20.328125 35.339844 C 20.289062 35.417969 20.25 35.5 20.210938 35.578125 C 20.15625 35.695312 20.097656 35.816406 20.042969 35.933594 C 19.859375 36.3125 19.671875 36.679688 19.421875 37.023438 C 19.304688 37.203125 19.242188 37.394531 19.167969 37.59375 C 19.03125 37.921875 18.84375 38.230469 18.617188 38.503906 C 18.496094 38.65625 18.417969 38.804688 18.328125 38.976562 C 18.167969 39.277344 17.984375 39.511719 17.75 39.753906 C 17.648438 39.871094 17.585938 39.976562 17.523438 40.117188 C 17.425781 39.984375 17.425781 39.984375 17.339844 39.8125 C 17.40625 39.585938 17.519531 39.421875 17.667969 39.234375 C 18.023438 38.757812 18.304688 38.234375 18.59375 37.710938 C 18.664062 37.59375 18.730469 37.472656 18.804688 37.355469 C 19.21875 36.664062 19.535156 35.929688 19.867188 35.199219 C 19.9375 35.042969 20.015625 34.890625 20.089844 34.738281 C 20.179688 34.558594 20.25 34.390625 20.300781 34.195312 L 20.347656 34.035156 L 20.378906 33.921875 L 20.195312 33.859375 L 20.195312 33.738281 L 20.015625 33.675781 Z M 20.136719 33.375 " fill-opacity="1" fill-rule="nonzero"/><path fill="#111012" d="M 22.992188 35.257812 C 23.230469 35.335938 23.367188 35.433594 23.539062 35.621094 C 23.476562 35.804688 23.476562 35.804688 23.414062 35.863281 L 23.539062 35.925781 L 23.539062 36.167969 L 23.660156 35.984375 L 23.660156 36.109375 L 24.023438 36.167969 L 24.144531 36.59375 L 24.023438 36.59375 C 24.253906 36.878906 24.253906 36.878906 24.507812 37.140625 L 24.378906 37.265625 C 24.183594 37.460938 24.023438 37.675781 23.859375 37.898438 L 23.664062 38.164062 L 23.566406 38.292969 C 23.488281 38.402344 23.40625 38.507812 23.324219 38.609375 C 22.648438 39.464844 22.058594 40.378906 21.53125 41.332031 C 21.441406 41.492188 21.351562 41.652344 21.257812 41.808594 L 21.136719 42.027344 L 21.046875 42.183594 L 20.804688 42.183594 C 20.699219 42.113281 20.699219 42.113281 20.59375 42.015625 C 20.464844 41.898438 20.339844 41.789062 20.199219 41.679688 L 20.074219 41.574219 L 20.074219 41.453125 L 19.769531 41.394531 L 19.832031 41.226562 C 19.902344 41.023438 19.902344 41.023438 19.890625 40.785156 L 20.195312 40.664062 C 20.035156 40.664062 19.921875 40.683594 19.769531 40.722656 L 19.769531 40.480469 C 19.949219 40.285156 20.203125 40.226562 20.449219 40.152344 L 20.558594 40.117188 L 20.5 39.996094 L 20.390625 40.054688 C 20.257812 40.117188 20.257812 40.117188 20.074219 40.117188 C 20.109375 40.011719 20.109375 40.011719 20.195312 39.875 C 20.335938 39.789062 20.476562 39.707031 20.621094 39.632812 C 20.722656 39.574219 20.824219 39.511719 20.925781 39.449219 L 20.984375 39.328125 L 20.816406 39.417969 C 20.621094 39.507812 20.621094 39.507812 20.4375 39.507812 C 20.535156 39.273438 20.671875 39.128906 20.863281 38.960938 C 21.019531 38.871094 21.179688 38.785156 21.351562 38.71875 L 21.472656 38.71875 L 21.472656 38.597656 L 20.925781 38.78125 L 20.925781 38.597656 C 21.097656 38.476562 21.273438 38.371094 21.457031 38.265625 C 21.648438 38.148438 21.765625 38.070312 21.894531 37.882812 L 21.957031 37.746094 L 21.820312 37.8125 C 21.652344 37.871094 21.652344 37.871094 21.511719 37.847656 L 21.410156 37.808594 C 21.632812 37.625 21.882812 37.507812 22.140625 37.382812 L 22.078125 37.324219 C 21.976562 37.320312 21.875 37.320312 21.777344 37.324219 L 21.835938 37.140625 C 21.972656 37.054688 21.972656 37.054688 22.136719 36.976562 L 22.300781 36.898438 C 22.445312 36.835938 22.445312 36.835938 22.566406 36.835938 L 22.566406 36.714844 L 22.445312 36.777344 C 22.320312 36.777344 22.199219 36.777344 22.078125 36.777344 L 22.140625 36.59375 C 22.324219 36.519531 22.324219 36.519531 22.503906 36.472656 L 22.382812 36.046875 C 22.570312 35.941406 22.640625 35.925781 22.867188 35.925781 L 22.929688 35.621094 L 23.171875 35.683594 L 23.054688 35.632812 L 22.929688 35.5625 L 22.867188 35.378906 L 22.992188 35.378906 Z M 22.992188 35.257812 " fill-opacity="1" fill-rule="nonzero"/><path fill="#121112" d="M 20.136719 33.375 C 20.222656 33.390625 20.308594 33.410156 20.398438 33.425781 L 20.542969 33.457031 C 20.683594 33.496094 20.683594 33.496094 20.863281 33.617188 L 20.863281 33.800781 C 20.949219 33.8125 21.035156 33.824219 21.121094 33.832031 L 21.269531 33.851562 C 21.410156 33.867188 21.410156 33.867188 21.535156 33.816406 L 21.652344 33.800781 C 21.734375 33.878906 21.816406 33.960938 21.898438 34.042969 C 22.035156 34.132812 22.035156 34.132812 22.183594 34.214844 L 22.351562 34.308594 L 22.523438 34.402344 C 23.511719 34.949219 23.511719 34.949219 23.6875 35.207031 L 23.71875 35.316406 L 23.660156 35.4375 L 23.78125 35.5 L 23.71875 35.621094 C 23.4375 35.542969 23.226562 35.425781 22.992188 35.257812 L 22.992188 35.378906 L 22.808594 35.378906 L 22.808594 35.5625 C 22.671875 35.570312 22.671875 35.570312 22.503906 35.5625 C 22.375 35.492188 22.375 35.492188 22.246094 35.398438 C 21.742188 35.039062 21.742188 35.039062 21.167969 34.832031 L 21.167969 34.710938 L 20.621094 34.527344 L 20.601562 34.65625 C 20.554688 34.863281 20.472656 35.035156 20.382812 35.226562 L 20.328125 35.339844 C 20.289062 35.417969 20.25 35.5 20.210938 35.578125 C 20.15625 35.695312 20.097656 35.816406 20.042969 35.933594 C 19.859375 36.3125 19.671875 36.679688 19.421875 37.023438 C 19.304688 37.203125 19.242188 37.394531 19.167969 37.59375 C 19.03125 37.921875 18.84375 38.230469 18.617188 38.503906 C 18.496094 38.65625 18.417969 38.804688 18.328125 38.976562 C 18.167969 39.277344 17.984375 39.511719 17.75 39.753906 C 17.648438 39.871094 17.585938 39.976562 17.523438 40.117188 C 17.425781 39.984375 17.425781 39.984375 17.339844 39.8125 C 17.40625 39.585938 17.519531 39.421875 17.667969 39.234375 C 18.023438 38.757812 18.304688 38.234375 18.59375 37.710938 C 18.664062 37.59375 18.730469 37.472656 18.804688 37.355469 C 19.21875 36.664062 19.535156 35.929688 19.867188 35.199219 C 19.9375 35.042969 20.015625 34.890625 20.089844 34.738281 C 20.179688 34.558594 20.25 34.390625 20.300781 34.195312 L 20.347656 34.035156 L 20.378906 33.921875 L 20.195312 33.859375 L 20.195312 33.738281 L 20.015625 33.675781 Z M 20.136719 33.375 " fill-opacity="1" fill-rule="nonzero"/><path fill="#201a1e" d="M 25.054688 24.808594 L 25.175781 24.808594 L 25.300781 25.113281 L 25.601562 25.050781 L 25.480469 25.414062 L 25.359375 25.414062 L 25.339844 25.542969 C 25.292969 25.75 25.210938 25.902344 25.105469 26.085938 L 25.046875 26.191406 C 24.988281 26.300781 24.925781 26.410156 24.863281 26.519531 C 24.820312 26.59375 24.78125 26.664062 24.742188 26.738281 C 24.625 26.945312 24.507812 27.152344 24.386719 27.359375 L 24.285156 27.546875 C 24.253906 27.601562 24.222656 27.65625 24.191406 27.710938 L 24.109375 27.859375 L 24.023438 27.96875 C 23.917969 28.003906 23.832031 28.027344 23.71875 28.027344 C 23.46875 28.246094 23.335938 28.46875 23.214844 28.777344 L 23.164062 28.894531 C 23.128906 28.988281 23.089844 29.085938 23.050781 29.183594 L 23.195312 29.097656 C 23.476562 28.925781 23.476562 28.925781 23.597656 28.878906 L 23.78125 28.9375 C 23.691406 29.210938 23.554688 29.375 23.363281 29.582031 L 23.203125 29.75 C 23.113281 29.847656 23.019531 29.9375 22.921875 30.027344 C 22.777344 30.1875 22.695312 30.355469 22.601562 30.554688 C 22.566406 30.628906 22.527344 30.707031 22.492188 30.78125 L 22.4375 30.898438 C 22.363281 31.042969 22.285156 31.1875 22.203125 31.332031 C 21.964844 31.761719 21.75 32.203125 21.53125 32.644531 L 21.359375 32.582031 L 21.167969 32.523438 L 21.046875 32.585938 C 21.1875 32.089844 21.414062 31.648438 21.648438 31.195312 C 21.753906 30.988281 21.855469 30.785156 21.957031 30.578125 L 22.082031 30.332031 C 22.15625 30.179688 22.234375 30.027344 22.308594 29.871094 C 22.847656 28.78125 23.433594 27.714844 24.035156 26.660156 C 24.382812 26.046875 24.722656 25.425781 25.054688 24.808594 " fill-opacity="1" fill-rule="nonzero"/><path fill="#af8b35" d="M 18.796875 42.121094 C 18.90625 42.113281 19.015625 42.109375 19.125 42.105469 L 19.304688 42.101562 C 19.46875 42.121094 19.46875 42.121094 19.578125 42.203125 L 19.648438 42.304688 C 19.660156 42.496094 19.660156 42.496094 19.648438 42.667969 L 19.46875 42.730469 L 19.449219 42.886719 C 19.402344 43.121094 19.3125 43.285156 19.199219 43.492188 C 18.90625 44.042969 18.714844 44.628906 18.519531 45.21875 L 18.445312 45.441406 L 18.382812 45.640625 C 18.3125 45.832031 18.222656 46.007812 18.128906 46.191406 C 18.089844 46.324219 18.050781 46.457031 18.015625 46.589844 C 17.949219 46.8125 17.894531 46.96875 17.761719 47.160156 C 17.398438 47.414062 17.007812 47.605469 16.609375 47.796875 C 16.328125 47.933594 16.085938 48.105469 15.835938 48.289062 C 15.707031 48.375 15.609375 48.414062 15.457031 48.441406 L 15.519531 48.257812 C 15.652344 48.152344 15.652344 48.152344 15.820312 48.035156 C 16.148438 47.804688 16.441406 47.554688 16.734375 47.285156 L 16.308594 47.347656 L 16.429688 47.164062 C 16.558594 47.109375 16.558594 47.109375 16.707031 47.0625 C 16.855469 47.007812 16.855469 47.007812 16.976562 46.921875 C 17.046875 46.746094 17.039062 46.625 17.035156 46.433594 L 17.28125 46.375 L 17.21875 46.191406 L 17.035156 46.253906 L 17.035156 46.070312 L 17.140625 46.023438 L 17.40625 45.898438 C 17.542969 45.828125 17.542969 45.828125 17.644531 45.644531 L 17.339844 45.707031 L 17.339844 45.585938 L 17.511719 45.519531 C 17.703125 45.425781 17.703125 45.425781 17.769531 45.296875 C 17.8125 45.191406 17.851562 45.085938 17.886719 44.976562 L 17.742188 45.066406 C 17.582031 45.160156 17.582031 45.160156 17.460938 45.160156 L 17.460938 44.976562 L 17.5625 44.933594 C 17.699219 44.875 17.824219 44.8125 17.949219 44.734375 C 18.042969 44.578125 18.042969 44.578125 18.070312 44.429688 L 17.765625 44.429688 L 17.765625 44.308594 L 17.863281 44.273438 C 18.003906 44.214844 18.125 44.152344 18.253906 44.066406 C 18.359375 43.914062 18.429688 43.753906 18.496094 43.578125 L 18.375 43.519531 L 18.675781 43.15625 L 18.375 43.277344 L 18.433594 43.09375 L 18.609375 43.019531 C 18.796875 42.933594 18.796875 42.933594 18.863281 42.804688 C 18.90625 42.699219 18.945312 42.59375 18.980469 42.488281 L 18.738281 42.363281 L 18.738281 42.183594 Z M 18.796875 42.121094 " fill-opacity="1" fill-rule="nonzero"/><path fill="#111012" d="M 20.136719 34.648438 L 20.4375 34.953125 C 20.304688 35.402344 20.117188 35.796875 19.894531 36.207031 L 19.800781 36.390625 C 19.667969 36.636719 19.539062 36.882812 19.398438 37.121094 C 19.246094 37.386719 19.117188 37.660156 18.984375 37.9375 C 18.886719 38.140625 18.789062 38.316406 18.640625 38.488281 C 18.503906 38.648438 18.417969 38.792969 18.324219 38.980469 C 18.167969 39.28125 17.984375 39.511719 17.75 39.753906 C 17.648438 39.871094 17.585938 39.976562 17.523438 40.117188 C 17.425781 39.984375 17.425781 39.984375 17.339844 39.8125 C 17.40625 39.585938 17.519531 39.421875 17.667969 39.234375 C 18.023438 38.757812 18.304688 38.234375 18.59375 37.710938 C 18.664062 37.59375 18.730469 37.472656 18.804688 37.355469 C 19.21875 36.664062 19.535156 35.929688 19.867188 35.199219 C 19.953125 35.015625 20.042969 34.832031 20.136719 34.648438 " fill-opacity="1" fill-rule="nonzero"/><path fill="#1e181e" d="M 25.054688 24.808594 L 25.175781 24.808594 L 25.300781 25.113281 L 25.601562 25.050781 L 25.480469 25.414062 L 25.359375 25.414062 L 25.339844 25.542969 C 25.292969 25.75 25.210938 25.902344 25.105469 26.085938 L 25.046875 26.191406 C 24.988281 26.300781 24.925781 26.410156 24.863281 26.519531 C 24.820312 26.59375 24.78125 26.664062 24.742188 26.738281 C 24.625 26.945312 24.507812 27.152344 24.386719 27.359375 L 24.285156 27.546875 C 24.253906 27.601562 24.222656 27.65625 24.191406 27.710938 L 24.109375 27.859375 L 24.023438 27.96875 C 23.917969 28.003906 23.832031 28.027344 23.71875 28.027344 L 23.597656 28.148438 L 23.414062 28.089844 L 23.355469 27.90625 C 23.414062 27.761719 23.414062 27.761719 23.507812 27.59375 L 23.613281 27.398438 L 23.726562 27.191406 L 23.84375 26.980469 C 24.199219 26.332031 24.5625 25.6875 24.929688 25.046875 C 24.972656 24.96875 25.015625 24.886719 25.054688 24.808594 " fill-opacity="1" fill-rule="nonzero"/><path fill="#141314" d="M 20.863281 34.953125 L 21.046875 34.953125 C 20.925781 35.316406 20.925781 35.316406 20.863281 35.496094 C 20.703125 35.972656 20.703125 35.972656 20.683594 36.472656 L 20.804688 36.59375 L 20.683594 36.59375 L 20.742188 36.835938 L 20.605469 36.929688 C 20.398438 37.113281 20.300781 37.304688 20.175781 37.550781 L 20.109375 37.679688 C 20.058594 37.78125 20.003906 37.886719 19.953125 37.992188 L 19.832031 37.992188 L 19.878906 38.09375 L 19.890625 38.234375 C 19.785156 38.386719 19.785156 38.386719 19.648438 38.539062 C 19.542969 38.660156 19.542969 38.660156 19.46875 38.78125 L 19.46875 38.960938 L 19.40625 39.085938 L 19.222656 39.144531 L 19.222656 39.265625 L 19.34375 39.328125 L 19.34375 39.449219 C 19.246094 39.550781 19.144531 39.652344 19.042969 39.753906 C 18.980469 39.832031 18.917969 39.914062 18.859375 39.996094 L 18.980469 39.996094 C 19.054688 40.175781 19.121094 40.351562 19.164062 40.542969 C 18.984375 40.503906 18.898438 40.464844 18.738281 40.359375 L 18.554688 40.359375 L 18.496094 40.480469 L 18.3125 40.480469 L 18.253906 40.300781 L 18.375 40.300781 L 18.355469 40.148438 C 18.382812 39.847656 18.519531 39.667969 18.6875 39.421875 C 19.089844 38.8125 19.449219 38.183594 19.804688 37.542969 C 19.882812 37.398438 19.964844 37.253906 20.050781 37.109375 C 20.09375 37.03125 20.140625 36.949219 20.183594 36.871094 L 20.300781 36.667969 C 20.371094 36.488281 20.386719 36.414062 20.382812 36.226562 C 20.378906 35.976562 20.417969 35.835938 20.519531 35.609375 L 20.597656 35.429688 C 20.679688 35.261719 20.757812 35.105469 20.863281 34.953125 " fill-opacity="1" fill-rule="nonzero"/><path fill="#272425" d="M 24.207031 37.019531 L 24.507812 37.078125 C 24.3125 37.347656 24.109375 37.609375 23.902344 37.867188 C 22.917969 39.085938 21.984375 40.355469 21.300781 41.769531 L 21.234375 41.90625 L 21.175781 42.023438 C 21.105469 42.121094 21.105469 42.121094 20.976562 42.195312 L 20.863281 42.242188 L 20.769531 42.160156 C 20.542969 41.957031 20.3125 41.761719 20.074219 41.574219 L 20.136719 41.394531 C 20.242188 41.402344 20.242188 41.402344 20.378906 41.453125 L 20.496094 41.605469 L 20.621094 41.757812 C 20.78125 41.8125 20.78125 41.8125 20.925781 41.816406 C 21.125 41.585938 21.257812 41.347656 21.382812 41.074219 C 21.847656 40.117188 22.484375 39.265625 23.113281 38.417969 L 23.210938 38.28125 C 23.308594 38.148438 23.40625 38.019531 23.503906 37.886719 L 23.589844 37.769531 C 23.785156 37.511719 23.992188 37.261719 24.207031 37.019531 " fill-opacity="1" fill-rule="nonzero"/><path fill="#121113" d="M 38.96875 6.28125 L 39.027344 6.460938 C 38.984375 6.578125 38.984375 6.578125 38.914062 6.707031 L 38.839844 6.84375 L 38.757812 6.988281 L 38.679688 7.136719 C 38.613281 7.253906 38.546875 7.375 38.480469 7.496094 L 38.359375 7.496094 L 38.335938 7.640625 L 38.300781 7.796875 L 38.179688 7.859375 L 38.152344 8.066406 L 38.117188 8.285156 L 37.933594 8.40625 L 37.910156 8.523438 L 37.875 8.648438 C 37.757812 8.753906 37.757812 8.753906 37.617188 8.847656 L 37.476562 8.941406 C 37.328125 9.011719 37.328125 9.011719 37.15625 9.023438 L 37.023438 9.011719 L 37.007812 9.128906 C 36.941406 9.398438 36.871094 9.632812 36.71875 9.863281 C 36.484375 10.09375 36.226562 10.324219 35.929688 10.472656 C 36.226562 9.84375 36.6875 9.292969 37.109375 8.746094 C 37.339844 8.453125 37.5625 8.152344 37.785156 7.855469 L 38.128906 7.398438 C 38.304688 7.164062 38.484375 6.925781 38.660156 6.6875 L 38.839844 6.449219 Z M 38.96875 6.28125 " fill-opacity="1" fill-rule="nonzero"/><path fill="#070c4c" d="M 15.640625 46.433594 C 15.761719 46.453125 15.882812 46.472656 16.003906 46.496094 L 16.003906 46.617188 L 15.894531 46.726562 C 15.746094 46.875 15.660156 47.023438 15.5625 47.210938 L 15.46875 47.390625 L 15.398438 47.527344 L 15.273438 47.527344 C 15.269531 47.574219 15.261719 47.617188 15.253906 47.664062 C 15.214844 47.835938 15.15625 47.949219 15.066406 48.101562 L 14.972656 48.25 L 14.777344 48.570312 C 14.710938 48.679688 14.644531 48.789062 14.578125 48.894531 C 14.496094 49.03125 14.414062 49.164062 14.335938 49.300781 L 14.273438 49.414062 C 14.214844 49.511719 14.160156 49.609375 14.105469 49.707031 L 14 49.835938 L 13.757812 49.835938 L 13.8125 49.703125 C 13.882812 49.542969 13.882812 49.542969 13.902344 49.394531 C 14.050781 48.75 14.558594 48.101562 14.894531 47.539062 C 14.972656 47.40625 15.050781 47.273438 15.128906 47.140625 L 15.273438 46.890625 L 15.34375 46.773438 C 15.398438 46.679688 15.457031 46.585938 15.519531 46.496094 Z M 15.640625 46.433594 " fill-opacity="1" fill-rule="nonzero"/><path fill="#121112" d="M 35.6875 10.714844 L 35.871094 10.773438 C 35.824219 10.964844 35.769531 11.144531 35.6875 11.320312 C 35.527344 11.4375 35.527344 11.4375 35.324219 11.566406 C 35.128906 11.757812 34.941406 11.953125 34.777344 12.171875 C 34.753906 12.253906 34.734375 12.332031 34.714844 12.414062 C 34.679688 12.492188 34.644531 12.566406 34.601562 12.636719 L 34.539062 12.761719 L 34.46875 12.886719 L 34.398438 13.015625 C 34.34375 13.117188 34.285156 13.222656 34.230469 13.328125 L 34.109375 13.328125 L 34.046875 13.570312 L 33.925781 13.570312 L 33.882812 13.699219 C 33.789062 13.90625 33.667969 14.058594 33.527344 14.234375 C 33.304688 14.515625 33.097656 14.808594 32.90625 15.113281 C 32.726562 15.40625 32.550781 15.65625 32.285156 15.878906 L 32.164062 15.878906 L 32.164062 16.058594 L 32.042969 16.058594 L 31.921875 16.304688 C 31.921875 16.121094 31.921875 16.121094 31.992188 15.988281 C 32.21875 15.640625 32.453125 15.300781 32.695312 14.964844 C 32.9375 14.628906 33.167969 14.289062 33.402344 13.945312 C 33.988281 13.082031 34.59375 12.230469 35.207031 11.382812 C 35.367188 11.160156 35.527344 10.9375 35.6875 10.714844 " fill-opacity="1" fill-rule="nonzero"/><path fill="#131213" d="M 39.757812 4.03125 L 39.816406 4.214844 C 39.859375 4.296875 39.898438 4.375 39.941406 4.457031 L 40.121094 4.394531 C 40.03125 4.609375 39.914062 4.730469 39.738281 4.878906 C 39.089844 5.429688 38.5 6.078125 37.996094 6.765625 L 37.875 6.703125 C 37.960938 6.4375 38.085938 6.292969 38.292969 6.101562 C 38.539062 5.867188 38.539062 5.867188 38.738281 5.59375 C 38.871094 5.390625 39.023438 5.277344 39.210938 5.125 L 39.273438 5.003906 L 39.394531 5.003906 L 39.273438 4.820312 C 38.976562 4.964844 38.769531 5.136719 38.542969 5.367188 C 38.464844 5.445312 38.386719 5.523438 38.3125 5.601562 L 38.199219 5.710938 L 38.117188 5.792969 L 38.117188 5.609375 C 38.195312 5.503906 38.195312 5.503906 38.304688 5.386719 L 38.429688 5.253906 L 38.5625 5.117188 L 38.695312 4.976562 C 39.027344 4.632812 39.371094 4.320312 39.757812 4.03125 " fill-opacity="1" fill-rule="nonzero"/><path fill="#050623" d="M 21.167969 32.402344 L 21.230469 32.523438 L 21.34375 32.582031 C 21.476562 32.648438 21.550781 32.714844 21.652344 32.828125 L 21.761719 32.90625 L 21.835938 33.007812 C 21.816406 33.203125 21.816406 33.203125 21.777344 33.375 C 21.46875 33.339844 21.195312 33.273438 20.902344 33.171875 L 20.675781 33.097656 L 20.5 33.007812 C 20.441406 32.890625 20.441406 32.890625 20.4375 32.765625 L 20.5 32.585938 C 20.710938 32.515625 20.886719 32.519531 21.105469 32.523438 Z M 21.167969 32.402344 " fill-opacity="1" fill-rule="nonzero"/><path fill="#717370" d="M 19.164062 37.261719 L 19.285156 37.324219 C 19.210938 37.476562 19.136719 37.632812 19.0625 37.785156 L 19 37.917969 C 18.894531 38.125 18.792969 38.3125 18.640625 38.488281 C 18.5 38.652344 18.40625 38.808594 18.304688 39.003906 C 18.113281 39.382812 18.113281 39.382812 17.949219 39.507812 L 17.765625 39.507812 C 17.863281 39.226562 17.863281 39.226562 17.972656 39.125 C 18.09375 39 18.152344 38.875 18.226562 38.71875 C 18.308594 38.546875 18.386719 38.394531 18.496094 38.234375 L 18.617188 38.234375 L 18.652344 38.089844 C 18.773438 37.78125 18.964844 37.527344 19.164062 37.261719 " fill-opacity="1" fill-rule="nonzero"/><path fill="#121118" d="M 31.554688 16.667969 L 31.617188 16.789062 C 31.578125 16.890625 31.539062 16.992188 31.496094 17.09375 L 31.46875 17.25 C 31.429688 17.421875 31.371094 17.511719 31.253906 17.640625 L 31.070312 17.699219 L 31.070312 17.820312 L 30.886719 18.003906 L 30.796875 18.167969 L 30.707031 18.308594 L 30.523438 18.308594 C 30.558594 18.074219 30.617188 17.929688 30.757812 17.742188 L 30.863281 17.601562 L 31.082031 17.304688 C 31.238281 17.09375 31.398438 16.878906 31.554688 16.667969 " fill-opacity="1" fill-rule="nonzero"/><path fill="#393536" d="M 25.117188 36.167969 L 25.238281 36.167969 L 25.238281 36.289062 L 25.542969 36.351562 C 25.585938 36.539062 25.585938 36.539062 25.601562 36.777344 C 25.5 36.980469 25.5 36.980469 25.359375 37.140625 C 25.222656 37.195312 25.222656 37.195312 25.117188 37.199219 L 24.933594 36.835938 L 25.175781 36.777344 Z M 25.117188 36.167969 " fill-opacity="1" fill-rule="nonzero"/><path fill="#060b4d" d="M 21.167969 32.402344 L 21.230469 32.523438 L 21.34375 32.582031 C 21.476562 32.648438 21.550781 32.714844 21.652344 32.828125 L 21.761719 32.90625 L 21.835938 33.007812 C 21.816406 33.203125 21.816406 33.203125 21.777344 33.375 C 21.367188 33.320312 21.367188 33.320312 21.230469 33.253906 L 21.351562 32.707031 L 21.105469 32.707031 Z M 21.167969 32.402344 " fill-opacity="1" fill-rule="nonzero"/><path fill="#717370" d="M 26.816406 23.714844 C 26.855469 23.820312 26.855469 23.820312 26.878906 23.957031 C 26.828125 24.089844 26.828125 24.089844 26.746094 24.226562 L 26.660156 24.371094 C 26.558594 24.527344 26.445312 24.664062 26.332031 24.808594 L 26.25 24.980469 C 26.121094 25.226562 25.964844 25.445312 25.785156 25.660156 L 25.664062 25.71875 C 25.703125 25.484375 25.8125 25.3125 25.9375 25.113281 L 26.003906 25.007812 C 26.070312 24.902344 26.136719 24.792969 26.207031 24.683594 L 26.34375 24.460938 C 26.660156 23.949219 26.660156 23.949219 26.816406 23.714844 " fill-opacity="1" fill-rule="nonzero"/><path fill="#272425" d="M 22.808594 34.953125 C 23.273438 35.007812 23.273438 35.007812 23.476562 35.136719 L 23.597656 35.257812 L 23.71875 35.316406 L 23.660156 35.4375 L 23.78125 35.5 L 23.71875 35.621094 C 23.4375 35.542969 23.226562 35.425781 22.992188 35.257812 L 22.992188 35.378906 L 22.867188 35.378906 Z M 22.808594 34.953125 " fill-opacity="1" fill-rule="nonzero"/><path fill="#383435" d="M 35.871094 11.6875 L 35.871094 11.808594 L 36.050781 11.808594 L 36.113281 12.113281 L 35.261719 12.597656 L 35.140625 12.476562 L 35.871094 12.050781 L 35.808594 11.988281 C 35.667969 12.007812 35.523438 12.027344 35.382812 12.050781 C 35.429688 11.9375 35.429688 11.9375 35.503906 11.808594 C 35.636719 11.726562 35.714844 11.6875 35.871094 11.6875 " fill-opacity="1" fill-rule="nonzero"/><path fill="#717370" d="M 27.851562 21.832031 L 27.972656 22.011719 C 27.410156 23.109375 27.410156 23.109375 27.0625 23.53125 L 27 23.351562 C 27.058594 23.214844 27.058594 23.214844 27.148438 23.0625 L 27.246094 22.890625 L 27.351562 22.714844 L 27.554688 22.371094 L 27.648438 22.214844 C 27.71875 22.089844 27.789062 21.960938 27.851562 21.832031 " fill-opacity="1" fill-rule="nonzero"/><path fill="#121112" d="M 14.972656 49.777344 L 15.09375 49.835938 C 15.03125 50.019531 15.03125 50.019531 14.910156 50.128906 L 14.753906 50.25 L 14.589844 50.378906 C 14.375 50.542969 14.15625 50.707031 13.9375 50.871094 L 13.9375 50.625 C 14.039062 50.492188 14.152344 50.421875 14.296875 50.332031 C 14.484375 50.203125 14.628906 50.0625 14.789062 49.898438 Z M 14.972656 49.777344 " fill-opacity="1" fill-rule="nonzero"/><path fill="#050622" d="M 23.597656 34.40625 C 23.832031 34.46875 24.050781 34.535156 24.265625 34.648438 L 24.449219 34.710938 L 24.507812 35.195312 C 24.316406 35.105469 24.152344 35 23.984375 34.871094 L 23.84375 34.761719 C 23.71875 34.648438 23.660156 34.558594 23.597656 34.40625 " fill-opacity="1" fill-rule="nonzero"/><path fill="#070c4e" d="M 20.863281 34.953125 L 21.046875 34.953125 C 20.957031 35.257812 20.828125 35.523438 20.683594 35.804688 L 20.574219 36.015625 L 20.5 36.167969 L 20.378906 36.109375 C 20.488281 35.683594 20.636719 35.324219 20.863281 34.953125 " fill-opacity="1" fill-rule="nonzero"/><path fill="#272425" d="M 20.257812 33.617188 L 20.742188 33.617188 L 20.742188 33.738281 L 21.351562 33.921875 L 21.351562 34.101562 L 21.167969 34.164062 C 21.054688 34.121094 21.054688 34.121094 20.933594 34.054688 C 20.789062 33.976562 20.660156 33.914062 20.507812 33.855469 C 20.464844 33.835938 20.421875 33.820312 20.378906 33.800781 Z M 20.257812 33.617188 " fill-opacity="1" fill-rule="nonzero"/><path fill="#1c161f" d="M 37.386719 7.25 L 37.507812 7.25 C 37.496094 7.355469 37.496094 7.355469 37.449219 7.496094 C 37.332031 7.640625 37.332031 7.640625 37.1875 7.796875 L 37.042969 7.953125 C 36.917969 8.085938 36.789062 8.214844 36.660156 8.34375 L 36.660156 8.164062 C 36.722656 8.058594 36.722656 8.058594 36.808594 7.949219 C 36.914062 7.8125 36.96875 7.726562 37.023438 7.554688 C 37.203125 7.390625 37.203125 7.390625 37.386719 7.25 " fill-opacity="1" fill-rule="nonzero"/><path fill="#242124" d="M 17.582031 39.386719 L 17.765625 39.386719 L 17.765625 39.507812 L 17.886719 39.570312 L 17.773438 39.707031 C 17.667969 39.84375 17.59375 39.960938 17.523438 40.117188 C 17.425781 39.984375 17.425781 39.984375 17.339844 39.8125 C 17.382812 39.648438 17.382812 39.648438 17.460938 39.507812 Z M 17.582031 39.386719 " fill-opacity="1" fill-rule="nonzero"/><path fill="#070c4e" d="M 20.621094 32.523438 C 20.78125 32.582031 20.78125 32.582031 20.925781 32.644531 L 20.925781 32.949219 C 20.816406 33.011719 20.816406 33.011719 20.683594 33.070312 L 20.5 33.007812 C 20.453125 32.894531 20.453125 32.894531 20.4375 32.765625 L 20.5 32.585938 Z M 20.621094 32.523438 " fill-opacity="1" fill-rule="nonzero"/><path fill="#393536" d="M 32.832031 13.203125 L 33.015625 13.203125 C 32.976562 13.371094 32.976562 13.371094 32.894531 13.570312 C 32.71875 13.699219 32.71875 13.699219 32.527344 13.8125 C 32.445312 13.890625 32.363281 13.972656 32.285156 14.054688 C 32.300781 13.886719 32.300781 13.886719 32.347656 13.691406 C 32.464844 13.546875 32.464844 13.546875 32.589844 13.449219 L 32.710938 13.449219 Z M 32.832031 13.203125 " fill-opacity="1" fill-rule="nonzero"/><path fill="#080c46" d="M 30.949219 17.519531 L 31.132812 17.578125 C 31.113281 17.6875 31.113281 17.6875 31.070312 17.820312 C 31.011719 17.882812 30.949219 17.945312 30.886719 18.003906 L 30.796875 18.167969 L 30.707031 18.308594 L 30.523438 18.308594 C 30.535156 18.136719 30.574219 18.019531 30.667969 17.875 C 30.761719 17.753906 30.855469 17.636719 30.949219 17.519531 " fill-opacity="1" fill-rule="nonzero"/><path fill="#717370" d="M 35.261719 13.082031 L 35.203125 13.265625 C 35.078125 13.355469 34.949219 13.4375 34.816406 13.515625 L 34.710938 13.582031 C 34.535156 13.6875 34.375 13.777344 34.167969 13.8125 C 34.203125 13.707031 34.203125 13.707031 34.289062 13.570312 C 34.425781 13.476562 34.570312 13.390625 34.714844 13.3125 L 34.832031 13.246094 C 35.121094 13.082031 35.121094 13.082031 35.261719 13.082031 " fill-opacity="1" fill-rule="nonzero"/><path fill="#373334" d="M 37.507812 12.355469 L 37.632812 12.476562 C 37.566406 12.554688 37.5 12.636719 37.433594 12.714844 L 37.324219 12.847656 C 37.207031 12.960938 37.207031 12.960938 37.070312 13.007812 L 36.964844 13.023438 L 36.902344 12.902344 L 37.023438 12.902344 L 36.964844 12.71875 L 37.066406 12.65625 L 37.203125 12.570312 L 37.335938 12.488281 C 37.445312 12.421875 37.445312 12.421875 37.507812 12.355469 " fill-opacity="1" fill-rule="nonzero"/><path fill="#393536" d="M 18.375 44.550781 L 18.496094 44.671875 C 18.164062 44.902344 17.847656 45.050781 17.460938 45.160156 L 17.460938 44.976562 Z M 18.375 44.550781 " fill-opacity="1" fill-rule="nonzero"/><path fill="#121112" d="M 24.507812 26.8125 L 24.628906 26.8125 C 24.535156 27.0625 24.417969 27.296875 24.289062 27.53125 L 24.230469 27.640625 C 24.179688 27.730469 24.132812 27.816406 24.085938 27.90625 L 23.960938 27.84375 C 24.042969 27.578125 24.144531 27.359375 24.296875 27.125 L 24.410156 26.945312 Z M 24.507812 26.8125 " fill-opacity="1" fill-rule="nonzero"/><path fill="#717370" d="M 37.691406 9.378906 L 37.875 9.378906 L 37.875 9.5 C 37.769531 9.582031 37.664062 9.664062 37.554688 9.742188 C 37.496094 9.785156 37.4375 9.828125 37.375 9.871094 C 37.242188 9.960938 37.109375 10.039062 36.964844 10.105469 L 36.964844 9.925781 C 37.074219 9.824219 37.191406 9.726562 37.316406 9.640625 L 37.417969 9.5625 C 37.507812 9.496094 37.597656 9.4375 37.691406 9.378906 " fill-opacity="1" fill-rule="nonzero"/><path fill="#111012" d="M 22.382812 31.914062 L 22.566406 31.976562 C 22.480469 32.316406 22.3125 32.519531 22.078125 32.765625 L 22.019531 32.644531 C 22.09375 32.472656 22.09375 32.472656 22.195312 32.273438 L 22.300781 32.070312 Z M 22.382812 31.914062 " fill-opacity="1" fill-rule="nonzero"/><path fill="#3b3a3a" d="M 23.476562 29.183594 L 23.597656 29.183594 C 23.511719 29.378906 23.398438 29.523438 23.257812 29.683594 L 23.140625 29.8125 L 23.050781 29.910156 L 22.929688 29.789062 C 23 29.617188 23 29.617188 23.113281 29.425781 C 23.269531 29.316406 23.269531 29.316406 23.414062 29.242188 Z M 23.476562 29.183594 " fill-opacity="1" fill-rule="nonzero"/><path fill="#272425" d="M 21.59375 34.285156 C 21.777344 34.292969 21.957031 34.304688 22.140625 34.347656 C 22.265625 34.464844 22.265625 34.464844 22.320312 34.589844 L 22.320312 34.710938 C 22.140625 34.671875 21.988281 34.609375 21.820312 34.523438 L 21.691406 34.457031 L 21.59375 34.40625 Z M 21.59375 34.285156 " fill-opacity="1" fill-rule="nonzero"/><path fill="#2b2829" d="M 31.375 23.046875 L 31.3125 23.230469 C 31.175781 23.324219 31.175781 23.324219 31.003906 23.421875 L 30.835938 23.519531 L 30.707031 23.59375 L 30.585938 23.472656 C 30.804688 23.226562 31.035156 23.046875 31.375 23.046875 " fill-opacity="1" fill-rule="nonzero"/><path fill="#717370" d="M 25.96875 27.722656 L 25.96875 27.84375 C 25.839844 27.933594 25.710938 28.015625 25.578125 28.097656 L 25.46875 28.164062 C 25.375 28.222656 25.277344 28.277344 25.175781 28.332031 L 25.054688 28.332031 L 25.117188 28.148438 C 25.277344 28.039062 25.277344 28.039062 25.476562 27.925781 L 25.675781 27.8125 C 25.847656 27.722656 25.847656 27.722656 25.96875 27.722656 " fill-opacity="1" fill-rule="nonzero"/><path fill="#121112" d="M 24.628906 26.207031 L 24.933594 26.265625 C 24.859375 26.476562 24.773438 26.640625 24.628906 26.8125 L 24.570312 26.753906 C 24.554688 26.355469 24.554688 26.355469 24.628906 26.207031 " fill-opacity="1" fill-rule="nonzero"/><path fill="#252223" d="M 20.316406 34.46875 L 20.5 34.46875 C 20.523438 34.589844 20.542969 34.710938 20.558594 34.832031 L 20.5 34.953125 L 20.257812 34.894531 C 20.21875 34.78125 20.21875 34.78125 20.195312 34.648438 Z M 20.316406 34.46875 " fill-opacity="1" fill-rule="nonzero"/><path fill="#393536" d="M 24.328125 28.390625 L 24.507812 28.453125 L 24.628906 28.636719 L 24.085938 28.878906 L 23.960938 28.695312 L 24.078125 28.648438 C 24.222656 28.578125 24.222656 28.578125 24.328125 28.390625 " fill-opacity="1" fill-rule="nonzero"/><path fill="#717370" d="M 38.421875 8.285156 L 38.542969 8.40625 C 38.449219 8.464844 38.351562 8.523438 38.257812 8.585938 L 38.097656 8.683594 C 37.9375 8.769531 37.808594 8.804688 37.632812 8.832031 C 37.851562 8.574219 38.125 8.4375 38.421875 8.285156 " fill-opacity="1" fill-rule="nonzero"/><path fill="#111012" d="M 18.3125 47.773438 C 18.273438 47.882812 18.273438 47.882812 18.191406 48.015625 C 18.03125 48.105469 18.03125 48.105469 17.847656 48.183594 L 17.664062 48.261719 L 17.523438 48.316406 L 17.460938 48.195312 C 17.582031 48.125 17.699219 48.054688 17.820312 47.984375 L 18.019531 47.863281 C 18.191406 47.773438 18.191406 47.773438 18.3125 47.773438 " fill-opacity="1" fill-rule="nonzero"/><path fill="#151415" d="M 23.839844 31.792969 L 23.839844 31.914062 L 22.808594 32.402344 L 22.746094 32.28125 C 22.90625 32.199219 23.066406 32.117188 23.226562 32.039062 L 23.363281 31.96875 L 23.496094 31.902344 L 23.617188 31.839844 C 23.71875 31.792969 23.71875 31.792969 23.839844 31.792969 " fill-opacity="1" fill-rule="nonzero"/><path fill="#121112" d="M 40.242188 3.667969 C 40.335938 3.671875 40.429688 3.683594 40.519531 3.695312 L 40.671875 3.710938 L 40.789062 3.726562 L 40.789062 3.972656 L 40.242188 3.910156 L 40.183594 3.726562 Z M 40.242188 3.667969 " fill-opacity="1" fill-rule="nonzero"/><path fill="#717370" d="M 35.871094 12.050781 L 36.050781 12.113281 C 35.882812 12.246094 35.710938 12.355469 35.519531 12.457031 L 35.375 12.539062 L 35.261719 12.597656 L 35.140625 12.476562 C 35.257812 12.402344 35.375 12.332031 35.492188 12.257812 L 35.691406 12.136719 Z M 35.871094 12.050781 " fill-opacity="1" fill-rule="nonzero"/><path fill="#272425" d="M 34.777344 20.25 L 34.714844 20.433594 C 34.578125 20.519531 34.578125 20.519531 34.40625 20.597656 C 34.351562 20.625 34.296875 20.652344 34.238281 20.679688 L 34.109375 20.738281 L 33.984375 20.617188 C 34.09375 20.554688 34.203125 20.496094 34.3125 20.433594 L 34.496094 20.332031 C 34.65625 20.25 34.65625 20.25 34.777344 20.25 " fill-opacity="1" fill-rule="nonzero"/><path fill="#121112" d="M 22.199219 30.945312 L 22.320312 31.003906 C 22.28125 31.257812 22.148438 31.453125 22.019531 31.671875 L 21.898438 31.550781 C 21.917969 31.421875 21.917969 31.421875 21.957031 31.308594 L 22.078125 31.308594 Z M 22.199219 30.945312 " fill-opacity="1" fill-rule="nonzero"/><path fill="#050623" d="M 35.566406 9.679688 L 35.6875 9.679688 C 35.597656 9.960938 35.453125 10.132812 35.261719 10.347656 L 35.140625 10.289062 C 35.242188 10.046875 35.390625 9.871094 35.566406 9.679688 " fill-opacity="1" fill-rule="nonzero"/><path fill="#151415" d="M 22.992188 35.257812 C 23.136719 35.300781 23.136719 35.300781 23.292969 35.378906 C 23.34375 35.507812 23.34375 35.507812 23.355469 35.621094 L 22.929688 35.5625 L 22.867188 35.378906 L 22.992188 35.378906 Z M 22.992188 35.257812 " fill-opacity="1" fill-rule="nonzero"/><path fill="#393536" d="M 24.691406 30.761719 L 24.875 30.824219 C 24.679688 30.984375 24.492188 31.136719 24.265625 31.246094 L 24.085938 31.1875 C 24.179688 31.113281 24.277344 31.042969 24.375 30.96875 L 24.539062 30.847656 Z M 24.691406 30.761719 " fill-opacity="1" fill-rule="nonzero"/><path fill="#050623" d="M 36.417969 8.527344 L 36.539062 8.527344 C 36.453125 8.769531 36.339844 8.941406 36.171875 9.132812 L 35.992188 9.074219 C 36.058594 8.980469 36.128906 8.890625 36.195312 8.800781 L 36.3125 8.648438 Z M 36.417969 8.527344 " fill-opacity="1" fill-rule="nonzero"/><path fill="#393536" d="M 25.480469 28.453125 L 25.601562 28.574219 C 25.535156 28.625 25.46875 28.675781 25.402344 28.726562 L 25.289062 28.8125 L 25.175781 28.878906 L 24.996094 28.878906 L 25.054688 28.695312 C 25.191406 28.597656 25.335938 28.53125 25.480469 28.453125 " fill-opacity="1" fill-rule="nonzero"/><path fill="#272425" d="M 35.203125 19.097656 L 35.382812 19.160156 C 35.308594 19.222656 35.230469 19.28125 35.152344 19.34375 L 35.023438 19.449219 L 34.898438 19.523438 L 34.714844 19.460938 C 34.863281 19.300781 34.992188 19.171875 35.203125 19.097656 " fill-opacity="1" fill-rule="nonzero"/><path fill="#393536" d="M 31.433594 18.066406 L 31.617188 18.125 C 31.519531 18.1875 31.417969 18.246094 31.320312 18.308594 L 31.152344 18.410156 C 31.007812 18.488281 31.007812 18.488281 30.886719 18.488281 L 30.886719 18.367188 C 30.976562 18.316406 31.0625 18.265625 31.148438 18.214844 L 31.296875 18.125 Z M 21.230469 36.289062 L 21.351562 36.410156 C 21.1875 36.546875 21.066406 36.648438 20.863281 36.714844 L 20.742188 36.59375 Z M 21.230469 36.289062 " fill-opacity="1" fill-rule="nonzero"/><path fill="#717370" d="M 20.257812 37.871094 L 20.378906 37.871094 C 20.3125 38.042969 20.246094 38.125 20.105469 38.25 L 19.953125 38.355469 L 19.832031 38.355469 C 19.898438 38.183594 19.964844 38.101562 20.105469 37.976562 Z M 23.660156 31.308594 L 23.902344 31.367188 L 23.292969 31.671875 L 23.292969 31.492188 C 23.460938 31.394531 23.460938 31.394531 23.660156 31.308594 " fill-opacity="1" fill-rule="nonzero"/><path fill="#3d3a3b" d="M 35.019531 12.535156 C 35.164062 12.550781 35.164062 12.550781 35.261719 12.597656 C 35.09375 12.722656 35.09375 12.722656 34.898438 12.839844 C 34.753906 12.824219 34.753906 12.824219 34.65625 12.78125 C 34.820312 12.65625 34.820312 12.65625 35.019531 12.535156 " fill-opacity="1" fill-rule="nonzero"/><path fill="#121112" d="M 34.53125 10.957031 L 34.714844 11.019531 L 34.410156 11.441406 L 34.230469 11.320312 L 34.230469 11.199219 L 34.410156 11.199219 Z M 34.53125 10.957031 " fill-opacity="1" fill-rule="nonzero"/><path fill="#050832" d="M 13.816406 49.410156 L 13.9375 49.59375 L 13.757812 49.835938 L 13.9375 49.835938 L 13.878906 50.019531 L 13.636719 49.957031 C 13.667969 49.753906 13.71875 49.59375 13.816406 49.410156 " fill-opacity="1" fill-rule="nonzero"/><path fill="#121112" d="M 40.972656 3.972656 C 41.171875 3.988281 41.171875 3.988281 41.398438 4.03125 C 41.515625 4.125 41.515625 4.125 41.578125 4.214844 L 41.09375 4.152344 L 41.09375 4.03125 Z M 40.972656 3.972656 " fill-opacity="1" fill-rule="nonzero"/><path fill="#383435" d="M 30.21875 24.867188 L 30.21875 24.992188 C 30.097656 25.089844 30.097656 25.089844 29.976562 25.171875 L 29.734375 25.050781 C 30.015625 24.867188 30.015625 24.867188 30.21875 24.867188 " fill-opacity="1" fill-rule="nonzero"/><path fill="#121112" d="M 40.121094 4.699219 L 40.242188 4.820312 L 40.121094 4.820312 L 40.105469 4.960938 L 40.0625 5.125 C 39.9375 5.234375 39.9375 5.234375 39.816406 5.308594 C 39.886719 5.070312 39.960938 4.890625 40.121094 4.699219 M 36.839844 7.191406 L 37.023438 7.371094 C 36.878906 7.46875 36.878906 7.46875 36.71875 7.554688 L 36.597656 7.496094 Z M 36.839844 7.191406 " fill-opacity="1" fill-rule="nonzero"/><path fill="#050623" d="M 21.472656 34.589844 C 21.625 34.730469 21.707031 34.8125 21.777344 35.015625 L 21.410156 34.894531 Z M 21.472656 34.589844 " fill-opacity="1" fill-rule="nonzero"/><path fill="#121112" d="M 21.835938 31.671875 L 21.957031 31.671875 C 21.910156 31.851562 21.910156 31.851562 21.835938 32.039062 L 21.652344 32.097656 C 21.769531 31.742188 21.769531 31.742188 21.835938 31.671875 " fill-opacity="1" fill-rule="nonzero"/><path fill="#717370" d="M 24.023438 30.457031 L 24.023438 30.578125 C 23.882812 30.679688 23.882812 30.679688 23.71875 30.761719 L 23.539062 30.761719 L 23.539062 30.640625 C 23.714844 30.515625 23.804688 30.457031 24.023438 30.457031 M 19.34375 39.386719 L 19.46875 39.449219 C 19.367188 39.550781 19.265625 39.652344 19.164062 39.753906 L 19.042969 39.753906 C 19.089844 39.640625 19.089844 39.640625 19.164062 39.507812 Z M 19.34375 39.386719 " fill-opacity="1" fill-rule="nonzero"/><path fill="#0b0e35" d="M 30.949219 17.519531 L 31.132812 17.578125 L 31.070312 17.820312 L 30.886719 17.820312 L 30.828125 17.640625 Z M 30.949219 17.519531 " fill-opacity="1" fill-rule="nonzero"/><path fill="#121112" d="M 37.386719 7.25 L 37.507812 7.25 C 37.492188 7.367188 37.492188 7.367188 37.449219 7.496094 L 37.265625 7.617188 L 37.265625 7.371094 Z M 37.386719 7.25 " fill-opacity="1" fill-rule="nonzero"/><path fill="#272425" d="M 42.429688 4.519531 L 42.550781 4.519531 C 42.589844 4.691406 42.589844 4.691406 42.613281 4.882812 L 42.492188 5.003906 L 42.371094 4.882812 L 42.492188 4.882812 Z M 42.429688 4.519531 " fill-opacity="1" fill-rule="nonzero"/><path fill="#0f0f15" d="M 38.96875 3.789062 L 39.089844 3.847656 C 39.039062 3.96875 39.039062 3.96875 38.96875 4.09375 L 38.785156 4.152344 L 38.785156 3.972656 C 38.875 3.867188 38.875 3.867188 38.96875 3.789062 " fill-opacity="1" fill-rule="nonzero"/></svg>