<svg xmlns="http://www.w3.org/2000/svg" xmlns:xlink="http://www.w3.org/1999/xlink" width="72" zoomAndPan="magnify" viewBox="0 0 54 54" height="72" preserveAspectRatio="xMidYMid meet" version="1.0"><path fill="#000000" d="M 12.273438 2.007812 C 12.203125 2.054688 12.035156 2.09375 11.90625 2.09375 C 11.773438 2.09375 11.554688 2.144531 11.421875 2.203125 C 11.054688 2.363281 10.339844 2.984375 10.191406 3.269531 C 9.734375 4.148438 9.558594 5.351562 9.617188 7.160156 C 9.636719 7.769531 9.578125 10.050781 9.496094 11.785156 C 9.382812 14.195312 9.300781 26.023438 9.382812 28.519531 C 9.433594 29.988281 9.402344 34.863281 9.339844 36.140625 C 9.253906 37.824219 9.214844 38.527344 9.148438 39.4375 C 9.117188 39.867188 9.125 40.238281 9.164062 40.261719 C 9.207031 40.289062 9.222656 40.460938 9.207031 40.644531 C 9.164062 41.03125 9.183594 45.03125 9.226562 45.5625 C 9.242188 45.757812 9.324219 46.234375 9.40625 46.621094 C 9.601562 47.546875 9.648438 47.960938 9.652344 48.886719 C 9.652344 49.636719 9.660156 49.660156 9.96875 50.019531 C 10.296875 50.402344 10.765625 50.660156 10.980469 50.578125 C 11.050781 50.550781 11.167969 50.589844 11.242188 50.664062 C 11.316406 50.742188 11.609375 50.824219 11.894531 50.851562 C 12.175781 50.878906 12.546875 50.9375 12.714844 50.980469 C 12.886719 51.019531 13.460938 51.105469 13.992188 51.164062 C 14.867188 51.261719 15.597656 51.308594 17.515625 51.375 C 17.855469 51.386719 18.621094 51.445312 19.222656 51.5 C 19.820312 51.558594 20.554688 51.605469 20.851562 51.605469 L 21.921875 51.601562 C 22.65625 51.597656 23.332031 51.328125 23.839844 50.835938 C 24.144531 50.539062 24.253906 50.363281 24.253906 50.175781 C 24.253906 50.039062 24.296875 49.933594 24.347656 49.945312 C 24.496094 49.980469 24.78125 48.992188 24.660156 48.871094 C 24.589844 48.796875 24.597656 48.75 24.683594 48.695312 C 24.777344 48.640625 24.792969 48.488281 24.742188 48.039062 C 24.707031 47.722656 24.644531 47.4375 24.601562 47.410156 C 24.554688 47.382812 24.519531 47.261719 24.519531 47.140625 C 24.519531 47.015625 24.558594 46.941406 24.605469 46.972656 C 24.660156 47.007812 24.695312 46.855469 24.695312 46.582031 C 24.695312 46.292969 24.65625 46.136719 24.589844 46.136719 C 24.507812 46.136719 24.507812 46.113281 24.589844 46.03125 C 24.722656 45.894531 24.726562 45.585938 24.59375 45.453125 C 24.511719 45.375 24.523438 45.335938 24.636719 45.292969 C 24.816406 45.222656 24.820312 44.917969 24.648438 44.6875 C 24.488281 44.480469 24.480469 44.277344 24.628906 44.335938 C 24.753906 44.382812 24.773438 43.820312 24.65625 43.558594 C 24.617188 43.464844 24.628906 43.351562 24.691406 43.277344 C 24.757812 43.195312 24.773438 43.015625 24.738281 42.761719 C 24.65625 42.226562 24.636719 39 24.710938 39 C 24.746094 39 24.769531 38.714844 24.757812 38.363281 C 24.726562 37.011719 24.796875 35.523438 24.902344 35.457031 C 24.976562 35.40625 24.972656 35.371094 24.882812 35.3125 C 24.789062 35.253906 24.78125 35.167969 24.847656 34.9375 C 24.894531 34.773438 24.929688 34.34375 24.917969 33.976562 C 24.90625 33.335938 24.835938 33.058594 24.710938 33.132812 C 24.675781 33.15625 24.644531 33.066406 24.640625 32.9375 C 24.632812 32.808594 24.648438 32.753906 24.667969 32.8125 C 24.769531 33.085938 24.871094 32.878906 24.871094 32.414062 C 24.871094 32.132812 24.917969 31.855469 24.972656 31.800781 C 25.039062 31.734375 25.089844 31.25 25.109375 30.503906 C 25.144531 29.363281 25.136719 29.3125 24.972656 29.3125 C 24.875 29.3125 24.777344 29.363281 24.753906 29.421875 C 24.71875 29.511719 24.707031 29.507812 24.703125 29.421875 C 24.699219 29.359375 24.8125 29.203125 24.957031 29.070312 L 25.222656 28.828125 L 25.257812 26.1875 C 25.277344 24.730469 25.320312 23.480469 25.351562 23.402344 C 25.382812 23.328125 25.363281 23.15625 25.3125 23.019531 C 25.257812 22.875 25.25 22.730469 25.296875 22.671875 C 25.339844 22.617188 25.378906 22.28125 25.386719 21.925781 C 25.390625 21.566406 25.4375 21.222656 25.488281 21.164062 C 25.539062 21.101562 25.574219 20.941406 25.566406 20.800781 C 25.5625 20.660156 25.582031 20.160156 25.617188 19.691406 C 25.65625 19.105469 25.644531 18.832031 25.582031 18.832031 C 25.4375 18.832031 25.46875 18.59375 25.621094 18.535156 C 25.730469 18.492188 25.742188 18.335938 25.703125 17.578125 C 25.671875 17.082031 25.636719 16.097656 25.621094 15.394531 C 25.574219 13.335938 25.472656 11.925781 25.367188 11.792969 C 25.292969 11.699219 25.292969 11.660156 25.378906 11.628906 C 25.582031 11.5625 25.472656 10.816406 25.257812 10.816406 C 25.191406 10.816406 25.136719 10.757812 25.136719 10.683594 C 25.136719 10.609375 25.191406 10.550781 25.257812 10.550781 C 25.359375 10.550781 25.359375 10.464844 25.265625 10.015625 C 25.203125 9.722656 25.175781 9.402344 25.199219 9.308594 C 25.230469 9.199219 25.167969 9.046875 25.035156 8.902344 C 24.863281 8.710938 24.855469 8.683594 24.992188 8.730469 C 25.136719 8.785156 25.148438 8.753906 25.109375 8.460938 C 25.042969 7.996094 24.953125 7.363281 24.929688 7.191406 C 24.917969 7.109375 24.855469 6.980469 24.789062 6.90625 C 24.699219 6.796875 24.699219 6.761719 24.78125 6.761719 C 24.917969 6.761719 24.859375 6.097656 24.617188 4.949219 C 24.417969 3.992188 24.296875 3.75 23.800781 3.277344 C 23.019531 2.539062 20.863281 1.644531 21.050781 2.140625 C 21.125 2.328125 20.863281 2.308594 20.574219 2.101562 C 20.375 1.964844 20.253906 1.945312 19.875 2 C 19.621094 2.035156 19.363281 2.035156 19.304688 1.996094 C 19.148438 1.902344 16.300781 1.929688 16.171875 2.03125 C 16.113281 2.078125 15.972656 2.089844 15.863281 2.054688 C 15.542969 1.953125 12.421875 1.914062 12.273438 2.007812 M 39.480469 2.046875 C 39.449219 2.082031 38.972656 2.125 38.421875 2.144531 C 37.871094 2.164062 37.363281 2.191406 37.289062 2.203125 C 37.21875 2.214844 36.582031 2.191406 35.875 2.152344 C 34.8125 2.09375 34.496094 2.105469 34.042969 2.222656 C 32.882812 2.523438 32.292969 3.089844 31.890625 4.28125 C 31.683594 4.902344 31.660156 5.117188 31.613281 6.941406 C 31.566406 8.847656 31.53125 9.695312 31.4375 11.210938 C 31.410156 11.597656 31.371094 12.6875 31.34375 13.632812 C 31.316406 14.578125 31.273438 15.90625 31.25 16.585938 C 31.222656 17.261719 31.210938 17.917969 31.21875 18.039062 C 31.226562 18.160156 31.226562 18.316406 31.222656 18.390625 C 31.199219 18.664062 31.105469 22.324219 31.113281 22.617188 C 31.121094 22.789062 31.140625 23.582031 31.15625 24.378906 C 31.1875 25.773438 31.269531 28.617188 31.347656 30.855469 C 31.367188 31.433594 31.378906 33.972656 31.371094 36.492188 C 31.363281 39.011719 31.359375 41.726562 31.355469 42.523438 C 31.355469 44.003906 31.4375 46.300781 31.507812 46.621094 C 31.527344 46.71875 31.59375 47.292969 31.648438 47.898438 C 31.8125 49.5625 32.015625 50.140625 32.539062 50.410156 C 32.964844 50.628906 34.019531 50.953125 34.648438 51.058594 C 35.59375 51.214844 36.523438 51.332031 36.804688 51.335938 C 37.582031 51.335938 38.710938 51.402344 38.761719 51.453125 C 38.847656 51.539062 39.308594 51.519531 39.492188 51.421875 C 39.601562 51.363281 39.675781 51.363281 39.710938 51.421875 C 39.742188 51.46875 39.90625 51.507812 40.074219 51.507812 C 40.417969 51.507812 40.757812 51.367188 40.683594 51.25 C 40.660156 51.210938 40.71875 51.15625 40.816406 51.132812 C 40.910156 51.105469 40.988281 51.121094 40.988281 51.164062 C 40.988281 51.210938 40.953125 51.246094 40.90625 51.246094 C 40.859375 51.246094 40.84375 51.304688 40.871094 51.375 C 40.910156 51.480469 41.089844 51.503906 41.769531 51.496094 C 42.238281 51.488281 42.71875 51.445312 42.839844 51.402344 C 43.054688 51.320312 43.054688 51.316406 42.890625 51.195312 C 42.726562 51.078125 42.734375 51.070312 43.007812 51.070312 C 43.230469 51.070312 43.285156 51.101562 43.25 51.199219 C 43.21875 51.273438 43.265625 51.367188 43.347656 51.410156 C 43.539062 51.511719 44.441406 51.472656 44.914062 51.34375 C 45.335938 51.230469 45.667969 50.992188 45.503906 50.921875 C 45.28125 50.832031 45.402344 50.722656 45.628906 50.808594 C 45.820312 50.882812 45.894531 50.867188 46.066406 50.707031 C 46.175781 50.601562 46.25 50.484375 46.226562 50.449219 C 46.167969 50.351562 46.277344 50.101562 46.382812 50.101562 C 46.429688 50.101562 46.445312 50.160156 46.417969 50.230469 C 46.332031 50.460938 46.441406 50.375 46.582031 50.105469 C 46.652344 49.964844 46.6875 49.78125 46.65625 49.699219 C 46.613281 49.582031 46.636719 49.5625 46.78125 49.609375 C 47.027344 49.6875 47.132812 49.402344 46.917969 49.230469 C 46.769531 49.113281 46.769531 49.109375 46.917969 49.160156 C 47.148438 49.242188 47.242188 48.898438 47.25 47.957031 C 47.253906 46.792969 47.25 46.722656 47.171875 46.644531 C 47.132812 46.605469 47.128906 46.367188 47.164062 46.113281 C 47.28125 45.285156 47.257812 44.550781 47.113281 44.496094 C 46.957031 44.4375 46.921875 43.628906 47.066406 43.539062 C 47.164062 43.480469 47.191406 42.363281 47.101562 42.136719 C 47.074219 42.058594 46.992188 41.996094 46.925781 41.996094 C 46.859375 41.996094 46.804688 41.914062 46.804688 41.816406 C 46.804688 41.714844 46.742188 41.519531 46.667969 41.375 C 46.59375 41.234375 46.570312 41.117188 46.613281 41.117188 C 46.660156 41.117188 46.71875 41.203125 46.75 41.3125 C 46.800781 41.503906 46.808594 41.5 46.992188 41.222656 C 47.144531 40.984375 47.167969 40.855469 47.117188 40.515625 C 47.085938 40.289062 47.066406 39.714844 47.070312 39.238281 C 47.074219 38.683594 47.042969 38.328125 46.976562 38.246094 C 46.898438 38.15625 46.894531 38.089844 46.964844 38.003906 C 47.027344 37.929688 47.039062 37.734375 46.996094 37.453125 C 46.960938 37.214844 46.9375 36.503906 46.945312 35.875 C 46.964844 34.515625 46.929688 34.246094 46.730469 34.238281 C 46.636719 34.234375 46.625 34.214844 46.691406 34.1875 C 46.816406 34.136719 46.84375 33.664062 46.726562 33.589844 C 46.621094 33.523438 46.539062 33.1875 46.628906 33.1875 C 46.667969 33.1875 46.71875 33.257812 46.742188 33.34375 C 46.765625 33.425781 46.789062 33.351562 46.792969 33.171875 C 46.804688 32.769531 46.734375 32.570312 46.574219 32.570312 C 46.433594 32.570312 46.410156 32.429688 46.539062 32.351562 C 46.585938 32.320312 46.628906 32.347656 46.628906 32.40625 C 46.628906 32.484375 46.65625 32.488281 46.71875 32.429688 C 46.765625 32.378906 46.84375 32.007812 46.890625 31.601562 C 46.960938 30.992188 46.953125 30.839844 46.847656 30.722656 C 46.753906 30.617188 46.742188 30.550781 46.816406 30.480469 C 46.882812 30.414062 46.890625 30.097656 46.84375 29.429688 C 46.804688 28.90625 46.777344 28.449219 46.785156 28.417969 C 46.792969 28.386719 46.816406 27.945312 46.835938 27.433594 C 46.863281 26.78125 46.84375 26.488281 46.773438 26.453125 C 46.703125 26.421875 46.699219 26.390625 46.765625 26.359375 C 46.832031 26.328125 46.847656 25.738281 46.824219 24.511719 C 46.800781 23.382812 46.820312 22.707031 46.875 22.707031 C 47.070312 22.707031 47.171875 21.453125 46.988281 21.273438 C 46.871094 21.152344 46.859375 20.449219 46.972656 20.375 C 47.019531 20.347656 47.054688 19.464844 47.050781 18.296875 C 47.046875 16.632812 47.023438 16.273438 46.925781 16.3125 C 46.71875 16.390625 46.691406 16.179688 46.882812 16.003906 C 47.117188 15.78125 47.125 15.480469 46.890625 15.421875 C 46.683594 15.367188 46.664062 15.257812 46.847656 15.152344 C 46.945312 15.097656 46.988281 14.890625 47.007812 14.355469 C 47.019531 13.941406 47.078125 13.589844 47.136719 13.527344 C 47.277344 13.390625 47.273438 12.867188 47.132812 12.816406 C 47.046875 12.785156 47.046875 12.738281 47.128906 12.597656 C 47.265625 12.367188 47.269531 11.039062 47.136719 10.667969 C 47.0625 10.460938 47.0625 10.355469 47.136719 10.265625 C 47.199219 10.191406 47.222656 9.867188 47.199219 9.375 C 47.15625 8.351562 47.089844 8.089844 46.859375 7.996094 C 46.675781 7.921875 46.675781 7.917969 46.882812 7.914062 C 47.113281 7.90625 47.113281 8.097656 46.910156 5.832031 C 46.8125 4.75 46.359375 3.800781 45.703125 3.308594 C 45.460938 3.125 45.195312 2.976562 45.113281 2.976562 C 45.03125 2.976562 44.925781 2.910156 44.878906 2.824219 C 44.832031 2.742188 44.691406 2.671875 44.570312 2.664062 C 44.449219 2.660156 44.296875 2.613281 44.234375 2.5625 C 44.011719 2.386719 43.457031 2.25 43.34375 2.34375 C 43.269531 2.40625 43.183594 2.394531 43.066406 2.308594 C 42.867188 2.164062 42.523438 2.144531 42.441406 2.273438 C 42.414062 2.320312 42.347656 2.359375 42.300781 2.359375 C 42.253906 2.359375 42.234375 2.324219 42.261719 2.28125 C 42.289062 2.238281 42.199219 2.179688 42.066406 2.148438 C 41.691406 2.0625 39.542969 1.980469 39.480469 2.046875 M 13.066406 4.480469 C 12.367188 4.566406 12.300781 4.613281 12.097656 5.164062 C 11.933594 5.59375 11.917969 5.753906 11.980469 6.410156 C 12.046875 7.179688 12.046875 9.054688 11.972656 10.769531 C 11.898438 12.445312 11.835938 15.558594 11.84375 17.023438 C 11.84375 17.800781 11.847656 19.050781 11.847656 19.800781 C 11.851562 21.386719 11.847656 21.195312 11.878906 22.664062 C 11.902344 23.832031 11.992188 26.375 12.058594 27.929688 C 12.089844 28.644531 12.074219 28.800781 11.960938 28.84375 C 11.839844 28.886719 11.839844 28.910156 11.960938 29.042969 C 12.132812 29.230469 12.179688 30.585938 12.023438 30.742188 C 11.894531 30.875 11.890625 31.015625 12.019531 30.9375 C 12.148438 30.859375 12.058594 31.835938 11.921875 32 C 11.871094 32.0625 11.847656 32.207031 11.871094 32.320312 C 11.894531 32.433594 11.9375 32.699219 11.960938 32.90625 C 11.988281 33.117188 12.03125 33.328125 12.0625 33.378906 C 12.097656 33.429688 12.066406 33.507812 12 33.550781 C 11.910156 33.609375 11.90625 33.644531 11.980469 33.695312 C 12.050781 33.742188 12.085938 34.203125 12.089844 35.171875 C 12.09375 35.945312 12.097656 36.660156 12.101562 36.753906 C 12.113281 37.152344 11.914062 39.761719 11.867188 39.882812 C 11.773438 40.117188 11.730469 41.652344 11.816406 41.761719 C 11.863281 41.816406 11.921875 42.285156 11.949219 42.800781 C 11.992188 43.5625 11.972656 43.769531 11.863281 43.929688 C 11.703125 44.15625 11.753906 44.917969 11.9375 45.140625 C 12.011719 45.230469 12.050781 45.625 12.050781 46.34375 C 12.054688 47.074219 12.089844 47.449219 12.164062 47.53125 C 12.226562 47.59375 12.273438 47.785156 12.273438 47.949219 C 12.273438 48.292969 12.335938 48.332031 12.898438 48.375 C 13.113281 48.390625 13.648438 48.453125 14.089844 48.507812 C 14.894531 48.613281 16.007812 48.699219 16.414062 48.6875 C 16.535156 48.683594 16.695312 48.675781 16.765625 48.675781 C 16.839844 48.671875 17.554688 48.699219 18.351562 48.734375 C 20.988281 48.84375 21.964844 48.839844 22.074219 48.707031 C 22.128906 48.640625 22.167969 48.402344 22.164062 48.175781 C 22.015625 42.3125 21.988281 37.148438 22.089844 35.125 C 22.160156 33.726562 22.1875 33.160156 22.269531 31.25 C 22.363281 29.074219 22.40625 28.144531 22.441406 27.550781 C 22.460938 27.234375 22.503906 26.304688 22.539062 25.480469 C 22.574219 24.65625 22.613281 23.824219 22.625 23.632812 C 22.984375 18.523438 23.089844 14.914062 22.9375 13.070312 C 22.890625 12.492188 22.867188 11.996094 22.886719 11.964844 C 22.90625 11.933594 22.863281 11.453125 22.789062 10.898438 C 22.65625 9.898438 22.628906 9.640625 22.546875 8.703125 C 22.523438 8.433594 22.484375 7.980469 22.453125 7.6875 C 22.425781 7.398438 22.378906 6.921875 22.351562 6.632812 C 22.257812 5.652344 22.238281 5.539062 22.101562 5.277344 C 21.96875 5.019531 21.878906 4.976562 21.039062 4.753906 C 20.425781 4.59375 18.46875 4.5 16.242188 4.53125 C 15.058594 4.546875 13.96875 4.527344 13.820312 4.492188 C 13.671875 4.453125 13.335938 4.449219 13.066406 4.480469 M 39.605469 4.632812 C 39.542969 4.671875 38.910156 4.714844 38.195312 4.730469 C 36.496094 4.765625 36.679688 4.769531 35.570312 4.691406 C 34.613281 4.625 34.59375 4.628906 34.339844 4.847656 L 34.078125 5.074219 L 34.058594 7.21875 C 34.046875 8.398438 34.019531 9.601562 33.996094 9.890625 C 33.917969 10.949219 33.828125 12.8125 33.832031 13.371094 C 33.835938 13.683594 33.792969 13.996094 33.742188 14.058594 C 33.683594 14.128906 33.679688 14.199219 33.730469 14.234375 C 33.816406 14.296875 33.847656 15.925781 33.765625 15.925781 C 33.738281 15.925781 33.742188 16.171875 33.773438 16.476562 C 33.804688 16.777344 33.792969 17.070312 33.75 17.128906 C 33.703125 17.1875 33.703125 17.25 33.753906 17.28125 C 33.804688 17.3125 33.820312 18.195312 33.796875 19.511719 C 33.726562 23.644531 33.722656 26.140625 33.792969 26.140625 C 33.832031 26.140625 33.855469 26.332031 33.84375 26.566406 C 33.832031 26.800781 33.859375 27.042969 33.898438 27.109375 C 33.945312 27.183594 33.910156 27.269531 33.808594 27.34375 C 33.71875 27.410156 33.6875 27.460938 33.738281 27.460938 C 33.863281 27.460938 33.957031 28.441406 33.847656 28.574219 C 33.796875 28.632812 33.792969 28.703125 33.835938 28.730469 C 33.878906 28.753906 33.917969 29.113281 33.921875 29.527344 C 33.929688 30.144531 33.90625 30.292969 33.785156 30.367188 C 33.65625 30.441406 33.660156 30.453125 33.832031 30.453125 C 34.019531 30.457031 34.03125 30.488281 34.023438 31.148438 C 34.015625 31.863281 33.945312 32.109375 33.777344 32.003906 C 33.722656 31.96875 33.679688 32.003906 33.679688 32.082031 C 33.679688 32.15625 33.734375 32.21875 33.800781 32.21875 C 33.976562 32.21875 34.023438 32.492188 33.996094 33.351562 C 33.984375 33.769531 34.007812 34.164062 34.054688 34.222656 C 34.105469 34.289062 34.113281 34.570312 34.070312 34.925781 C 34.03125 35.253906 34.003906 35.542969 34.007812 35.566406 C 34.085938 36.089844 34.09375 36.730469 34.027344 37.089844 C 33.980469 37.359375 33.976562 37.742188 34.019531 38.011719 C 34.0625 38.285156 34.0625 38.5 34.015625 38.527344 C 33.96875 38.554688 33.972656 38.625 34.027344 38.6875 C 34.078125 38.746094 34.097656 38.820312 34.070312 38.84375 C 34.042969 38.871094 34.015625 39.382812 34.003906 39.984375 C 33.992188 40.875 33.957031 41.125 33.828125 41.324219 C 33.667969 41.566406 33.667969 41.570312 33.855469 41.46875 C 34.09375 41.339844 34.15625 41.394531 34.066406 41.660156 C 33.96875 41.949219 33.964844 41.953125 33.953125 42.386719 C 33.949219 42.609375 33.882812 42.835938 33.804688 42.914062 C 33.679688 43.039062 33.683594 43.054688 33.835938 43.054688 C 33.992188 43.054688 34.003906 43.132812 33.996094 44.507812 C 33.992188 45.304688 33.953125 45.960938 33.910156 45.960938 C 33.867188 45.960938 33.867188 46.007812 33.910156 46.070312 C 33.953125 46.128906 33.988281 46.257812 33.984375 46.355469 C 33.984375 46.453125 34.019531 46.558594 34.0625 46.589844 C 34.105469 46.621094 34.148438 46.964844 34.152344 47.351562 C 34.160156 47.742188 34.1875 48.082031 34.214844 48.109375 C 34.457031 48.351562 37.660156 48.625 40.019531 48.609375 C 43.742188 48.578125 44.203125 48.539062 44.292969 48.246094 C 44.324219 48.15625 44.324219 47.457031 44.292969 46.691406 C 44.136719 42.535156 44.082031 32.625 44.191406 28.035156 C 44.253906 25.425781 44.277344 22.578125 44.261719 20.546875 C 44.238281 17.964844 44.246094 16.933594 44.304688 16.054688 C 44.324219 15.71875 44.359375 15.140625 44.378906 14.777344 C 44.398438 14.414062 44.4375 13.78125 44.464844 13.371094 C 44.488281 12.957031 44.523438 11.96875 44.539062 11.167969 C 44.554688 10.367188 44.601562 9.640625 44.640625 9.550781 C 44.683594 9.460938 44.667969 9.191406 44.609375 8.921875 C 44.550781 8.664062 44.507812 8.140625 44.515625 7.761719 C 44.527344 6.835938 44.390625 5.871094 44.203125 5.582031 C 44.117188 5.453125 43.933594 5.289062 43.796875 5.214844 C 43.402344 5.011719 41.828125 4.730469 40.863281 4.6875 C 40.378906 4.667969 39.921875 4.632812 39.847656 4.609375 C 39.773438 4.585938 39.664062 4.597656 39.605469 4.632812 M 46.59375 20.90625 C 46.511719 21.121094 46.527344 21.386719 46.628906 21.386719 C 46.675781 21.386719 46.714844 21.246094 46.714844 21.078125 C 46.714844 20.742188 46.675781 20.6875 46.59375 20.90625 M 25.136719 21.476562 C 25.136719 21.625 25.167969 21.726562 25.210938 21.699219 C 25.28125 21.65625 25.242188 21.210938 25.167969 21.210938 C 25.152344 21.210938 25.136719 21.332031 25.136719 21.476562 M 11.597656 40.761719 C 11.597656 41.03125 11.613281 41.140625 11.632812 41.003906 C 11.652344 40.871094 11.652344 40.652344 11.632812 40.519531 C 11.613281 40.386719 11.597656 40.496094 11.597656 40.761719 M 46.632812 43.957031 C 46.628906 44.296875 46.664062 44.550781 46.714844 44.550781 C 46.820312 44.550781 46.820312 43.785156 46.714844 43.539062 C 46.664062 43.414062 46.636719 43.542969 46.632812 43.957031 " fill-opacity="1" fill-rule="evenodd"/></svg>