<svg width="72" height="72" viewBox="0 0 72 72" fill="none" xmlns="http://www.w3.org/2000/svg">
<g clip-path="url(#clip0_3007_1517)">
<path fill-rule="evenodd" clip-rule="evenodd" d="M41.0139 38.9901C41.4639 36.2601 41.9439 33.5001 42.2439 30.7401H42.8739C43.1139 30.7401 44.0439 31.1001 45.0639 31.3101C47.0439 30.7101 46.9539 29.8102 45.5139 28.7302C44.523 28.5104 43.5219 28.3402 42.5139 28.2202C42.6762 25.8875 42.9564 23.5646 43.3539 21.2602C43.1739 18.2602 40.9839 18.7702 40.1439 21.2602C40.161 21.4499 40.161 21.6406 40.1439 21.8302C39.7839 23.8402 39.4239 25.8802 39.1239 27.8302C35.7339 27.6502 36.3639 27.8302 28.9839 27.8302C28.9839 27.2302 28.2639 23.8702 27.8439 21.4702C27.4239 19.0702 25.4739 18.9802 25.2939 21.4702C25.2939 22.9702 25.2939 24.8302 25.5339 27.8302C23.5239 27.8302 22.8939 27.8302 16.8339 28.3102C16.5134 26.0834 16.0524 23.879 15.4539 21.7102C14.2539 19.5202 12.0039 20.2702 12.0039 22.0102C12.5139 24.7102 12.2439 23.7202 13.0539 28.8202C11.4725 29.0534 9.86538 29.0534 8.28393 28.8202C5.28393 29.0902 4.89393 31.2801 8.91393 31.6401H13.5039C14.2539 36.4101 14.3439 37.1601 14.9139 39.9501C13.2869 40.3389 11.591 40.3389 9.96393 39.9501C8.64393 39.3801 6.06393 42.9501 15.5139 42.3201C15.8666 43.6722 16.3697 44.9805 17.0139 46.2201C17.1584 46.4433 17.38 46.605 17.6363 46.6749C17.8926 46.7448 18.1657 46.7178 18.4033 46.599C18.6409 46.4802 18.8264 46.278 18.9243 46.0308C19.0222 45.7839 19.0256 45.5097 18.9339 45.2601C18.5111 44.3037 18.2186 43.2945 18.0639 42.2601C20.6139 42.0801 21.8739 42.2601 28.0239 42.0501C28.5266 43.3581 28.8887 44.7156 29.1039 46.1001C29.1039 46.3866 29.2177 46.6614 29.4203 46.8639C29.6228 47.0664 29.8975 47.1801 30.1839 47.1801C30.4704 47.1801 30.7452 47.0664 30.9477 46.8639C31.1502 46.6614 31.2639 46.3866 31.2639 46.1001C31.2525 44.7153 31.0815 43.3359 30.7539 41.9901H37.7139C37.1739 48.7401 41.7339 46.1901 40.1139 44.6001C39.7839 44.2101 40.1139 42.2901 40.3239 41.7801C42.2139 41.5101 42.9339 41.5401 43.8639 41.3601C44.7939 41.1801 45.4239 39.0501 44.2839 38.9601C43.1439 38.8701 42.8139 38.9901 41.0139 38.9901ZM17.7039 39.4401C17.7039 38.5101 17.2239 33.4401 17.0439 31.7301H25.7439C25.9855 34.0395 26.4068 36.3264 27.0039 38.5701C23.8906 38.7108 20.7865 39.0111 17.7039 39.4701V39.4401ZM38.0439 38.9901C35.4939 38.9901 32.7939 38.6601 30.2139 38.5401C30.0639 37.2801 29.4939 32.5401 29.3439 31.4001C33.6639 31.1301 36.0639 30.8301 38.6139 30.7401C38.2539 34.8501 38.0739 38.9901 38.0439 38.9901Z" fill="#0A28BC"/>
<path fill-rule="evenodd" clip-rule="evenodd" d="M68.3769 1.93944C65.0949 1.27211 61.7172 1.22125 58.4163 1.78943C53.6763 3.2595 55.4163 0.13935 50.736 14.93C48.756 22.4304 44.1057 46.5516 44.7357 47.5116C16.5345 47.9616 16.1145 48.5316 8.52411 46.3416C8.73411 45.7416 8.01408 44.1213 7.95408 43.8513C3.93387 25.4005 2.79383 23.7805 3.90387 20.5103C18.0707 18.1546 32.415 17.0303 46.776 17.1502C46.8765 17.2309 46.9917 17.2911 47.1156 17.3273C47.2392 17.3635 47.3688 17.3749 47.4969 17.361C47.6253 17.347 47.7492 17.308 47.8623 17.2461C47.9754 17.1842 48.0753 17.1006 48.156 17.0002C48.2367 16.8997 48.297 16.7843 48.333 16.6606C48.3693 16.5368 48.3807 16.4072 48.3669 16.279C48.3528 16.1509 48.3138 16.0267 48.252 15.9137C48.1899 15.8006 48.1065 15.7009 48.006 15.6201C46.266 14.33 13.6244 15.8601 13.8944 15.8601C9.94053 15.4513 5.94573 15.9647 2.2238 17.3602C-0.926346 18.8002 0.00369908 25.7305 0.633729 29.0007C3.00384 37.851 2.1338 34.341 4.4739 44.4513C4.65393 45.3816 4.68393 47.7216 5.58396 48.5916C10.0542 52.8819 32.5851 49.7616 44.1657 49.7016C43.5357 51.8319 43.2957 53.1219 41.4657 53.6319C39.4707 53.8362 37.4601 53.8362 35.4654 53.6319C26.795 54.0519 18.4546 52.2519 5.46396 53.6319C5.20935 53.6121 4.95723 53.694 4.76313 53.8599C4.56903 54.0261 4.44879 54.2622 4.4289 54.5169C4.40901 54.7716 4.49109 55.0236 4.65705 55.2177C4.82304 55.4118 5.05932 55.5321 5.31396 55.5519C4.31847 55.9464 3.41691 56.5455 2.66755 57.3102C1.91819 58.0752 1.33774 58.9887 0.963744 59.9922C-0.536328 64.1325 3.60387 69.2625 7.77405 70.3428C16.0845 72.4728 22.3847 60.9222 16.0544 56.0319C16.9777 56.0502 17.8992 56.1204 18.8146 56.2419C24.7547 57.2949 30.8103 57.5373 36.8154 56.9619C31.2051 62.3322 36.9954 70.2828 44.2257 69.4725C52.1763 68.5425 51.666 55.8219 44.8557 54.6819C46.866 52.2819 45.996 50.0016 49.176 38.091C51.4596 29.2734 53.2722 20.3403 54.6063 11.3299C56.0463 10.9699 65.7369 11.8699 67.7769 11.7499C68.904 11.5647 69.9348 11.0022 70.7004 10.1545C71.466 9.30675 71.9208 8.22414 71.9907 7.08405C72.0603 5.94393 71.7408 4.81395 71.0841 3.87927C70.4277 2.94457 69.4731 2.2606 68.3769 1.93944ZM14.8244 63.6522C14.4094 64.5732 13.7559 65.3661 12.9317 65.9499C12.1074 66.5334 11.1422 66.8862 10.1359 66.972C9.12963 67.0575 8.11872 66.873 7.20768 66.4368C6.29667 66.0009 5.51859 65.3298 4.95393 64.4925C4.43997 64.029 4.04394 63.45 3.79872 62.8029C3.55347 62.1558 3.46611 61.4598 3.54387 60.7722C3.76713 59.7801 4.30356 58.8861 5.07393 58.2222C10.2642 53.6319 18.0046 57.7122 14.8244 63.6522ZM47.136 60.8322C48.036 69.2325 36.9354 65.8425 37.8954 60.8322C38.6754 56.8119 46.416 54.2019 47.136 60.8322ZM67.4469 8.20974C65.4069 8.47974 58.2963 8.53974 55.0563 8.95977C55.2471 7.39479 55.6095 5.85549 56.1363 4.36956C56.4363 4.81956 58.2063 4.15953 58.9566 4.00953C61.8771 3.97566 64.7844 4.41123 67.5669 5.29959C68.7669 5.65962 68.6169 8.08974 67.4469 8.20974Z" fill="#0A28BC"/>
</g>
<defs>
<clipPath id="clip0_3007_1517">
<rect width="72" height="72" fill="white"/>
</clipPath>
</defs>
</svg>
