<svg xmlns="http://www.w3.org/2000/svg" xmlns:xlink="http://www.w3.org/1999/xlink" width="400" zoomAndPan="magnify" viewBox="0 0 300 30.000001" height="40" preserveAspectRatio="xMidYMid meet" version="1.0"><path fill="#000000" d="M 129.046875 10.640625 C 129.007812 10.683594 123.445312 10.765625 116.695312 10.828125 C 103.089844 10.945312 99.859375 11 96.765625 11.148438 C 95.609375 11.207031 90.046875 11.285156 84.402344 11.324219 C 74.171875 11.394531 58.296875 11.703125 58.082031 11.835938 C 58.019531 11.875 55.101562 11.914062 51.59375 11.921875 C 48.085938 11.929688 44.007812 12.007812 42.527344 12.097656 C 41.046875 12.1875 36.050781 12.289062 31.425781 12.328125 C 26.132812 12.367188 21.523438 12.496094 18.980469 12.667969 C 14.734375 12.957031 12.59375 13.195312 13.683594 13.253906 L 14.273438 13.289062 L 13.597656 13.511719 C 12.953125 13.726562 13.003906 13.738281 14.945312 13.789062 C 17.722656 13.863281 25.117188 13.800781 29.578125 13.664062 C 31.609375 13.601562 35.734375 13.523438 38.742188 13.492188 C 50.132812 13.378906 56.269531 13.242188 56.675781 13.085938 C 56.945312 12.984375 57.207031 12.984375 57.40625 13.089844 C 57.761719 13.28125 66.648438 13.175781 71.789062 12.917969 C 74.808594 12.765625 82.441406 12.625 94.242188 12.503906 C 104.289062 12.402344 109.609375 12.257812 109.714844 12.089844 C 109.785156 11.972656 110.898438 11.9375 113.007812 11.984375 C 114.9375 12.027344 116.269531 11.992188 116.390625 11.890625 C 116.519531 11.785156 116.703125 11.789062 116.917969 11.90625 C 117.203125 12.058594 117.925781 12.089844 121.234375 12.109375 C 121.511719 12.109375 126.054688 12.105469 131.328125 12.09375 C 141.664062 12.078125 154.882812 12.199219 157.058594 12.328125 C 159.308594 12.464844 165.6875 12.589844 170.972656 12.605469 C 173.808594 12.613281 176.015625 12.683594 176.070312 12.773438 C 176.125 12.855469 175.878906 12.929688 175.527344 12.933594 C 174.839844 12.945312 172.878906 13.03125 170.175781 13.175781 C 169.25 13.222656 167.398438 13.304688 166.054688 13.351562 C 164.714844 13.398438 162.597656 13.511719 161.347656 13.597656 C 159.210938 13.746094 157.5625 13.804688 149.320312 14.015625 C 147.472656 14.066406 144.066406 14.175781 141.753906 14.265625 C 129.679688 14.734375 124.0625 14.914062 113.414062 15.1875 C 111.425781 15.238281 107.753906 15.363281 105.257812 15.460938 C 102.761719 15.5625 99.847656 15.667969 98.785156 15.703125 C 97.71875 15.734375 96.621094 15.804688 96.34375 15.851562 C 96.066406 15.902344 94.476562 15.980469 92.8125 16.027344 C 91.148438 16.078125 88.914062 16.191406 87.851562 16.277344 C 86.789062 16.367188 84.554688 16.480469 82.890625 16.53125 C 81.226562 16.582031 78.878906 16.695312 77.675781 16.78125 C 76.472656 16.867188 74.394531 16.984375 73.050781 17.046875 C 62.492188 17.519531 63.234375 17.492188 55.644531 17.675781 C 49.804688 17.8125 46.835938 17.949219 45.414062 18.136719 C 44.246094 18.292969 43.195312 18.390625 39.078125 18.714844 C 38.476562 18.761719 37.796875 18.851562 37.566406 18.90625 L 37.144531 19.015625 L 37.566406 19.132812 C 37.902344 19.226562 37.792969 19.277344 37.003906 19.382812 C 36.410156 19.460938 36.085938 19.570312 36.179688 19.664062 C 36.273438 19.757812 36.761719 19.761719 37.414062 19.667969 C 38.003906 19.585938 38.867188 19.535156 39.332031 19.558594 C 40.132812 19.597656 43.886719 19.433594 47.65625 19.199219 C 48.628906 19.136719 50.292969 19.074219 51.355469 19.054688 C 52.417969 19.039062 54.273438 18.976562 55.476562 18.917969 C 60.144531 18.691406 67.347656 18.515625 76.917969 18.390625 C 79.554688 18.355469 82.582031 18.277344 83.648438 18.21875 C 84.710938 18.160156 86.1875 18.085938 86.925781 18.054688 C 88.089844 18 89.363281 17.863281 91.886719 17.515625 C 92.210938 17.472656 95.011719 17.398438 98.109375 17.355469 C 104.804688 17.261719 106.476562 17.214844 109.042969 17.046875 C 110.105469 16.980469 111.089844 16.925781 111.230469 16.925781 C 118.496094 17.105469 143.394531 16.726562 144.390625 16.425781 C 144.738281 16.320312 145.210938 16.292969 145.480469 16.363281 C 146.160156 16.546875 149.167969 16.597656 151.339844 16.464844 C 152.359375 16.402344 155.121094 16.410156 157.480469 16.476562 C 159.835938 16.546875 164.039062 16.652344 166.8125 16.710938 C 169.589844 16.769531 172.917969 16.847656 174.214844 16.878906 C 175.507812 16.910156 180.617188 16.976562 185.566406 17.027344 C 190.515625 17.074219 195 17.164062 195.53125 17.222656 C 196.207031 17.300781 196.496094 17.277344 196.496094 17.144531 C 196.496094 17.039062 196.382812 16.953125 196.246094 16.953125 C 196.105469 16.953125 195.992188 16.878906 195.992188 16.785156 C 195.992188 16.570312 196.671875 16.570312 197 16.785156 C 197.167969 16.894531 197.183594 16.949219 197.042969 16.949219 C 196.929688 16.953125 196.832031 17.035156 196.832031 17.132812 C 196.832031 17.242188 197.179688 17.300781 197.714844 17.277344 C 198.203125 17.257812 198.863281 17.289062 199.1875 17.34375 C 199.804688 17.445312 204.773438 17.652344 208.941406 17.742188 C 211.964844 17.8125 213.1875 17.859375 215.753906 18.023438 C 216.863281 18.089844 219.171875 18.1875 220.882812 18.234375 C 222.59375 18.285156 224.375 18.34375 224.835938 18.371094 C 225.644531 18.414062 233.011719 18.589844 239.636719 18.722656 C 241.394531 18.753906 242.871094 18.800781 242.914062 18.824219 C 242.960938 18.847656 243.566406 18.878906 244.261719 18.894531 C 244.953125 18.914062 247.035156 19.015625 248.886719 19.121094 C 252.964844 19.359375 260.71875 19.476562 260.828125 19.300781 C 260.871094 19.234375 260.519531 19.140625 260.050781 19.09375 C 259.578125 19.050781 259.144531 18.941406 259.085938 18.855469 C 258.90625 18.597656 257.265625 18.296875 256.03125 18.296875 C 255.394531 18.296875 254.828125 18.21875 254.773438 18.128906 C 254.71875 18.039062 254.316406 17.976562 253.878906 17.988281 C 253.445312 18 252.183594 17.964844 251.070312 17.90625 C 248.304688 17.761719 244.546875 17.609375 241.234375 17.507812 C 239.707031 17.457031 237.625 17.390625 236.609375 17.359375 C 235.589844 17.324219 233.019531 17.273438 230.890625 17.242188 C 228.761719 17.210938 226.191406 17.128906 225.171875 17.0625 C 224.15625 16.992188 222.074219 16.90625 220.546875 16.871094 C 215.765625 16.757812 211.785156 16.628906 209.953125 16.535156 C 203.59375 16.199219 190.308594 15.820312 174.464844 15.523438 C 172.015625 15.476562 169.554688 15.40625 169 15.363281 C 168.445312 15.324219 165.417969 15.242188 162.273438 15.179688 C 159.128906 15.121094 156.480469 15.003906 156.394531 14.921875 C 156.296875 14.832031 156.363281 14.769531 156.5625 14.769531 C 157.203125 14.761719 163.441406 14.371094 165.46875 14.210938 C 166.113281 14.15625 168.460938 14.070312 170.679688 14.019531 C 172.902344 13.96875 175.398438 13.886719 176.230469 13.84375 C 177.0625 13.800781 179.710938 13.757812 182.117188 13.75 C 184.523438 13.742188 188.117188 13.664062 190.109375 13.582031 C 192.101562 13.496094 198.441406 13.390625 204.199219 13.351562 C 209.960938 13.308594 214.726562 13.242188 214.792969 13.203125 C 214.859375 13.160156 216.691406 13.078125 218.867188 13.019531 C 221.039062 12.960938 223.800781 12.835938 225.003906 12.738281 C 231.1875 12.25 241.816406 12.238281 258.808594 12.703125 C 262.292969 12.796875 266.746094 12.808594 278.949219 12.761719 C 279.6875 12.757812 279.914062 12.699219 279.914062 12.511719 C 279.914062 12.328125 279.730469 12.269531 279.199219 12.289062 C 278.808594 12.300781 278.070312 12.25 277.5625 12.171875 C 276.789062 12.054688 276.703125 12.011719 277.054688 11.910156 C 277.289062 11.839844 278.257812 11.777344 279.210938 11.769531 C 280.3125 11.757812 280.90625 11.691406 280.839844 11.585938 C 280.777344 11.484375 279.398438 11.414062 277.339844 11.40625 C 275.472656 11.398438 273.527344 11.367188 273.019531 11.332031 C 272.511719 11.300781 267.402344 11.230469 261.667969 11.175781 C 255.933594 11.121094 248.589844 11.046875 245.355469 11.011719 C 232.601562 10.859375 206.578125 11.003906 203.140625 11.242188 C 201.9375 11.328125 192.816406 11.363281 182.875 11.328125 C 165.496094 11.265625 160.367188 11.210938 151.761719 11.003906 C 149.585938 10.953125 143.796875 10.875 138.894531 10.828125 C 133.992188 10.78125 129.789062 10.703125 129.550781 10.652344 C 129.316406 10.605469 129.089844 10.601562 129.046875 10.640625 M 125.464844 11.210938 C 125.332031 11.421875 127.40625 11.613281 127.617188 11.40625 C 127.71875 11.308594 127.550781 11.25 127.175781 11.25 C 126.847656 11.25 126.347656 11.203125 126.070312 11.148438 C 125.792969 11.09375 125.519531 11.121094 125.464844 11.210938 M 128.46875 11.417969 C 128.523438 11.507812 128.75 11.585938 128.972656 11.585938 C 129.191406 11.585938 129.417969 11.507812 129.476562 11.417969 C 129.539062 11.316406 129.335938 11.25 128.972656 11.25 C 128.609375 11.25 128.40625 11.316406 128.46875 11.417969 M 131.199219 11.367188 C 131.039062 11.40625 130.90625 11.515625 130.90625 11.605469 C 130.90625 11.699219 131.414062 11.746094 132.125 11.71875 C 132.796875 11.691406 133.34375 11.59375 133.34375 11.5 C 133.34375 11.332031 131.742188 11.230469 131.199219 11.367188 M 133.597656 11.394531 C 133.597656 11.476562 134.050781 11.59375 134.609375 11.65625 C 135.816406 11.792969 136.398438 11.5625 135.277344 11.390625 C 134.199219 11.222656 133.597656 11.226562 133.597656 11.394531 M 136.289062 11.382812 C 136.289062 11.671875 136.816406 11.753906 137.71875 11.597656 C 138.179688 11.519531 138.398438 11.445312 138.203125 11.4375 C 138.007812 11.425781 137.496094 11.367188 137.066406 11.308594 C 136.558594 11.242188 136.289062 11.265625 136.289062 11.382812 M 139.484375 11.417969 C 139.816406 11.628906 140.492188 11.628906 140.492188 11.417969 C 140.492188 11.324219 140.207031 11.25 139.863281 11.25 C 139.394531 11.253906 139.296875 11.296875 139.484375 11.417969 M 100.046875 11.582031 C 99.980469 11.683594 100.152344 11.707031 100.5 11.640625 C 101.242188 11.5 101.304688 11.417969 100.671875 11.417969 C 100.382812 11.417969 100.101562 11.492188 100.046875 11.582031 M 142.976562 11.535156 C 143.183594 11.574219 143.488281 11.574219 143.648438 11.53125 C 143.808594 11.488281 143.636719 11.457031 143.265625 11.457031 C 142.898438 11.460938 142.765625 11.496094 142.976562 11.535156 M 281.847656 11.757812 C 281.75 11.914062 281.828125 11.941406 282.160156 11.855469 C 282.425781 11.792969 282.605469 11.816406 282.605469 11.917969 C 282.605469 12.011719 282.285156 12.09375 281.890625 12.105469 C 281 12.125 280.378906 12.292969 280.300781 12.535156 C 280.234375 12.730469 288.25 12.761719 288.578125 12.566406 C 288.667969 12.507812 289.535156 12.527344 290.5 12.601562 C 291.539062 12.683594 292.363281 12.679688 292.519531 12.585938 C 292.789062 12.429688 292.746094 12.421875 290.929688 12.335938 C 290.5625 12.320312 289.855469 12.21875 289.363281 12.109375 C 288.867188 12.003906 288.394531 11.960938 288.308594 12.015625 C 288.21875 12.066406 287.488281 12.035156 286.679688 11.941406 C 283.714844 11.597656 281.984375 11.535156 281.847656 11.757812 M 108.203125 11.917969 C 108.003906 12.046875 108.046875 12.082031 108.402344 12.085938 C 108.652344 12.085938 108.902344 12.011719 108.957031 11.917969 C 109.089844 11.707031 108.535156 11.707031 108.203125 11.917969 M 48.136719 12.945312 C 47.980469 13.042969 48.082031 13.089844 48.453125 13.089844 C 48.753906 13.09375 49 13.066406 49 13.03125 C 49 12.878906 48.347656 12.8125 48.136719 12.945312 M 18.898438 13.089844 C 18.3125 13.203125 18.3125 13.203125 18.726562 13.375 C 19.207031 13.574219 22.933594 13.464844 22.933594 13.25 C 22.933594 13.175781 22.800781 13.082031 22.640625 13.039062 C 22.203125 12.917969 19.574219 12.957031 18.898438 13.089844 M 24.203125 13.082031 C 24.078125 13.285156 24.394531 13.480469 24.617188 13.34375 C 24.804688 13.226562 24.683594 12.925781 24.445312 12.925781 C 24.363281 12.925781 24.253906 12.996094 24.203125 13.082031 M 9.476562 13.308594 L 8.722656 13.488281 L 9.308594 13.59375 C 9.632812 13.652344 10.578125 13.617188 11.414062 13.515625 C 12.785156 13.347656 12.863281 13.316406 12.253906 13.214844 C 11.355469 13.058594 10.398438 13.09375 9.476562 13.308594 M 16.753906 13.378906 C 16.914062 13.417969 17.179688 13.417969 17.339844 13.378906 C 17.503906 13.335938 17.371094 13.300781 17.046875 13.300781 C 16.722656 13.300781 16.589844 13.335938 16.753906 13.378906 M 159.75 14.101562 C 159.691406 14.191406 159.804688 14.269531 160 14.269531 C 160.199219 14.269531 160.3125 14.191406 160.253906 14.101562 C 160.195312 14.007812 160.082031 13.933594 160 13.933594 C 159.921875 13.933594 159.804688 14.007812 159.75 14.101562 M 128.636719 15.441406 C 128.578125 15.535156 128.6875 15.609375 128.878906 15.609375 C 129.066406 15.609375 129.222656 15.535156 129.222656 15.441406 C 129.222656 15.351562 129.117188 15.273438 128.980469 15.273438 C 128.847656 15.273438 128.691406 15.351562 128.636719 15.441406 M 134.1875 15.945312 C 133.921875 16.058594 133.992188 16.09375 134.523438 16.101562 C 135.015625 16.105469 135.128906 16.066406 134.941406 15.945312 C 134.648438 15.757812 134.628906 15.757812 134.1875 15.945312 M 45.636719 18.628906 C 45.636719 18.722656 45.871094 18.796875 46.152344 18.796875 C 46.453125 18.796875 46.625 18.726562 46.5625 18.628906 C 46.503906 18.539062 46.273438 18.464844 46.046875 18.464844 C 45.824219 18.464844 45.636719 18.539062 45.636719 18.628906 M 42.777344 18.730469 C 42.546875 18.757812 41.542969 18.832031 40.550781 18.890625 C 39.46875 18.953125 38.742188 19.070312 38.742188 19.175781 C 38.742188 19.347656 39.050781 19.332031 42.472656 19 C 43.183594 18.929688 43.820312 18.820312 43.890625 18.753906 C 44.007812 18.632812 43.644531 18.628906 42.777344 18.730469 M 44.207031 18.796875 C 44.265625 18.890625 44.496094 18.964844 44.722656 18.964844 C 44.949219 18.964844 45.132812 18.890625 45.132812 18.796875 C 45.132812 18.707031 44.902344 18.628906 44.617188 18.628906 C 44.320312 18.628906 44.148438 18.699219 44.207031 18.796875 M 47.992188 18.796875 C 47.992188 18.890625 48.253906 18.964844 48.570312 18.964844 C 48.890625 18.964844 49.195312 18.890625 49.253906 18.796875 C 49.316406 18.695312 49.085938 18.628906 48.675781 18.628906 C 48.300781 18.628906 47.992188 18.707031 47.992188 18.796875 M 34.667969 19.199219 C 33.3125 19.492188 33.289062 19.636719 34.59375 19.636719 C 35.230469 19.636719 35.714844 19.566406 35.714844 19.46875 C 35.714844 19.378906 35.960938 19.300781 36.261719 19.300781 C 36.675781 19.296875 36.746094 19.257812 36.554688 19.132812 C 36.238281 18.929688 35.875 18.941406 34.667969 19.199219 " fill-opacity="1" fill-rule="evenodd"/></svg>