<svg width="72" height="72" viewBox="0 0 72 72" fill="none" xmlns="http://www.w3.org/2000/svg">
<path fill-rule="evenodd" clip-rule="evenodd" d="M29.045 12.8479C29.7957 13.1182 28.4145 12.6377 34.5399 14.1691C38.1882 15.7178 42.0417 16.7293 45.9801 17.1718C47.6535 17.6401 49.3599 17.9814 51.0846 18.1927C53.607 18.1927 56.3094 17.2919 56.0991 10.5359C56.0991 7.14282 53.817 7.53318 50.9346 6.30207C50.8719 5.07534 50.544 3.87678 49.9737 2.78895C49.4844 1.9252 48.693 1.27284 47.7516 0.957318C44.1186 -0.0335642 38.1432 -0.844287 35.4708 1.67796C32.7984 4.20021 35.4708 5.40129 35.9811 4.11012C36.1446 3.68796 36.4011 3.30816 36.732 2.99914C38.8338 1.22756 44.0883 2.3986 46.941 3.41952C47.6616 3.65973 47.9619 5.37126 47.9619 6.18198C47.9619 6.9927 47.3913 8.31387 48.8928 9.18465C51.8955 10.656 53.577 7.86348 52.2258 13.3283C52.0083 13.7699 51.8373 14.2328 51.7152 14.7096C50.5743 14.7096 48.7125 14.2592 41.3559 13.2082C37.6926 11.9114 33.9114 10.9761 30.066 10.4157C30.7266 9.78519 30.3363 7.41306 30.3363 6.63237V6.3321C30.9144 6.30519 31.4931 6.37626 32.0478 6.54228C32.3145 6.59805 32.5926 6.54552 32.8206 6.3963C33.0486 6.24708 33.2082 6.01335 33.2637 5.74659C33.3195 5.4798 33.267 5.20182 33.1179 4.97376C32.9685 4.7457 32.7348 4.58625 32.4681 4.53051C30.066 3.89994 28.2644 3.89994 28.0842 6.54228C27.9941 8.22378 26.0123 11.6769 29.045 12.8479Z" fill="black"/>
<path fill-rule="evenodd" clip-rule="evenodd" d="M66.4584 15.0098C65.5575 13.4785 61.7742 12.6377 60.0327 12.3374C59.7837 12.335 59.5422 12.4209 59.3508 12.5799C59.1594 12.7389 59.0307 12.9607 58.9875 13.2057C58.9443 13.4507 58.9893 13.7032 59.1147 13.9181C59.2401 14.133 59.4378 14.2964 59.6724 14.3793C61.3557 14.6365 62.9817 15.1851 64.4766 16.0007C64.4766 19.1835 59.7624 37.83 52.2558 68.4273C51.5952 68.4273 50.334 68.7276 49.0428 68.6376C35.5206 67.5507 22.1302 65.1984 9.04722 61.6113C10.0081 51.042 10.3084 46.2075 12.0499 34.0467C14.8724 14.7396 15.9233 13.028 17.725 7.95354C20.1601 7.69167 22.6163 7.69167 25.0515 7.95354C25.2667 7.99662 25.4901 7.96227 25.6825 7.85661C25.8748 7.75092 26.0236 7.5807 26.1026 7.37598C26.1816 7.17126 26.1858 6.94521 26.1143 6.73773C26.0429 6.53022 25.9004 6.35466 25.7121 6.24201C22.7323 5.76927 19.7026 5.69859 16.704 6.03183C15.9233 6.27204 16.1336 6.18195 13.7014 12.3074C10.71 24.1724 8.42397 36.2043 6.85527 48.3396C5.11371 62.9625 4.84347 63.1428 6.07458 64.2237C9.34749 67.0161 50.7843 73.8621 54.1173 71.5203C54.3339 71.3901 54.5205 71.2158 54.6654 71.0091C54.8103 70.8021 54.9099 70.5669 54.9582 70.3191C66.4284 20.0543 67.269 16.4811 66.4584 15.0098Z" fill="black"/>
<path fill-rule="evenodd" clip-rule="evenodd" d="M54.0873 27.7412C54.1341 27.5259 54.1122 27.3014 54.0246 27.0993C53.937 26.8972 53.7879 26.7278 53.5989 26.615C53.4096 26.5022 53.1897 26.4516 52.9704 26.4705C52.7508 26.4894 52.5429 26.5767 52.3758 26.7202C52.0155 26.9905 38.0532 41.5233 37.6926 41.163C36.4917 40.0221 35.8611 36.9594 34.5099 36.5391C32.5281 35.9985 34.1196 39.8118 35.0205 41.8836C35.9211 43.9557 38.0229 44.8863 40.7253 42.9045C44.1651 40.2339 47.1996 37.0782 49.7334 33.5364C51.3477 31.7325 52.8042 29.7937 54.0873 27.7412Z" fill="black"/>
<path fill-rule="evenodd" clip-rule="evenodd" d="M33.0687 30.984C34.9302 30.3537 40.065 29.8731 40.035 31.6746C40.035 31.9137 40.1298 32.1429 40.2987 32.3118C40.4676 32.4807 40.6968 32.5755 40.9356 32.5755C41.1747 32.5755 41.4036 32.4807 41.5728 32.3118C41.7417 32.1429 41.8365 31.9137 41.8365 31.6746C42.1368 27.9514 35.8311 27.6211 32.3781 28.6721C24.0306 30.864 18.2355 38.7912 22.5893 46.6881C24.4808 49.7082 27.2691 52.0614 30.5643 53.4183C33.8592 54.7749 37.4961 55.0674 40.9656 54.2547C46.791 52.5735 51.6252 45.6072 48.8928 40.3224C48.7491 40.1139 48.5346 39.9642 48.2892 39.9009C48.0441 39.8379 47.784 39.8655 47.5575 39.9789C47.3307 40.092 47.1528 40.2834 47.0559 40.5177C46.9593 40.7517 46.9506 41.013 47.031 41.2533C48.8628 45.2769 44.6289 50.4414 40.245 51.4323C37.428 51.909 34.533 51.5586 31.9107 50.4234C29.2888 49.2882 27.0521 47.4171 25.4719 45.0366C22.0489 39.2715 26.7331 33.0258 33.0687 30.984Z" fill="black"/>
</svg>
