<svg xmlns="http://www.w3.org/2000/svg" xmlns:xlink="http://www.w3.org/1999/xlink" width="144" zoomAndPan="magnify" viewBox="0 0 108 107.999999" height="144" preserveAspectRatio="xMidYMid meet" version="1.0"><path fill="#000000" d="M 51 3.3125 C 50.757812 3.347656 50.367188 3.453125 50.128906 3.550781 C 49.890625 3.644531 49.539062 3.773438 49.351562 3.835938 C 48.863281 3.992188 47.566406 4.613281 46.699219 5.097656 C 46.117188 5.425781 45.53125 5.746094 44.949219 6.070312 C 44.390625 6.375 43.6875 6.777344 43.382812 6.96875 C 41.683594 8.023438 41.25 8.285156 40.09375 8.933594 C 39.597656 9.214844 39.421875 9.324219 39.078125 9.566406 C 38.925781 9.675781 38.773438 9.761719 38.738281 9.761719 C 38.703125 9.761719 38.28125 10.011719 37.800781 10.316406 C 37.316406 10.621094 36.734375 10.984375 36.503906 11.121094 C 35.609375 11.660156 35.1875 11.921875 34.164062 12.574219 C 33.753906 12.835938 33.34375 13.097656 32.933594 13.359375 C 32.414062 13.699219 30.398438 14.957031 29.234375 15.671875 C 28.074219 16.386719 27.050781 17.035156 23.609375 19.25 C 22.636719 19.878906 20.613281 21.289062 19.996094 21.769531 C 19.796875 21.925781 19.507812 22.136719 19.351562 22.238281 C 19.195312 22.335938 19.070312 22.472656 19.070312 22.542969 C 19.070312 22.609375 19.019531 22.664062 18.957031 22.664062 C 18.640625 22.664062 16.117188 24.9375 15.621094 25.671875 C 15.457031 25.910156 15.128906 26.382812 14.890625 26.71875 C 14.433594 27.363281 14.117188 27.964844 14.117188 28.199219 C 14.117188 28.277344 14.078125 28.414062 14.03125 28.5 C 13.984375 28.585938 13.929688 28.792969 13.910156 28.953125 C 13.890625 29.113281 13.851562 29.34375 13.820312 29.460938 C 13.730469 29.828125 13.320312 34.078125 13.355469 34.253906 C 13.363281 34.277344 13.339844 34.988281 13.308594 35.824219 C 13.273438 36.664062 13.226562 38.171875 13.203125 39.175781 C 13.183594 40.175781 13.140625 41.570312 13.113281 42.269531 C 13 45.082031 13.039062 48.652344 13.207031 50.992188 L 13.28125 52.039062 C 13.367188 53.246094 13.441406 53.9375 13.507812 54.128906 C 13.550781 54.25 13.648438 54.625 13.726562 54.957031 C 13.882812 55.625 14.386719 56.558594 14.890625 57.121094 C 15.304688 57.582031 15.957031 57.996094 16.644531 58.230469 C 17.355469 58.46875 19 58.5625 19.6875 58.402344 C 21.1875 58.050781 21.878906 57.722656 24.890625 55.921875 C 25.679688 55.449219 26.441406 54.996094 26.585938 54.914062 C 26.8125 54.785156 28.507812 53.757812 28.886719 53.519531 C 28.957031 53.472656 30.132812 52.753906 31.492188 51.921875 C 32.855469 51.089844 34.253906 50.226562 34.601562 50.003906 C 34.949219 49.78125 35.257812 49.597656 35.289062 49.597656 C 35.316406 49.597656 35.472656 49.5 35.628906 49.378906 C 35.785156 49.261719 35.929688 49.164062 35.953125 49.164062 C 35.976562 49.164062 36.867188 48.628906 37.9375 47.976562 C 39.003906 47.324219 40.054688 46.691406 40.269531 46.570312 C 40.484375 46.449219 40.757812 46.28125 40.875 46.199219 C 41.054688 46.078125 43.847656 44.371094 44.71875 43.855469 C 44.847656 43.777344 45.394531 43.449219 45.933594 43.121094 L 47.046875 42.449219 C 50.457031 40.382812 52.21875 39.394531 52.953125 39.128906 C 53.214844 39.035156 53.664062 38.933594 53.953125 38.910156 C 54.457031 38.863281 54.503906 38.875 55.429688 39.359375 C 55.953125 39.632812 57.167969 40.257812 58.121094 40.746094 C 59.078125 41.234375 60.03125 41.757812 60.242188 41.910156 C 60.453125 42.0625 60.660156 42.1875 60.707031 42.1875 C 60.75 42.1875 61.335938 42.523438 62.003906 42.929688 C 62.671875 43.335938 63.230469 43.671875 63.25 43.671875 C 63.265625 43.671875 63.605469 43.875 64.003906 44.121094 C 64.398438 44.367188 64.84375 44.628906 64.984375 44.703125 C 65.128906 44.773438 65.675781 45.113281 66.203125 45.453125 C 66.726562 45.792969 67.542969 46.308594 68.011719 46.59375 C 68.480469 46.878906 69.398438 47.441406 70.054688 47.84375 C 70.707031 48.242188 71.730469 48.863281 72.328125 49.214844 C 72.925781 49.570312 73.472656 49.898438 73.542969 49.945312 C 74.050781 50.273438 75.382812 51.078125 75.421875 51.078125 C 75.445312 51.078125 75.628906 51.191406 75.828125 51.328125 C 76.03125 51.464844 76.347656 51.664062 76.539062 51.769531 C 76.730469 51.871094 77.042969 52.046875 77.234375 52.15625 C 78.566406 52.929688 79.675781 53.53125 80.835938 54.109375 L 82.175781 54.78125 L 83.136719 54.804688 C 83.667969 54.816406 84.230469 54.78125 84.390625 54.730469 C 84.550781 54.675781 84.894531 54.421875 85.148438 54.164062 C 85.542969 53.765625 85.628906 53.617188 85.714844 53.191406 C 85.820312 52.683594 85.757812 51.691406 85.625 51.691406 C 85.585938 51.691406 85.53125 51.582031 85.503906 51.449219 C 85.398438 50.945312 84.054688 49.820312 80.625 47.367188 C 79.417969 46.503906 77.542969 45.214844 76.644531 44.628906 C 76.386719 44.460938 75.496094 43.871094 74.664062 43.3125 C 72.386719 41.789062 71.289062 41.085938 69.808594 40.195312 C 69.066406 39.75 68.011719 39.097656 67.460938 38.746094 C 66.914062 38.394531 66.109375 37.902344 65.679688 37.648438 C 65.25 37.394531 64.578125 36.976562 64.183594 36.722656 C 63.789062 36.46875 63.445312 36.261719 63.421875 36.261719 C 63.394531 36.261719 62.976562 36.011719 62.488281 35.703125 C 60.421875 34.410156 57.210938 32.660156 55.558594 31.921875 C 54.921875 31.636719 53.859375 31.507812 53.203125 31.632812 C 52.898438 31.691406 52.488281 31.75 52.289062 31.765625 C 51.816406 31.804688 51.121094 32.039062 50.761719 32.285156 C 50.601562 32.394531 50.042969 32.671875 49.519531 32.90625 C 48.996094 33.140625 48.417969 33.421875 48.242188 33.53125 C 48.0625 33.644531 47.886719 33.734375 47.851562 33.734375 C 47.8125 33.734375 47.550781 33.878906 47.261719 34.050781 C 46.976562 34.226562 46.449219 34.527344 46.089844 34.71875 C 45.730469 34.914062 45.183594 35.226562 44.875 35.417969 C 44.5625 35.609375 44.132812 35.863281 43.917969 35.980469 C 43.703125 36.101562 43.351562 36.316406 43.140625 36.457031 C 42.925781 36.597656 42.671875 36.75 42.574219 36.792969 C 42.476562 36.839844 41.710938 37.304688 40.875 37.828125 C 40.195312 38.253906 39.515625 38.683594 38.835938 39.109375 C 38.546875 39.289062 37.589844 39.871094 36.707031 40.40625 C 34.777344 41.574219 31.84375 43.414062 29.859375 44.707031 C 28.378906 45.667969 27.472656 46.25 24.605469 48.078125 C 21.953125 49.769531 21.355469 50.113281 20.960938 50.179688 C 20.761719 50.210938 20.636719 50.183594 20.5625 50.09375 C 20.476562 49.996094 20.441406 48.726562 20.414062 44.703125 C 20.375 39.765625 20.410156 38.386719 20.628906 35.824219 C 20.691406 35.101562 20.75 34.375 20.808594 33.648438 C 20.992188 31.300781 21.253906 30.757812 22.761719 29.578125 C 23.476562 29.019531 26.222656 27.058594 26.644531 26.804688 C 26.722656 26.757812 27.835938 26.007812 29.121094 25.140625 C 30.070312 24.496094 31.019531 23.851562 31.972656 23.210938 C 32.527344 22.832031 35.558594 20.839844 36.816406 20.019531 C 37.324219 19.691406 37.828125 19.359375 38.335938 19.023438 C 38.753906 18.75 39.160156 18.484375 39.238281 18.4375 C 39.316406 18.390625 40.136719 17.84375 41.0625 17.230469 C 42.859375 16.03125 43.554688 15.574219 45.453125 14.347656 C 46.128906 13.90625 46.804688 13.46875 47.480469 13.027344 C 49.027344 12.015625 49.289062 11.863281 50.464844 11.261719 C 50.972656 11 51.851562 10.804688 52.214844 10.871094 C 53.085938 11.027344 54.628906 11.722656 57.382812 13.210938 C 58.078125 13.582031 58.851562 14 59.101562 14.132812 C 59.394531 14.292969 59.683594 14.453125 59.972656 14.617188 C 60.25 14.773438 60.53125 14.933594 60.816406 15.085938 C 61.746094 15.589844 62.710938 16.140625 63.058594 16.367188 C 63.257812 16.5 63.578125 16.6875 63.769531 16.785156 C 64.109375 16.960938 64.585938 17.234375 65.039062 17.511719 C 65.167969 17.589844 65.617188 17.851562 66.039062 18.097656 C 66.464844 18.34375 67.59375 19.007812 68.546875 19.570312 C 69.503906 20.136719 70.734375 20.863281 71.285156 21.183594 C 71.832031 21.503906 73.144531 22.273438 74.195312 22.894531 C 75.246094 23.515625 76.4375 24.214844 76.84375 24.445312 C 77.570312 24.859375 79.929688 26.246094 81.167969 26.992188 C 81.515625 27.199219 81.820312 27.371094 81.84375 27.371094 C 81.863281 27.371094 82.070312 27.503906 82.296875 27.664062 C 82.523438 27.824219 82.769531 27.980469 82.839844 28.011719 C 82.910156 28.042969 83.300781 28.28125 83.707031 28.539062 C 84.113281 28.800781 84.71875 29.179688 85.054688 29.386719 C 86.96875 30.5625 87.429688 31.210938 87.664062 33.035156 C 87.804688 34.140625 87.992188 35.90625 87.984375 36.085938 C 87.984375 36.160156 88.015625 36.570312 88.058594 37.003906 C 88.128906 37.726562 88.171875 38.414062 88.277344 40.621094 C 88.320312 41.574219 88.347656 46.433594 88.328125 50.25 C 88.3125 53.132812 88.324219 53.398438 88.457031 53.652344 C 88.507812 53.746094 88.574219 53.96875 88.609375 54.140625 C 88.640625 54.316406 88.761719 54.5625 88.878906 54.691406 C 88.996094 54.820312 89.09375 54.964844 89.09375 55.011719 C 89.09375 55.058594 89.132812 55.074219 89.179688 55.046875 C 89.230469 55.015625 89.269531 55.070312 89.269531 55.167969 C 89.269531 55.445312 89.929688 55.796875 90.328125 55.730469 C 90.535156 55.699219 90.738281 55.726562 90.917969 55.816406 C 91.289062 56.003906 91.90625 55.871094 92.460938 55.488281 C 93.128906 55.027344 93.730469 53.824219 93.917969 52.554688 C 94.105469 51.28125 94.367188 48.566406 94.46875 46.808594 C 94.550781 45.347656 94.53125 33.503906 94.445312 32.863281 C 94.386719 32.417969 94.253906 31.242188 94.175781 30.464844 C 94.066406 29.328125 93.78125 28.046875 93.535156 27.566406 C 93.492188 27.484375 93.414062 27.300781 93.359375 27.167969 C 93.285156 26.984375 93.222656 26.933594 93.109375 26.976562 C 92.992188 27.019531 92.984375 27.007812 93.066406 26.925781 C 93.144531 26.847656 93.144531 26.773438 93.074219 26.636719 C 92.867188 26.253906 92.03125 25.273438 91.597656 24.914062 C 91.347656 24.707031 90.988281 24.386719 90.792969 24.199219 C 90.148438 23.578125 89.539062 23.144531 87.3125 21.722656 C 86.980469 21.511719 86.570312 21.246094 86.402344 21.140625 C 86.042969 20.910156 83.640625 19.476562 82.578125 18.855469 C 81.769531 18.382812 80.085938 17.378906 79.761719 17.171875 C 79.648438 17.101562 79.285156 16.886719 78.960938 16.699219 C 78.632812 16.511719 77.742188 15.96875 76.980469 15.5 C 76.21875 15.03125 75.53125 14.644531 75.457031 14.644531 C 75.378906 14.644531 75.277344 14.609375 75.234375 14.5625 C 75.1875 14.519531 74.617188 14.207031 73.96875 13.875 C 72.296875 13.015625 68.367188 10.796875 67.375 10.152344 C 67.0625 9.953125 66.632812 9.6875 66.417969 9.566406 C 66.203125 9.445312 65.578125 9.082031 65.027344 8.757812 C 64.480469 8.433594 63.914062 8.113281 63.769531 8.039062 C 63.625 7.96875 63.285156 7.773438 63.015625 7.613281 C 61.238281 6.550781 56.367188 4.167969 54.996094 3.691406 C 53.730469 3.25 52.3125 3.117188 51 3.3125 M 46.980469 5.144531 C 46.582031 5.386719 46.628906 5.4375 47.046875 5.21875 C 47.234375 5.121094 47.394531 5.023438 47.394531 5.003906 C 47.394531 4.929688 47.25 4.976562 46.980469 5.144531 M 92.394531 26.230469 C 92.445312 26.332031 92.527344 26.410156 92.574219 26.410156 C 92.722656 26.410156 92.660156 26.246094 92.476562 26.148438 C 92.3125 26.058594 92.304688 26.066406 92.394531 26.230469 M 94.242188 42.539062 C 94.242188 42.707031 94.257812 42.773438 94.28125 42.691406 C 94.300781 42.605469 94.300781 42.46875 94.28125 42.386719 C 94.257812 42.300781 94.242188 42.371094 94.242188 42.539062 M 52.089844 53.125 C 51.496094 53.238281 51.285156 53.304688 50.847656 53.53125 C 50.765625 53.574219 50.648438 53.609375 50.585938 53.609375 C 50.527344 53.609375 50.28125 53.707031 50.042969 53.824219 C 49.804688 53.941406 49.574219 54.039062 49.535156 54.039062 C 49.429688 54.046875 46.351562 55.601562 45.308594 56.179688 C 44.804688 56.457031 44.160156 56.804688 43.875 56.957031 C 41.554688 58.179688 35.09375 61.867188 33.40625 62.933594 C 33.046875 63.160156 32.714844 63.359375 32.667969 63.378906 C 32.617188 63.398438 32.167969 63.691406 31.667969 64.03125 C 30.8125 64.613281 28.957031 65.722656 28.847656 65.722656 C 28.734375 65.722656 26.105469 67.324219 26.105469 67.390625 C 26.105469 67.433594 26.050781 67.46875 25.984375 67.46875 C 25.914062 67.46875 25.632812 67.605469 25.351562 67.777344 C 25.074219 67.949219 24.417969 68.351562 23.890625 68.671875 C 22.578125 69.476562 20.945312 70.546875 20.027344 71.210938 C 19.761719 71.402344 19.390625 71.664062 19.199219 71.796875 C 17.238281 73.148438 15.605469 74.835938 14.921875 76.214844 C 14.535156 76.996094 14.125 78.46875 14.058594 79.320312 C 13.964844 80.535156 13.871094 85.109375 13.910156 86.601562 C 13.933594 87.511719 13.96875 89.316406 13.992188 90.609375 C 14.03125 92.910156 14.050781 93.539062 14.148438 95.316406 C 14.21875 96.542969 14.382812 98.058594 14.472656 98.304688 C 14.515625 98.417969 14.550781 98.640625 14.550781 98.796875 C 14.550781 99.1875 15.007812 100.601562 15.238281 100.925781 C 15.339844 101.066406 15.421875 101.21875 15.421875 101.265625 C 15.421875 101.3125 15.503906 101.421875 15.605469 101.511719 C 15.703125 101.605469 15.839844 101.785156 15.90625 101.914062 C 16.023438 102.140625 16.964844 102.941406 17.40625 103.191406 C 18.003906 103.527344 18.957031 103.75 19.992188 103.792969 C 22 103.878906 23.023438 103.554688 26.410156 101.769531 C 26.839844 101.542969 27.25 101.3125 27.324219 101.253906 C 27.394531 101.195312 27.570312 101.09375 27.714844 101.023438 C 27.859375 100.957031 28.269531 100.71875 28.625 100.496094 C 30.242188 99.496094 31.335938 98.828125 32.058594 98.40625 C 34.148438 97.191406 34.605469 96.929688 34.664062 96.929688 C 34.695312 96.929688 35.285156 96.617188 35.96875 96.230469 C 36.652344 95.847656 37.230469 95.535156 37.253906 95.535156 C 37.273438 95.535156 38.339844 94.945312 39.617188 94.226562 C 40.894531 93.507812 41.957031 92.917969 41.976562 92.917969 C 41.996094 92.917969 42.226562 92.78125 42.488281 92.613281 C 42.75 92.445312 42.988281 92.308594 43.011719 92.308594 C 43.039062 92.308594 43.324219 92.15625 43.640625 91.972656 C 43.960938 91.785156 44.535156 91.464844 44.917969 91.265625 C 45.296875 91.0625 45.652344 90.867188 45.699219 90.828125 C 45.746094 90.792969 46.449219 90.402344 47.261719 89.957031 C 48.074219 89.511719 48.914062 89.050781 49.128906 88.929688 C 51.519531 87.578125 52.425781 87.132812 53.152344 86.957031 C 53.949219 86.765625 55.0625 86.894531 55.644531 87.246094 C 55.859375 87.375 56.175781 87.535156 56.339844 87.605469 C 56.507812 87.671875 57.191406 88.015625 57.863281 88.363281 C 58.53125 88.710938 59.15625 89.023438 59.25 89.050781 C 59.347656 89.082031 59.640625 89.234375 59.902344 89.390625 C 60.167969 89.546875 60.578125 89.773438 60.816406 89.890625 C 61.054688 90.011719 61.640625 90.324219 62.117188 90.585938 C 62.597656 90.851562 63.261719 91.214844 63.59375 91.398438 C 65.085938 92.214844 70.660156 95.585938 72.457031 96.757812 C 72.886719 97.039062 73.324219 97.320312 73.429688 97.382812 C 73.535156 97.445312 73.964844 97.730469 74.386719 98.011719 C 75.050781 98.464844 76.71875 99.515625 78.582031 100.660156 C 78.894531 100.851562 79.71875 101.308594 80.417969 101.671875 C 81.574219 102.277344 81.75 102.34375 82.316406 102.386719 C 82.777344 102.421875 83.03125 102.398438 83.289062 102.292969 C 83.527344 102.199219 83.671875 102.179688 83.746094 102.242188 C 83.921875 102.386719 84.828125 101.691406 84.835938 101.402344 C 84.835938 101.347656 84.882812 101.289062 84.933594 101.269531 C 84.988281 101.25 85.042969 101.128906 85.058594 100.992188 C 85.074219 100.859375 85.132812 100.554688 85.1875 100.3125 C 85.265625 99.992188 85.265625 99.851562 85.195312 99.78125 C 85.140625 99.726562 85.097656 99.578125 85.097656 99.453125 C 85.097656 98.945312 84.046875 97.855469 82.316406 96.558594 C 80.507812 95.207031 80.492188 95.195312 79.183594 94.269531 C 76.945312 92.691406 75.320312 91.566406 74.710938 91.175781 C 74.601562 91.105469 74.085938 90.753906 73.570312 90.398438 C 73.054688 90.042969 71.867188 89.246094 70.9375 88.625 C 70.003906 88.003906 69.136719 87.421875 69.007812 87.332031 C 68.878906 87.242188 68.75 87.167969 68.71875 87.167969 C 68.691406 87.167969 68.539062 87.066406 68.378906 86.949219 C 68.132812 86.757812 67.214844 86.179688 66.375 85.6875 C 66.230469 85.601562 65.78125 85.328125 65.375 85.074219 C 63.792969 84.089844 62.414062 83.242188 62.382812 83.242188 C 62.367188 83.242188 62.105469 83.101562 61.800781 82.925781 C 60.769531 82.328125 60.035156 81.917969 59.425781 81.585938 C 57.066406 80.3125 56.511719 80.019531 56.441406 80.019531 C 56.398438 80.019531 56.191406 79.921875 55.980469 79.804688 C 55.421875 79.492188 54.679688 79.3125 53.613281 79.234375 C 52.5625 79.152344 51.917969 79.265625 50.847656 79.714844 C 50.546875 79.84375 50.089844 80.023438 49.824219 80.121094 C 49.5625 80.21875 49.09375 80.414062 48.78125 80.558594 C 48.347656 80.761719 47.914062 80.964844 47.480469 81.164062 C 46.582031 81.582031 45.566406 82.074219 44.292969 82.703125 C 44.207031 82.746094 44.015625 82.847656 43.875 82.929688 C 43.730469 83.007812 43.164062 83.308594 42.613281 83.597656 C 41.128906 84.371094 39.785156 85.082031 39.050781 85.484375 C 38.695312 85.679688 37.929688 86.09375 37.359375 86.40625 L 35.816406 87.242188 C 35.539062 87.390625 35.148438 87.621094 34.945312 87.75 C 34.625 87.953125 33.761719 88.449219 32.363281 89.238281 C 32.070312 89.402344 31.78125 89.566406 31.492188 89.738281 C 31.230469 89.890625 30.742188 90.175781 30.40625 90.371094 C 30.074219 90.5625 29.398438 90.960938 28.90625 91.253906 C 28.414062 91.546875 27.988281 91.785156 27.960938 91.785156 C 27.933594 91.785156 27.359375 92.113281 26.683594 92.515625 C 25.011719 93.507812 23.578125 94.320312 22.855469 94.6875 C 22.355469 94.945312 22.222656 94.980469 22.054688 94.902344 C 21.910156 94.835938 21.847656 94.730469 21.835938 94.539062 C 21.828125 94.390625 21.816406 94.089844 21.804688 93.867188 C 21.796875 93.648438 21.761719 93.421875 21.726562 93.367188 C 21.695312 93.3125 21.707031 93.269531 21.757812 93.269531 C 21.816406 93.269531 21.84375 92.066406 21.84375 89.527344 C 21.839844 85.519531 21.875 84.539062 22.105469 82.34375 C 22.359375 79.980469 22.640625 79.601562 25.691406 77.558594 C 27.925781 76.066406 29.230469 75.207031 29.367188 75.136719 C 29.414062 75.113281 29.636719 74.964844 29.859375 74.8125 C 30.082031 74.65625 30.285156 74.527344 30.3125 74.527344 C 30.339844 74.527344 30.921875 74.160156 31.601562 73.714844 C 34.523438 71.792969 37.03125 70.179688 39.574219 68.582031 C 40.265625 68.144531 41.222656 67.539062 41.703125 67.234375 C 42.179688 66.929688 42.648438 66.628906 42.742188 66.570312 C 42.839844 66.511719 43.089844 66.347656 43.304688 66.203125 C 43.519531 66.058594 43.738281 65.921875 43.785156 65.898438 C 43.890625 65.847656 44.757812 65.28125 45.277344 64.925781 C 45.476562 64.789062 45.664062 64.679688 45.695312 64.679688 C 45.726562 64.679688 45.917969 64.566406 46.117188 64.429688 C 46.585938 64.109375 48.957031 62.679688 49.523438 62.378906 C 49.761719 62.253906 50.203125 61.992188 50.507812 61.800781 C 51.351562 61.269531 52.167969 61.015625 53.046875 61.015625 C 53.710938 61.015625 53.847656 61.046875 54.429688 61.328125 C 54.785156 61.5 55.351562 61.804688 55.6875 62.011719 C 57.160156 62.910156 59.445312 64.242188 59.519531 64.242188 C 59.546875 64.242188 59.734375 64.355469 59.933594 64.492188 C 60.132812 64.628906 60.761719 65.027344 61.335938 65.382812 C 61.910156 65.738281 62.503906 66.105469 62.65625 66.203125 C 62.875 66.335938 63.09375 66.472656 63.308594 66.605469 C 63.515625 66.734375 64.347656 67.265625 65.160156 67.789062 C 67.9375 69.578125 68.980469 70.242188 69.503906 70.542969 C 69.789062 70.707031 70.332031 71.035156 70.703125 71.269531 C 70.980469 71.441406 71.253906 71.613281 71.53125 71.785156 C 71.609375 71.835938 72.070312 72.136719 72.554688 72.460938 C 73.039062 72.78125 73.457031 73.046875 73.484375 73.046875 C 73.609375 73.046875 78.726562 76.21875 81.144531 77.796875 C 81.527344 78.042969 82.25 78.515625 82.753906 78.839844 C 85.253906 80.460938 85.976562 81.164062 86.300781 82.285156 C 86.414062 82.671875 86.726562 84.75 86.796875 85.550781 C 86.824219 85.882812 86.859375 86.179688 86.878906 86.203125 C 86.894531 86.230469 86.929688 86.71875 86.960938 87.292969 C 86.992188 87.867188 87.03125 88.417969 87.054688 88.515625 C 87.074219 88.613281 87.113281 89.105469 87.140625 89.605469 C 87.167969 90.109375 87.207031 90.679688 87.226562 90.871094 C 87.335938 91.972656 87.5 98.484375 87.453125 99.804688 C 87.445312 99.972656 87.507812 100.464844 87.585938 100.894531 C 87.707031 101.542969 87.792969 101.769531 88.089844 102.195312 C 88.5625 102.875 88.945312 103.082031 89.691406 103.042969 C 90.078125 103.023438 90.226562 103.042969 90.1875 103.109375 C 90.085938 103.273438 90.378906 103.214844 90.953125 102.953125 C 91.515625 102.699219 91.734375 102.476562 92.160156 101.722656 C 92.464844 101.1875 92.671875 100.039062 92.964844 97.277344 C 93.039062 96.582031 93.117188 95.894531 93.136719 95.753906 C 93.179688 95.398438 93.257812 94.574219 93.3125 93.835938 C 93.351562 93.265625 93.476562 87.003906 93.457031 86.425781 C 93.453125 86.28125 93.453125 85.929688 93.460938 85.640625 C 93.511719 83.824219 93.417969 80.203125 93.308594 79.921875 C 93.285156 79.855469 93.25 79.625 93.230469 79.410156 C 93.171875 78.652344 92.96875 77.925781 92.449219 76.574219 C 92.003906 75.425781 90.683594 73.808594 89.3125 72.742188 C 88.632812 72.214844 87.214844 71.242188 86.375 70.730469 C 86.144531 70.589844 85.695312 70.304688 85.375 70.097656 C 85.054688 69.890625 84.589844 69.605469 84.335938 69.46875 C 84.085938 69.328125 83.734375 69.117188 83.554688 68.996094 C 83.378906 68.875 83.207031 68.773438 83.179688 68.773438 C 83.148438 68.773438 82.675781 68.515625 82.132812 68.195312 C 81.589844 67.875 80.527344 67.269531 79.773438 66.84375 C 79.019531 66.417969 78.257812 65.976562 78.082031 65.863281 C 77.902344 65.746094 77.191406 65.332031 76.496094 64.9375 C 75.804688 64.542969 75.121094 64.15625 74.976562 64.070312 C 74.625 63.871094 73.890625 63.464844 73.152344 63.0625 C 71.425781 62.128906 70.691406 61.714844 69.480469 60.984375 C 68.75 60.546875 68.007812 60.105469 67.828125 60.003906 C 67.429688 59.777344 67.03125 59.546875 66.636719 59.316406 C 66.078125 58.996094 65.523438 58.671875 64.964844 58.351562 C 64.523438 58.097656 64.058594 57.808594 63.929688 57.710938 C 63.804688 57.613281 63.65625 57.53125 63.59375 57.53125 C 63.535156 57.53125 63.394531 57.457031 63.28125 57.367188 C 63.042969 57.179688 62.933594 57.109375 61.453125 56.257812 C 57.367188 53.898438 55.480469 53.117188 53.648438 53.039062 C 53.0625 53.015625 52.503906 53.046875 52.089844 53.125 M 21.546875 91.027344 C 21.511719 91.113281 21.503906 91.207031 21.535156 91.238281 C 21.625 91.328125 21.695312 91.203125 21.652344 91.03125 C 21.617188 90.878906 21.613281 90.878906 21.546875 91.027344 " fill-opacity="1" fill-rule="evenodd"/></svg>