<svg width="72" height="72" viewBox="0 0 72 72" fill="none" xmlns="http://www.w3.org/2000/svg">
<g clip-path="url(#clip0_3005_25)">
<path fill-rule="evenodd" clip-rule="evenodd" d="M56.2605 4.94382C54.9444 3.88758 53.3571 3.22362 51.6807 3.02808C48.4644 2.62792 45.2226 2.46784 41.9823 2.54917L30.9372 2.3097C28.468 2.14328 25.9881 2.25372 23.5436 2.63897C21.7384 2.88833 20.0219 3.57699 18.5448 4.64448C17.5959 5.41692 16.9064 6.46158 16.5692 7.63779C16.155 9.05847 15.9335 10.5283 15.9107 12.008L12.9174 52.0884C12.6713 54.9468 12.6713 57.8208 12.9174 60.6792C12.9537 62.8434 13.677 64.9398 14.9828 66.666C16.1184 67.5708 17.4895 68.1318 18.9339 68.2821C21.6751 68.6298 24.4329 68.8299 27.1955 68.8809C29.62 68.8809 32.4039 69.2103 35.6964 69.3597C38.211 69.3597 41.0544 69.5994 44.1975 69.6891C47.0424 69.9639 49.911 69.5319 52.5489 68.4318C53.5149 67.9152 54.3447 67.176 54.969 66.2757C55.5936 65.3754 55.9953 64.3395 56.1408 63.2535C56.5599 60.9486 56.8593 58.614 57.0987 56.2191C57.4278 52.7169 57.6075 49.185 57.7872 45.7725C58.0863 40.1751 58.266 35.1462 58.5654 29.9679C58.5654 27.7528 58.8348 25.5378 59.0145 23.2329C59.52 19.0175 59.52 14.7567 59.0145 10.5413C58.7148 8.43015 57.7503 6.46938 56.2605 4.94382ZM24.0226 5.57241C26.2545 5.26977 28.5126 5.20956 30.7575 5.3928L41.9823 6.02139C44.6409 6.00471 47.2986 6.12459 49.9446 6.38061C50.7111 6.45654 51.4713 6.58656 52.2195 6.76974C51.4713 8.32626 50.6031 10.2719 49.7052 11.7685C49.425 12.4024 48.9933 12.9575 48.4479 13.3849C48.0012 13.6024 47.5074 13.7053 47.0112 13.6843C46.0026 13.62 45.0012 13.4698 44.0178 13.2353C43.0599 13.2353 42.132 12.9958 41.1741 12.9359C40.1775 12.8748 39.1779 12.8748 38.181 12.9359C36.5046 13.1155 33.8106 13.2652 31.3263 13.4448C29.5901 13.4448 27.9438 13.7142 26.8662 13.7142H26.2675C25.8784 13.2053 25.4294 12.5169 25.0104 11.8284C24.4998 10.9342 24.0787 9.99168 23.7532 9.0147C23.7532 8.32626 23.1246 7.36839 22.8851 6.53028C22.8586 6.28152 22.8586 6.03069 22.8851 5.78193L24.0226 5.57241ZM55.572 23.0534C55.3026 26.0467 55.1232 29.04 55.0032 32.0334C54.7938 36.4635 54.6741 40.8336 54.4944 45.5931C54.3447 48.9753 54.225 52.4775 53.9556 55.9497C53.7762 58.2546 53.5365 60.5295 53.1474 62.7147C53.0898 63.3651 52.878 63.9921 52.5291 64.5441C52.1802 65.0958 51.7047 65.5566 51.1419 65.8875C48.969 66.7992 46.6014 67.1493 44.2572 66.9054L35.8161 66.7557C32.5236 66.7557 29.8296 66.546 27.3452 66.4263C25.7288 66.4263 22.7953 66.4263 20.2211 66.0672C18.8706 66.0867 17.5423 65.7234 16.3896 65.0196C15.4201 63.7098 14.8862 62.1288 14.863 60.4995C14.6086 57.7716 14.6086 55.026 14.863 52.2981L18.5747 12.3073C18.6051 11.0193 18.8064 9.74091 19.1734 8.50584C19.3836 7.86537 19.7669 7.29558 20.2809 6.85953C20.5239 6.73566 20.7738 6.62574 21.0292 6.53028V7.0092C21.2089 7.87725 21.568 8.83512 21.6579 9.49365C21.9086 10.6122 22.2904 11.6973 22.7953 12.7264C23.2427 13.7767 23.7943 14.7794 24.4416 15.7197C24.6987 15.9986 25.0316 16.1963 25.3995 16.2885C26.2718 16.4972 27.1666 16.5977 28.0635 16.5878C31.0569 16.5878 35.9061 16.4082 38.4504 16.2286H40.4559C41.1144 16.2286 42.5511 16.2286 43.4493 16.3783C44.5995 16.5357 45.7602 16.6058 46.9215 16.5878C47.8605 16.5315 48.7734 16.2546 49.5855 15.7796C50.5761 15.0025 51.3321 13.9665 51.7707 12.7863C52.5489 11.1998 53.2671 9.16437 53.9256 7.548C55.0398 9.07644 55.6281 10.925 55.602 12.8162C55.8771 16.2235 55.8669 19.6478 55.572 23.0534Z" fill="black"/>
<path fill-rule="evenodd" clip-rule="evenodd" d="M9.05601 1.53141L6.57156 3.35733C5.45376 4.04115 4.44477 4.88871 3.57825 5.87172C3.2235 6.4791 3.04713 7.17417 3.06939 7.87722C3.0297 8.53266 3.14241 9.18837 3.39867 9.79293C3.68238 10.5556 4.02258 11.296 4.41639 12.008C4.85493 12.5563 5.05932 13.2555 4.9851 13.9536C4.71393 14.5018 4.30041 14.967 3.7878 15.3006C2.86584 15.9929 2.07513 16.8444 1.45301 17.815C1.06764 18.5193 0.891111 19.3188 0.944145 20.1199C1.00944 20.808 1.20231 21.4779 1.51287 22.0954C2.02539 22.9963 2.60578 23.8569 3.249 24.6697C3.68262 25.0853 3.96675 25.6325 4.0572 26.2262C3.96831 26.9711 3.61833 27.6605 3.06939 28.1719C2.25673 29.0061 1.51576 29.9073 0.854346 30.8658C0.381066 31.5219 0.0925173 32.2929 0.018806 33.0984C-0.0549054 33.9039 0.0889227 34.7145 0.435282 35.4456C1.20433 36.8226 2.08534 38.1342 3.06939 39.3669C3.14016 39.4809 3.23268 39.5799 3.34167 39.6579C3.45066 39.7362 3.57399 39.7923 3.70464 39.8229C3.83526 39.8535 3.97065 39.858 4.10304 39.8361C4.23543 39.8145 4.36227 39.7668 4.47624 39.696C4.59024 39.6255 4.68918 39.5328 4.76742 39.4239C4.84566 39.3147 4.90167 39.1914 4.93224 39.0609C4.96284 38.9301 4.96737 38.7948 4.94562 38.6625C4.92387 38.5302 4.87626 38.4033 4.80552 38.2893C4.29666 37.3914 3.42858 36.2238 2.85986 35.0565C2.59411 34.5297 2.48997 33.936 2.56053 33.3504C2.86427 32.5479 3.38187 31.8441 4.0572 31.3149C5.00016 30.5049 5.82621 29.568 6.51171 28.5311C6.92751 27.8421 7.16421 27.06 7.20015 26.2562C7.22202 25.5476 7.08924 24.8428 6.81102 24.1908C6.33525 23.2532 5.77413 22.3614 5.13477 21.5267C4.7274 21.0494 4.4583 20.4697 4.35651 19.8505C4.35651 19.1919 4.89531 18.8327 5.37423 18.3837C6.00696 17.8408 6.59736 17.2504 7.1403 16.6177C7.59672 16.0615 7.91475 15.4049 8.06823 14.702C8.2494 13.9849 8.2494 13.234 8.06823 12.5168C7.6665 11.522 7.13292 10.5857 6.48177 9.73308C6.04011 9.22077 5.74077 8.60145 5.61372 7.9371C5.6364 7.54614 5.79525 7.17549 6.0627 6.88944C6.65772 6.18948 7.30839 5.53881 8.00835 4.94379L10.1037 3.02805C10.2573 2.87373 10.3518 2.67026 10.3706 2.45329C10.3893 2.23631 10.3312 2.01965 10.2063 1.84123C10.0814 1.66281 9.89772 1.53401 9.68742 1.47737C9.47715 1.42073 9.25362 1.43986 9.05601 1.53141Z" fill="black"/>
<path fill-rule="evenodd" clip-rule="evenodd" d="M68.7426 43.797C68.1177 43.2249 67.6884 42.471 67.5153 41.6418C67.5153 41.4024 67.5153 41.2227 67.8147 41.0133C68.8623 39.786 70.8081 38.7384 71.3469 37.6008C71.6589 37.0614 71.8473 36.4596 71.8992 35.8383C71.9511 35.2173 71.8644 34.5924 71.646 34.0089C70.6449 32.0511 69.342 30.2631 67.7847 28.7107C67.719 28.6107 67.6332 28.5253 67.533 28.46C67.4328 28.3946 67.32 28.3507 67.2021 28.3311C67.0839 28.3114 66.963 28.3164 66.8469 28.3456C66.7308 28.3749 66.6222 28.4278 66.5277 28.5012C66.3387 28.6443 66.2118 28.8543 66.1728 29.0881C66.1338 29.3218 66.1857 29.5617 66.318 29.7583C67.4406 31.083 68.4423 32.5056 69.3114 34.0089C69.5115 34.3491 69.6168 34.7367 69.6168 35.1312C69.6168 35.526 69.5115 35.9136 69.3114 36.2538C68.6529 37.2417 66.8268 37.9302 65.7792 38.9478C65.3583 39.3204 65.0268 39.7827 64.809 40.3011C64.5915 40.8192 64.4934 41.3799 64.5222 41.9412C64.6539 43.4301 65.2629 44.8368 66.2583 45.9522C66.966 46.7169 67.5978 47.5491 68.1441 48.4365C68.4159 48.9303 68.4804 49.5117 68.3235 50.0529C68.3235 50.562 67.725 50.8314 67.2759 51.1305C66.4263 51.6711 65.616 52.2714 64.8513 52.9266C64.2426 53.4735 63.8412 54.2136 63.714 55.0218C63.5739 55.9776 63.7089 56.9535 64.1031 57.8355C64.7733 59.1252 65.5653 60.348 66.4677 61.4874C67.23 62.3262 67.7388 63.3642 67.9344 64.4808C67.9272 65.1069 67.6809 65.7066 67.2459 66.1569C66.3174 67.1199 65.3169 68.0106 64.2528 68.8209C64.1547 68.9133 64.077 69.0246 64.0236 69.1482C63.9702 69.2718 63.9429 69.405 63.9429 69.5394C63.9429 69.6741 63.9702 69.807 64.0236 69.9306C64.077 70.0542 64.1547 70.1655 64.2528 70.2579C64.4433 70.4478 64.7016 70.5546 64.971 70.5546C65.2404 70.5546 65.4987 70.4478 65.6895 70.2579C67.1322 69.3213 68.4498 68.2047 69.6108 66.9354C70.2147 66.177 70.5513 65.2404 70.5684 64.2711C70.5516 63.4128 70.3578 62.5671 69.9999 61.7868C69.3588 60.5412 68.6493 59.3319 67.8747 58.1649C67.2567 57.4197 66.9462 56.4669 67.0065 55.5009L67.2459 55.2615C67.3359 55.1715 67.8147 54.8721 68.1141 54.6627C69.0312 54.1449 69.8853 53.5221 70.6584 52.8069C71.1924 52.2855 71.5839 51.6363 71.7957 50.9211C72.1854 49.5348 72.0132 48.0507 71.3169 46.7904C70.5714 45.7008 69.708 44.697 68.7426 43.797Z" fill="black"/>
</g>
<defs>
<clipPath id="clip0_3005_25">
<rect width="72" height="72" fill="white"/>
</clipPath>
</defs>
</svg>
