<svg width="72" height="72" viewBox="0 0 72 72" fill="none" xmlns="http://www.w3.org/2000/svg">
<g clip-path="url(#clip0_3005_21)">
<path fill-rule="evenodd" clip-rule="evenodd" d="M56.4867 27.4287L55.5567 26.1987C54.5667 25.2987 53.1567 25.8387 53.2167 26.6787C53.2167 26.9187 53.2167 27.2487 53.5167 27.4587C54.4467 28.3587 53.8767 27.9987 54.1767 28.5387C54.9867 31.2387 55.1967 37.5387 52.6167 39.6987C52.3986 39.882 52.2549 40.1388 52.2126 40.4205C52.1703 40.7025 52.2321 40.9899 52.3869 41.2293C52.5417 41.4687 52.7784 41.6433 53.0526 41.7207C53.3268 41.7978 53.6199 41.7723 53.8767 41.6487C55.0536 40.9485 56.067 40.0047 56.8491 38.8806C57.6312 37.7565 58.1637 36.4782 58.4109 35.1312C58.6581 33.7845 58.6143 32.4003 58.2825 31.0719C57.9504 29.7433 57.3384 28.5011 56.4867 27.4287Z" fill="black"/>
<path fill-rule="evenodd" clip-rule="evenodd" d="M66.3579 16.868C65.9979 16.3579 61.4076 11.7675 60.7176 13.7177C59.2473 14.8878 62.7876 15.7578 64.1679 18.248C65.9202 21.5555 67.0971 25.1369 67.6482 28.8389C69.5682 39.9699 65.0379 48.6705 57.8073 52.4511C57.6693 52.5198 57.5463 52.6152 57.4455 52.7319C57.3444 52.8483 57.2673 52.9836 57.2184 53.1297C57.1698 53.2761 57.1503 53.4306 57.1611 53.5842C57.1722 53.7381 57.2133 53.8881 57.2823 54.0261C57.3513 54.1641 57.4467 54.2871 57.5631 54.3879C57.6795 54.489 57.8148 54.5661 57.9612 54.6147C58.1073 54.6636 58.2618 54.6831 58.4157 54.672C58.5693 54.6612 58.7196 54.6201 58.8573 54.5511C73.5285 47.6205 75.7488 30.219 66.3579 16.868Z" fill="black"/>
<path fill-rule="evenodd" clip-rule="evenodd" d="M41.3958 10.2374C35.6955 3.03678 19.284 17.768 15.2337 26.3188C15.0575 26.1973 14.8476 26.1343 14.6336 26.1388C5.99289 25.9887 -2.31782 32.8293 0.592421 41.5302C1.16986 43.3029 2.2168 44.8863 3.62199 46.1118C5.02719 47.3376 6.73815 48.1596 8.5731 48.4908C10.07 48.8346 11.598 49.0257 13.1335 49.0608C19.7641 48.7308 19.134 48.4308 16.9138 29.7391C16.7338 28.719 14.6636 28.509 14.9636 30.9393C15.397 35.7198 15.397 40.5297 14.9636 45.3105C13.8835 45.1605 14.7236 45.3105 11.2133 45.0405L8.21307 44.2302C3.74268 42.5802 0.922452 34.7196 8.75313 30.249C13.9735 27.2488 15.5037 30.039 17.7539 26.2288C21.4088 20.7751 26.3293 16.287 32.0952 13.1476C33.8652 12.2176 37.4355 10.6874 38.6058 12.3376C41.6058 16.4779 42.3561 49.5708 38.7858 57.5514C37.7655 59.8317 36.3555 61.1817 33.9552 60.5517C30.2949 59.5917 23.0343 54.0711 18.954 49.4808C18.7471 49.2342 18.4507 49.0797 18.13 49.0515C17.8093 49.0233 17.4905 49.1238 17.2438 49.3308C16.9972 49.5375 16.8428 49.8339 16.8146 50.1546C16.7865 50.4753 16.8869 50.7942 17.0938 51.0408C20.5242 54.9966 24.4933 58.4505 28.8848 61.3017C29.9734 62.2224 31.245 62.9016 32.6154 63.2949C33.9861 63.6879 35.4243 63.7857 36.8355 63.582C41.8758 62.2917 43.3461 55.4814 44.0661 50.3208C44.9961 42.4002 46.2264 16.5679 41.3958 10.2374Z" fill="black"/>
</g>
<defs>
<clipPath id="clip0_3005_21">
<rect width="72" height="72" fill="white"/>
</clipPath>
</defs>
</svg>
